<?xml version="1.0" standalone="no"?>
<!DOCTYPE svg PUBLIC "-//W3C//DTD SVG 1.1//EN" "http://www.w3.org/Graphics/SVG/1.1/DTD/svg11.dtd" >
<svg>
<metadata>
Created by FontForge 20090914 at Thu Jul 21 21:37:30 2022
 By www-data
Copyright (c) 2003-2022 SIL International
</metadata>
<defs>
<font id="GentiumBookPlus" horiz-adv-x="0" >
  <font-face 
    font-family="Gentium Book Plus"
    font-weight="400"
    font-stretch="normal"
    units-per-em="2048"
    panose-1="2 0 5 3 6 0 0 2 0 4"
    ascent="1638"
    descent="-410"
    x-height="930"
    cap-height="1260"
    bbox="-1395 -950 4492 2600"
    underline-thickness="100"
    underline-position="-200"
    unicode-range="U+0020-U+1DF1E"
  />
<missing-glyph horiz-adv-x="1400" 
d="M100 1800h1200v-1800h-1200v1800zM150 50h1100v1700h-1100v-1700z" />
    <glyph glyph-name="f_i" unicode="fi" horiz-adv-x="1232" 
d="M842 1454c0 -10 -9.00098 -24.167 -27.001 -42.5s-38 -36 -60 -53s-39.667 -28.833 -53 -35.5c-31.333 32 -62.833 55.333 -94.5 70s-56.834 22 -75.501 22c-22.667 0 -46.167 -10.833 -70.5 -32.5s-44.833 -61.334 -61.5 -119.001s-25 -140.167 -25 -247.5v-86h255
l32 -31c-12.667 -20 -29.167 -41.333 -49.5 -64s-36.5 -37.667 -48.5 -45c-16 8 -38.167 15.833 -66.5 23.5s-69.166 11.5 -122.499 11.5v-713c0 -8 15 -16.167 45 -24.5s84 -19.833 162 -34.5v-53h-524v53c45.333 8 79.5 17.833 102.5 29.5s34.5 21.5 34.5 29.5v713h-129
l-23 31l78 74h74v31c0 94.667 8.33301 171.834 25 231.501s39.334 108.667 68.001 147s60.667 72.833 96 103.5c40.667 35.333 85.167 62 133.5 80s87.833 27 118.5 27c31.333 0 62.833 -6.33301 94.5 -19s58.167 -26.667 79.5 -42s32 -27 32 -35zM1075 1261
c0 -40 -12.834 -73.668 -38.501 -101.001s-57.5 -41 -95.5 -41c-67.333 0 -101 33.667 -101 101c0 40.667 12.833 74.334 38.5 101.001s56.834 40 93.501 40c31.333 0 56.333 -8.33301 75 -25s28 -41.667 28 -75zM724.998 -0.000976562l-0.00195312 53
c91.333 18.667 137 39 137 61v549c0 45.333 -2 79.333 -6 102s-15.5 38.5 -34.5 47.5s-51.167 15.833 -96.5 20.5v50c46.667 8 94.334 18.667 143.001 32s92 28.333 130 45h44v-846c0 -8 10.833 -17.833 32.5 -29.5s56.834 -22.167 105.501 -31.5v-53h-455z" />
    <glyph glyph-name="f_l" unicode="fl" horiz-adv-x="1232" 
d="M842 1454c0 -10 -9.00098 -24.167 -27.001 -42.5s-38 -36 -60 -53s-39.667 -28.833 -53 -35.5c-31.333 32 -62.833 55.333 -94.5 70s-56.834 22 -75.501 22c-22.667 0 -46.167 -10.833 -70.5 -32.5s-44.833 -61.334 -61.5 -119.001s-25 -140.167 -25 -247.5v-86h255
l32 -31c-12.667 -20 -29.167 -41.333 -49.5 -64s-36.5 -37.667 -48.5 -45c-16 8 -38.167 15.833 -66.5 23.5s-69.166 11.5 -122.499 11.5v-713c0 -8 15 -16.167 45 -24.5s84 -19.833 162 -34.5v-53h-524v53c45.333 8 79.5 17.833 102.5 29.5s34.5 21.5 34.5 29.5v713h-129
l-23 31l78 74h74v31c0 94.667 8.33301 171.834 25 231.501s39.334 108.667 68.001 147s60.667 72.833 96 103.5c40.667 35.333 85.167 62 133.5 80s87.833 27 118.5 27c31.333 0 62.833 -6.33301 94.5 -19s58.167 -26.667 79.5 -42s32 -27 32 -35zM714.999 0
l0.00195312 53.002c57.333 10 96.166 20 116.499 30s30.5 20.333 30.5 31v1172c0 39.333 -3.66699 67.5 -11 84.5s-20.833 28.5 -40.5 34.5s-48.167 11 -85.5 15v50c54 9.33301 102.667 19.666 146 30.999s87.666 27.666 132.999 48.999l38 -36v-1400
c0 -10 11 -20.333 33 -31s60.333 -20.667 115 -30v-53h-475z" />
    <glyph glyph-name="f_f_i" unicode="ffi" horiz-adv-x="1888" 
d="M842 1454c0 -10 -9.00098 -24.167 -27.001 -42.5s-38 -36 -60 -53s-39.667 -28.833 -53 -35.5c-31.333 32 -62.833 55.333 -94.5 70s-56.834 22 -75.501 22c-22.667 0 -46.167 -10.833 -70.5 -32.5s-44.833 -61.334 -61.5 -119.001s-25 -140.167 -25 -247.5v-86h255
l32 -31c-12.667 -20 -29.167 -41.333 -49.5 -64s-36.5 -37.667 -48.5 -45c-16 8 -38.167 15.833 -66.5 23.5s-69.166 11.5 -122.499 11.5v-713c0 -8 15 -16.167 45 -24.5s84 -19.833 162 -34.5v-53h-524v53c45.333 8 79.5 17.833 102.5 29.5s34.5 21.5 34.5 29.5v713h-129
l-23 31l78 74h74v31c0 94.667 8.33301 171.834 25 231.501s39.334 108.667 68.001 147s60.667 72.833 96 103.5c40.667 35.333 85.167 62 133.5 80s87.833 27 118.5 27c31.333 0 62.833 -6.33301 94.5 -19s58.167 -26.667 79.5 -42s32 -27 32 -35zM1499 1454
c0 -10 -9.00098 -24.167 -27.001 -42.5s-38 -36 -60 -53s-39.667 -28.833 -53 -35.5c-31.333 32 -62.833 55.333 -94.5 70s-56.834 22 -75.501 22c-22.667 0 -46.167 -10.833 -70.5 -32.5s-44.833 -61.334 -61.5 -119.001s-25 -140.167 -25 -247.5v-86h255l32 -31
c-12.667 -20 -29.167 -41.333 -49.5 -64s-36.5 -37.667 -48.5 -45c-16 8 -38.167 15.833 -66.5 23.5s-69.166 11.5 -122.499 11.5v-713c0 -8 15 -16.167 45 -24.5s84 -19.833 162 -34.5v-53h-524v53c45.333 8 79.5 17.833 102.5 29.5s34.5 21.5 34.5 29.5v713h-129l-23 31
l78 74h74v31c0 94.667 8.33301 171.834 25 231.501s39.334 108.667 68.001 147s60.667 72.833 96 103.5c40.667 35.333 85.167 62 133.5 80s87.833 27 118.5 27c31.333 0 62.833 -6.33301 94.5 -19s58.167 -26.667 79.5 -42s32 -27 32 -35zM1731 1261
c0 -40 -12.834 -73.668 -38.501 -101.001s-57.5 -41 -95.5 -41c-67.333 0 -101 33.667 -101 101c0 40.667 12.833 74.334 38.5 101.001s56.834 40 93.501 40c31.333 0 56.333 -8.33301 75 -25s28 -41.667 28 -75zM1381 -0.000976562l-0.00195312 53
c91.333 18.667 137 39 137 61v549c0 45.333 -2 79.333 -6 102s-15.5 38.5 -34.5 47.5s-51.167 15.833 -96.5 20.5v50c46.667 8 94.334 18.667 143.001 32s92 28.333 130 45h44v-846c0 -8 10.833 -17.833 32.5 -29.5s56.834 -22.167 105.501 -31.5v-53h-455z" />
    <glyph glyph-name="f_f_l" unicode="ffl" horiz-adv-x="1888" 
d="M842 1454c0 -10 -9.00098 -24.167 -27.001 -42.5s-38 -36 -60 -53s-39.667 -28.833 -53 -35.5c-31.333 32 -62.833 55.333 -94.5 70s-56.834 22 -75.501 22c-22.667 0 -46.167 -10.833 -70.5 -32.5s-44.833 -61.334 -61.5 -119.001s-25 -140.167 -25 -247.5v-86h255
l32 -31c-12.667 -20 -29.167 -41.333 -49.5 -64s-36.5 -37.667 -48.5 -45c-16 8 -38.167 15.833 -66.5 23.5s-69.166 11.5 -122.499 11.5v-713c0 -8 15 -16.167 45 -24.5s84 -19.833 162 -34.5v-53h-524v53c45.333 8 79.5 17.833 102.5 29.5s34.5 21.5 34.5 29.5v713h-129
l-23 31l78 74h74v31c0 94.667 8.33301 171.834 25 231.501s39.334 108.667 68.001 147s60.667 72.833 96 103.5c40.667 35.333 85.167 62 133.5 80s87.833 27 118.5 27c31.333 0 62.833 -6.33301 94.5 -19s58.167 -26.667 79.5 -42s32 -27 32 -35zM1499 1454
c0 -10 -9.00098 -24.167 -27.001 -42.5s-38 -36 -60 -53s-39.667 -28.833 -53 -35.5c-31.333 32 -62.833 55.333 -94.5 70s-56.834 22 -75.501 22c-22.667 0 -46.167 -10.833 -70.5 -32.5s-44.833 -61.334 -61.5 -119.001s-25 -140.167 -25 -247.5v-86h255l32 -31
c-12.667 -20 -29.167 -41.333 -49.5 -64s-36.5 -37.667 -48.5 -45c-16 8 -38.167 15.833 -66.5 23.5s-69.166 11.5 -122.499 11.5v-713c0 -8 15 -16.167 45 -24.5s84 -19.833 162 -34.5v-53h-524v53c45.333 8 79.5 17.833 102.5 29.5s34.5 21.5 34.5 29.5v713h-129l-23 31
l78 74h74v31c0 94.667 8.33301 171.834 25 231.501s39.334 108.667 68.001 147s60.667 72.833 96 103.5c40.667 35.333 85.167 62 133.5 80s87.833 27 118.5 27c31.333 0 62.833 -6.33301 94.5 -19s58.167 -26.667 79.5 -42s32 -27 32 -35zM1371 0l0.00195312 53.002
c57.333 10 96.166 20 116.499 30s30.5 20.333 30.5 31v1172c0 39.333 -3.66699 67.5 -11 84.5s-20.833 28.5 -40.5 34.5s-48.167 11 -85.5 15v50c54 9.33301 102.667 19.666 146 30.999s87.666 27.666 132.999 48.999l38 -36v-1400c0 -10 11 -20.333 33 -31
s60.333 -20.667 115 -30v-53h-475z" />
    <glyph glyph-name="f_f" unicode="ff" horiz-adv-x="1313" 
d="M842 1454c0 -10 -9.00098 -24.167 -27.001 -42.5s-38 -36 -60 -53s-39.667 -28.833 -53 -35.5c-31.333 32 -62.833 55.333 -94.5 70s-56.834 22 -75.501 22c-22.667 0 -46.167 -10.833 -70.5 -32.5s-44.833 -61.334 -61.5 -119.001s-25 -140.167 -25 -247.5v-86h255
l32 -31c-12.667 -20 -29.167 -41.333 -49.5 -64s-36.5 -37.667 -48.5 -45c-16 8 -38.167 15.833 -66.5 23.5s-69.166 11.5 -122.499 11.5v-713c0 -8 15 -16.167 45 -24.5s84 -19.833 162 -34.5v-53h-524v53c45.333 8 79.5 17.833 102.5 29.5s34.5 21.5 34.5 29.5v713h-129
l-23 31l78 74h74v31c0 94.667 8.33301 171.834 25 231.501s39.334 108.667 68.001 147s60.667 72.833 96 103.5c40.667 35.333 85.167 62 133.5 80s87.833 27 118.5 27c31.333 0 62.833 -6.33301 94.5 -19s58.167 -26.667 79.5 -42s32 -27 32 -35zM1499 1454
c0 -10 -9.00098 -24.167 -27.001 -42.5s-38 -36 -60 -53s-39.667 -28.833 -53 -35.5c-31.333 32 -62.833 55.333 -94.5 70s-56.834 22 -75.501 22c-22.667 0 -46.167 -10.833 -70.5 -32.5s-44.833 -61.334 -61.5 -119.001s-25 -140.167 -25 -247.5v-86h255l32 -31
c-12.667 -20 -29.167 -41.333 -49.5 -64s-36.5 -37.667 -48.5 -45c-16 8 -38.167 15.833 -66.5 23.5s-69.166 11.5 -122.499 11.5v-713c0 -8 15 -16.167 45 -24.5s84 -19.833 162 -34.5v-53h-524v53c45.333 8 79.5 17.833 102.5 29.5s34.5 21.5 34.5 29.5v713h-129l-23 31
l78 74h74v31c0 94.667 8.33301 171.834 25 231.501s39.334 108.667 68.001 147s60.667 72.833 96 103.5c40.667 35.333 85.167 62 133.5 80s87.833 27 118.5 27c31.333 0 62.833 -6.33301 94.5 -19s58.167 -26.667 79.5 -42s32 -27 32 -35z" />
    <glyph glyph-name=".notdef" horiz-adv-x="1400" 
d="M100 1800h1200v-1800h-1200v1800zM150 50h1100v1700h-1100v-1700z" />
    <glyph glyph-name="space" unicode=" " horiz-adv-x="451" 
 />
    <glyph glyph-name="exclam" unicode="!" horiz-adv-x="582" 
d="M343 397c-12.667 -9.33301 -25.667 -17.001 -39 -23.001s-28.333 -11.333 -45 -16l-29 21l-57 1009c26.667 16.667 58 33.834 94 51.501s66 31.167 90 40.5l45 -27zM419 125.999c0 -48.667 -14.832 -88.501 -44.499 -119.501s-65.834 -46.5 -108.501 -46.5
c-76.667 0 -115 40 -115 120c0 47.333 15.333 86.833 46 118.5s66.667 47.5 108 47.5c34 0 61.5 -10.167 82.5 -30.5s31.5 -50.166 31.5 -89.499z" />
    <glyph glyph-name="quotedbl" unicode="&#x22;" horiz-adv-x="900" 
d="M695 834c-10 -5.33301 -26.334 -10.167 -49.001 -14.5s-41.667 -6.5 -57 -6.5l-63 603c9.33301 6 26.333 13.667 51 23s49.334 18 74.001 26s42 13 52 15l45 -23zM321.999 833.999c-10 -5.33301 -26.332 -10.167 -48.999 -14.5s-41.667 -6.5 -57 -6.5l-63 603
c10 6 27.333 13.667 52 23s49.167 18 73.5 26s41.166 13 50.499 15l46 -23z" />
    <glyph glyph-name="numbersign" unicode="#" horiz-adv-x="986" 
d="M1002 941c-2.66699 -14.667 -8 -32.1689 -16 -52.502s-14.667 -36.166 -20 -47.499h-753l-25 24c3.33301 14.667 9 31.834 17 51.501s14.333 36.167 19 49.5h753zM598 169.998c-12 -8.66699 -27.667 -16.5 -47 -23.5l-55 -19.5l-26 20l315 1104
c14 10.667 30.167 18.667 48.5 24s35.5 11 51.5 17l27 -22zM292 169.998c-12 -8.66699 -27.333 -16.5 -46 -23.5l-54 -19.5l-26 20l315 1104c14 10.667 30.167 18.667 48.5 24s34.833 11 49.5 17l29 -22zM893 567.998c-2.66699 -12.667 -7.5 -29.333 -14.5 -50
s-13.167 -36.667 -18.5 -48h-756l-22 25c3.33301 13.333 8.5 30 15.5 50s13.5 36.667 19.5 50h754z" />
    <glyph glyph-name="dollar" unicode="$" horiz-adv-x="986" 
d="M540 -138c-20 -17.333 -43.667 -29.333 -71 -36l-29 25v1500l34.5 21.5c5 3 17.167 6.83301 36.5 11.5l29 -24v-1498zM452 -10c-63.333 0 -123.166 8.99805 -179.499 26.998s-114.833 46 -175.5 84c-6 4.66699 -10 23.334 -12 56.001s-1.66699 69 1 109
s7.33398 72.333 14.001 97l53 -4c74.667 -160 191 -240 349 -240c38 0 74.667 8 110 24s64.166 39.167 86.499 69.5s33.5 66.833 33.5 109.5c0 54 -15.333 97.667 -46 131s-70.334 60.666 -119.001 81.999s-100.167 41.333 -154.5 60s-105.833 40.334 -154.5 65.001
s-88.334 56.5 -119.001 95.5s-46 90.167 -46 153.5c0 30.667 7 63.667 21 99s37.333 68.666 70 99.999s76.334 56.833 131.001 76.5s123 29.5 205 29.5c67.333 0 131.5 -9 192.5 -27s104.833 -40.667 131.5 -68c5.33301 -6 3.16602 -20.5 -6.50098 -43.5
s-22.167 -46.5 -37.5 -70.5s-28.666 -41.333 -39.999 -52l-49 8c-69.333 98.667 -151.666 148 -246.999 148c-78.667 0 -134.834 -16 -168.501 -48s-50.5 -67 -50.5 -105c0 -43.333 15.5 -78.666 46.5 -105.999s71.167 -50.833 120.5 -70.5s101.5 -39.334 156.5 -59.001
s107.167 -43.5 156.5 -71.5s89.5 -63.833 120.5 -107.5s46.5 -99.167 46.5 -166.5c0 -59.333 -15.833 -118.666 -47.5 -177.999s-80 -108.666 -145 -147.999s-147.5 -59 -247.5 -59z" />
    <glyph glyph-name="percent" unicode="%" horiz-adv-x="1439" 
d="M1371 309c0 -61.333 -13.834 -117.666 -41.501 -168.999s-64.5 -92.5 -110.5 -123.5s-97 -46.5 -153 -46.5c-55.333 0 -104.166 15.5 -146.499 46.5s-75.333 72.167 -99 123.5s-35.5 107.666 -35.5 168.999c0 62 13.667 118.667 41 170s64 92.333 110 123
s97.333 46 154 46c57.333 0 107 -15.333 149 -46s74.5 -71.5 97.5 -122.5s34.5 -107.833 34.5 -170.5zM362.999 14c-12.667 -8.66699 -34.834 -17.5 -66.501 -26.5l-72.5 -20.5l-24 34l875 1191c16.667 9.33301 38.834 18 66.501 26s51.167 14.333 70.5 19l28 -32z
M655.999 897c0 -61.333 -13.832 -117.833 -41.499 -169.5s-64.667 -92.834 -111 -123.501s-97.5 -46 -153.5 -46s-105.167 15.333 -147.5 46s-75.166 71.834 -98.499 123.501s-35 108.167 -35 169.5s13.5 117.666 40.5 168.999s63.5 92.333 109.5 123s97.333 46 154 46
c57.333 0 107.166 -15.167 149.499 -45.5s75.166 -71.166 98.499 -122.499s35 -108 35 -170zM1207 289c0 95.333 -13.999 165.834 -41.999 211.501s-61 68.5 -99 68.5c-30.667 0 -57.5 -19 -80.5 -57s-34.5 -98 -34.5 -180c0 -96.667 12.667 -168 38 -214s59 -69 101 -69
c33.333 0 61.166 19.667 83.499 59s33.5 99.666 33.5 180.999zM491.001 877.001c0 96 -14.168 166.501 -42.501 211.501s-61.166 67.5 -98.499 67.5c-31.333 0 -58.5 -19 -81.5 -57s-34.5 -97.667 -34.5 -179c0 -96.667 12.667 -168 38 -214s59 -69 101 -69
c33.333 0 61.333 19.667 84 59s34 99.666 34 180.999z" />
    <glyph glyph-name="ampersand" unicode="&#x26;" horiz-adv-x="1384" 
d="M1369 748c-36 -44 -70.668 -77.667 -104.001 -101c-24.667 11.333 -53.167 21.166 -85.5 29.499s-59.5 12.833 -81.5 13.5c14 -22 23 -43.5 27 -64.5s6 -48.5 6 -82.5c0 -58 -16.167 -120 -48.5 -186s-77.166 -128.5 -134.499 -187.5s-124 -107 -200 -144
s-157.667 -55.5 -245 -55.5c-129.333 0 -233 32.5 -311 97.5s-117 159.833 -117 284.5c0 90 37.167 181 111.5 273s183.5 178 327.5 258c84.667 48 140.834 97 168.501 147s41.5 97 41.5 141c0 46.667 -11.5 85.834 -34.5 117.501s-55.167 47.5 -96.5 47.5
c-44 0 -76.833 -21.167 -98.5 -63.5s-32.5 -89.833 -32.5 -142.5c0 -63.333 14.667 -131.333 44 -204s68.333 -146.334 117 -221.001s102.334 -147 161.001 -217s117.667 -134.333 177 -193s113.666 -108 162.999 -148c55.333 -46.667 120 -61.334 194 -44.001l11 -53
c-57.333 -25.333 -109.833 -45 -157.5 -59s-78.5 -21 -92.5 -21c-18 0 -49.167 16.333 -93.5 49s-95.833 77.334 -154.5 134.001s-118.667 121.834 -180 195.501s-118.5 151.667 -171.5 234s-95.833 165.5 -128.5 249.5s-49 164.333 -49 241c0 72 16.167 136.333 48.5 193
s74.833 101.5 127.5 134.5s109.667 49.5 171 49.5c60 0 108 -11.5 144 -34.5s62.167 -53.167 78.5 -90.5s24.5 -77.666 24.5 -120.999c0 -69.333 -25.333 -136.333 -76 -201s-115.334 -121.667 -194.001 -171c-92.667 -58.667 -164.834 -113 -216.501 -163
s-87.834 -98.833 -108.501 -146.5s-31 -97.5 -31 -149.5c0 -62 13.167 -113.667 39.5 -155s60.333 -72.333 102 -93s85.5 -31 131.5 -31c66 0 126.333 13.167 181 39.5s101.834 60.166 141.501 101.499s70.334 85.666 92.001 132.999s32.5 92 32.5 134
c0 56 -16.5 102.667 -49.5 140s-69.167 56 -108.5 56l-24 30c6.66699 8.66699 18 19.334 34 32.001s31 21.667 45 27h456z" />
    <glyph glyph-name="quotesingle" unicode="'" horiz-adv-x="527" 
d="M322 834c-10 -5.33301 -26.332 -10.167 -48.999 -14.5s-41.667 -6.5 -57 -6.5l-63 603c10 6 27.333 13.667 52 23s49.167 18 73.5 26s41.166 13 50.499 15l46 -23z" />
    <glyph glyph-name="parenleft" unicode="(" horiz-adv-x="659" 
d="M586 -315c-104 50.667 -190.832 122.499 -260.499 215.499s-122 201.333 -157 325s-52.5 256.167 -52.5 397.5c0 146 19.333 283.5 58 412.5s93.167 242.333 163.5 340s153.166 172.5 248.499 224.5l39 -55c-56 -50 -107.5 -117.667 -154.5 -203
s-84.5 -186.166 -112.5 -302.499s-42 -245.833 -42 -388.5c0 -129.333 12 -252.5 36 -369.5s59 -222 105 -315s102 -168.5 168 -226.5z" />
    <glyph glyph-name="parenright" unicode=")" horiz-adv-x="659" 
d="M545 663c0 -146 -19.5 -283.67 -58.5 -413.003s-93.667 -243 -164 -341s-152.833 -172.667 -247.5 -224l-39 55c56 50 107.333 117.667 154 203s84.167 186.333 112.5 303s42.5 246.334 42.5 389.001c0 128.667 -11.833 251.667 -35.5 369s-58.5 222.5 -104.5 315.5
s-102.333 168.167 -169 225.5l39 55c103.333 -50 190 -121.667 260 -215s122.5 -201.666 157.5 -324.999s52.5 -255.666 52.5 -396.999z" />
    <glyph glyph-name="asterisk" unicode="*" horiz-adv-x="912" 
d="M493 1199l245.998 192.006l56.5 -39c23.667 -16.667 40.834 -30.334 51.501 -41.001l-2 -46l-314 -130l290 -118c-1.33301 -16 -3.33301 -38.5 -6 -67.5s-6.33398 -50.833 -11.001 -65.5l-42 -22l-267 207l42 -308c-14 -8.66699 -34.167 -18.834 -60.5 -30.501
s-46.833 -18.834 -61.5 -21.501l-41 23l46 337l-246 -192c-14.667 8.66699 -34 21.5 -58 38.5s-40.333 30.833 -49 41.5l1 47l315 129l-291 118c0.666992 16 2.33398 38.667 5.00098 68s6.33398 50.666 11.001 63.999l41 22l269 -207l-43 310
c14.667 7.33301 35.5 17.166 62.5 29.499s47.833 20.166 62.5 23.499l38 -26z" />
    <glyph glyph-name="plus" unicode="+" horiz-adv-x="848" 
d="M789 596c-3.33301 -13.333 -8.83301 -29.667 -16.5 -49s-14.167 -34.333 -19.5 -45h-667l-28 26c4 14 9.5 30 16.5 48s13.5 33.667 19.5 47h668zM487 231.999c-30.667 -14.667 -63.333 -25.667 -98 -33l-27 24v672l47 16c19.333 6.66699 36.333 11.667 51 15l27 -25v-669
z" />
    <glyph glyph-name="comma" unicode="," horiz-adv-x="497" 
d="M420 70c0 -39.333 -10.334 -83.5 -31.001 -132.5s-49.5 -97.167 -86.5 -144.5s-79.833 -88.333 -128.5 -123l-53 40c37.333 43.333 65 86 83 128s27 92 27 150c0 29.333 -10.333 54 -31 74s-52.667 28.333 -96 25l-16 57c6 8 19.333 17.333 40 28
s44.334 21.334 71.001 32.001s52.5 19.334 77.5 26.001s44.167 9.66699 57.5 9c32 -14.667 54.333 -35.834 67 -63.501s19 -62.834 19 -105.501z" />
    <glyph glyph-name="hyphen" unicode="-" horiz-adv-x="703" 
d="M644 549c-4 -14.667 -9.66797 -32 -17.001 -52s-13.666 -35.667 -18.999 -47h-522l-28 27c4 14 9.5 30.667 16.5 50s13.5 35.333 19.5 48h523z" />
    <glyph glyph-name="period" unicode="." horiz-adv-x="497" 
d="M399 126c0 -48.667 -14.832 -88.501 -44.499 -119.501s-65.834 -46.5 -108.501 -46.5c-76.667 0 -115 40 -115 120c0 47.333 15.333 86.833 46 118.5s66.667 47.5 108 47.5c34 0 61.5 -10.167 82.5 -30.5s31.5 -50.166 31.5 -89.499z" />
    <glyph glyph-name="slash" unicode="/" horiz-adv-x="966" 
d="M221 -281c-13.333 -9.33301 -35.3311 -19.333 -65.998 -30s-54.334 -18.667 -71.001 -24l-40 28l701 1856c18 11.333 40.167 21.5 66.5 30.5s49.166 15.833 68.499 20.5l39 -24z" />
    <glyph glyph-name="zero" unicode="0" horiz-adv-x="986" 
d="M915 602c0 -114.667 -18.5 -219.834 -55.5 -315.501s-88.333 -172.334 -154 -230.001s-142.167 -86.5 -229.5 -86.5s-161 28.833 -221 86.5s-105.667 134.334 -137 230.001s-47 200.834 -47 315.501s18.167 220 54.5 316s87.5 172.833 153.5 230.5s143 86.5 231 86.5
s162.167 -28.5 222.5 -85.5s105.833 -133.5 136.5 -229.5s46 -202 46 -318zM719 565c0 182.667 -24.168 320.001 -72.501 412.001s-105.166 138 -170.499 138c-66 0 -117.167 -36.5 -153.5 -109.5s-54.5 -193.167 -54.5 -360.5c0 -182.667 22.5 -320.834 67.5 -414.501
s103.167 -140.5 174.5 -140.5c67.333 0 119 37 155 111s54 195.333 54 364z" />
    <glyph glyph-name="one" unicode="1" horiz-adv-x="986" 
d="M165 0l-0.000976562 63c104.667 12.667 175.834 27.334 213.501 44.001s56.5 32 56.5 46v777c0 26.667 -1 47.5 -3 62.5s-7 26.833 -15 35.5s-31.167 13.167 -69.5 13.5s-101.5 -8.83398 -189.5 -27.501l-24 61c28 7.33301 62.333 18 103 32s82.667 29.5 126 46.5
l121.5 49.5c37.667 16 68.167 30 91.5 42l39 -37v-1055c0 -12.667 16.5 -27.667 49.5 -45s99.833 -32.333 200.5 -45v-63h-700z" />
    <glyph glyph-name="two" unicode="2" horiz-adv-x="986" 
d="M851 0l-728.997 0.00195312l-29 74l289.5 345c75 92.667 133 169.5 174 230.5s69.5 112.667 85.5 155s24 82.166 24 119.499c0 60 -14.333 110.667 -43 152s-76.334 62 -143.001 62c-36.667 0 -68.167 -10.833 -94.5 -32.5s-46.333 -48.5 -60 -80.5s-19.5 -64 -17.5 -96
c-22.667 -12.667 -47.167 -24 -73.5 -34s-54.5 -16.667 -84.5 -20l-30 43c0 34 11.833 69.5 35.5 106.5s55.667 71.5 96 103.5s86 57.833 137 77.5s104.167 29.5 159.5 29.5c88 0 160.833 -22.333 218.5 -67s86.5 -113.334 86.5 -206.001
c0 -44.667 -9.83301 -90.5 -29.5 -137.5s-51.334 -101 -95.001 -162s-101.334 -133.667 -173.001 -218l-263.5 -305.5h412c22.667 0 40.667 9.33301 54 28s23.5 40.167 30.5 64.5s11.667 45.833 14 64.5l3.5 28l60 -14z" />
    <glyph glyph-name="three" unicode="3" horiz-adv-x="986" 
d="M855 381c0 -74.667 -16.998 -143.165 -50.998 -205.498s-83 -112.166 -147 -149.499s-141.667 -56 -233 -56c-52.667 0 -109.667 11.333 -171 34s-122 62.667 -182 120l36 77c60.667 -44.667 113.167 -75.5 157.5 -92.5s91.5 -25.5 141.5 -25.5
c74.667 0 136.167 23.333 184.5 70s72.5 112.667 72.5 198c0 64.667 -12.833 116.5 -38.5 155.5s-57.167 67 -94.5 84s-74 25.5 -110 25.5c-18.667 0 -30.334 -0.333008 -35.001 -1s-17.334 -2.66699 -38.001 -6l-15 70c80 21.333 139.333 47.166 178 77.499
s64.334 61.666 77.001 93.999s19 62.166 19 89.499c0 30.667 -5.83301 61.167 -17.5 91.5s-29.667 55.5 -54 75.5s-56.166 30 -95.499 30c-48 0 -85.5 -16.833 -112.5 -50.5s-35.833 -73.167 -26.5 -118.5c-24 -12.667 -49.833 -23.334 -77.5 -32.001
s-57.167 -14.334 -88.5 -17.001l-30 41c0 37.333 17.667 77.333 53 120s82.5 79.167 141.5 109.5s124.833 45.5 197.5 45.5c71.333 0 129.166 -13.667 173.499 -41s76.833 -62.166 97.5 -104.499s31 -86.166 31 -131.499c0 -50 -19.333 -99.167 -58 -147.5
s-90.334 -85.833 -155.001 -112.5c52 -6 98.333 -23.833 139 -53.5s72.667 -67.5 96 -113.5s35 -96 35 -150z" />
    <glyph glyph-name="four" unicode="4" horiz-adv-x="986" 
d="M902 435c-14 -21.333 -28.167 -38.832 -42.5 -52.499s-29.166 -26.167 -44.499 -37.5h-65v-231c0 -10 9.5 -19.5 28.5 -28.5s55.833 -19.833 110.5 -32.5v-53h-519v53c87.333 14.667 144.166 27.5 170.499 38.5s39.5 22.167 39.5 33.5v220h-489l-36 36l491 791
c28.667 11.333 57.667 23.666 87 36.999l78 36l39 -37v-743h126zM580 1020l-354 -555h354v555z" />
    <glyph glyph-name="five" unicode="5" horiz-adv-x="986" 
d="M864 410c0 -77.333 -15.6699 -149.5 -47.0029 -216.5s-77.666 -121 -138.999 -162s-137 -61.5 -227 -61.5c-62 0 -125.167 12.167 -189.5 36.5s-125.166 63.166 -182.499 116.499l40 74c70 -48.667 129.667 -80.334 179 -95.001s93 -22 131 -22
c53.333 0 98.333 13.333 135 40s64.667 61.834 84 105.501s29 90.834 29 141.501c0 91.333 -22.333 163.5 -67 216.5s-110 79.5 -196 79.5c-37.333 0 -76.166 -7.16699 -116.499 -21.5s-77.833 -34.833 -112.5 -61.5l-47 33l21.5 133l25 164.5
c8.33301 57 15.833 111.5 22.5 163.5s11 95.667 13 131h466c38 0 67.667 3 89 9l32 9l31 -31c-14.667 -22 -34.334 -47 -59.001 -75s-44.667 -47.667 -60 -59h-402c-1.33301 -26 -4.66602 -59.167 -9.99902 -99.5s-10.833 -79.5 -16.5 -117.5s-10.5 -67 -14.5 -87
c58.667 20.667 127 31 205 31c83.333 0 153.5 -17.667 210.5 -53s100 -81.5 129 -138.5s43.5 -118.167 43.5 -183.5z" />
    <glyph glyph-name="six" unicode="6" horiz-adv-x="986" 
d="M911 412c0 -46.667 -8.33105 -95.667 -24.998 -147s-41.334 -99.333 -74.001 -144s-73.334 -81 -122.001 -109s-105 -42 -169 -42c-76.667 0 -146.5 21 -209.5 63s-113.167 100.833 -150.5 176.5s-56 163.5 -56 263.5c0 126 25.667 243.667 77 353s129 201.5 233 276.5
s235 123.833 393 146.5l22 -69c-124.667 -28 -226.167 -75.333 -304.5 -142s-135.833 -144 -172.5 -232s-55 -177.667 -55 -269c0 -158 23.667 -273.167 71 -345.5s109.333 -108.5 186 -108.5c44.667 0 79.667 13.5 105 40.5s43.166 61 53.499 102s15.5 81.833 15.5 122.5
c0 83.333 -11.333 147.166 -34 191.499s-50.5 74.666 -83.5 90.999s-65.167 24.5 -96.5 24.5c-38.667 0 -82.167 -14.333 -130.5 -43s-92.166 -73.667 -131.499 -135l-15 106c52 70.667 109 120.334 171 149.001s113.667 43 155 43c109.333 0 194.5 -33.167 255.5 -99.5
s91.5 -154.166 91.5 -263.499z" />
    <glyph glyph-name="seven" unicode="7" horiz-adv-x="986" 
d="M910 1167l-137.502 -325.498l-128.5 -316l-106.5 -275.5c-31 -82.667 -55.167 -150.334 -72.5 -203.001c-24 -16.667 -52.167 -31.5 -84.5 -44.5s-64.833 -23.833 -97.5 -32.5l-44 36c77.333 136 144.333 262.333 201 379s108.667 229.667 156 339l145 334h-452
c-12.667 0 -25.667 -1.83301 -39 -5.5s-27.666 -15.834 -42.999 -36.501s-32.666 -56.667 -51.999 -108l-53 20l11.5 85.5c5 36.333 10.5 72.5 16.5 108.5s11.667 63.667 17 83h730z" />
    <glyph glyph-name="eight" unicode="8" horiz-adv-x="986" 
d="M897 352c0 -68.667 -19.332 -132 -57.999 -190s-90.667 -104.5 -156 -139.5s-137.666 -52.5 -216.999 -52.5c-80.667 0 -149.167 14.833 -205.5 44.5s-99 68.5 -128 116.5s-43.5 99.333 -43.5 154c0 74.667 26.5 143.334 79.5 206.001s122.5 116 208.5 160l83 -37
c-62 -46.667 -107.167 -92.834 -135.5 -138.501s-42.5 -99.167 -42.5 -160.5c0 -69.333 21.167 -126.166 63.5 -170.499s97.166 -66.5 164.499 -66.5c44.667 0 81.334 11.167 110.001 33.5s50 51.166 64 86.499s21 72.333 21 111c0 60 -13.667 108.5 -41 145.5
s-62.5 67.5 -105.5 91.5s-88.5 45.833 -136.5 65.5s-93.333 41.5 -136 65.5s-77.667 54.667 -105 92s-41 86 -41 146c0 62 16.5 117 49.5 165s77.667 85.833 134 113.5s119.166 41.5 188.499 41.5c108.667 0 191.667 -25 249 -75s86 -113.667 86 -191
c0 -60.667 -24 -115.167 -72 -163.5s-107 -94.833 -177 -139.5l-83 43c54 37.333 92.5 75.333 115.5 114s34.5 77 34.5 115c-0.666992 69.333 -19.5 119.333 -56.5 150s-84.5 46 -142.5 46c-54.667 0 -95.5 -19.333 -122.5 -58s-40.5 -80.667 -40.5 -126
c0 -42 14.167 -76.667 42.5 -104s65.166 -51.333 110.499 -72l144 -63c50.667 -21.333 98.5 -46.833 143.5 -76.5s81.833 -67 110.5 -112s43 -101.833 43 -170.5z" />
    <glyph glyph-name="nine" unicode="9" horiz-adv-x="986" 
d="M900 731c0 -134.667 -25.499 -256.5 -76.499 -365.5s-128.667 -198.833 -233 -269.5s-236.166 -117 -395.499 -139l-20 69c135.333 34 241.666 81.333 318.999 142s132.333 132.5 165 215.5s49 175.167 49 276.5c0 122 -11.833 216.5 -35.5 283.5s-53 113.667 -88 140
s-69.833 39.5 -104.5 39.5c-64 0 -113.667 -24.667 -149 -74s-53 -113.666 -53 -192.999s11.667 -140.333 35 -183s51.5 -72.167 84.5 -88.5s64.167 -24.5 93.5 -24.5c58 0 110.167 20.667 156.5 62s82.5 90.333 108.5 147l13 -115
c-33.333 -62.667 -80.5 -114.334 -141.5 -155.001s-123.167 -61 -186.5 -61c-74 0 -136.667 15.833 -188 47.5s-90.5 74.667 -117.5 129s-40.5 114.5 -40.5 180.5c0 50.667 10.333 101.834 31 153.501s49.834 99.167 87.501 142.5s82.167 78.166 133.5 104.499
s107.666 39.5 168.999 39.5c68.667 0 132.167 -17.333 190.5 -52s105.166 -89.167 140.499 -163.5s53 -170.5 53 -288.5z" />
    <glyph glyph-name="colon" unicode=":" horiz-adv-x="497" 
d="M399 126c0 -48.667 -14.832 -88.501 -44.499 -119.501s-65.834 -46.5 -108.501 -46.5c-76.667 0 -115 40 -115 120c0 47.333 15.333 86.833 46 118.5s66.667 47.5 108 47.5c34 0 61.5 -10.167 82.5 -30.5s31.5 -50.166 31.5 -89.499zM399.001 850.999
c0 -48.667 -14.832 -88.501 -44.499 -119.501s-65.834 -46.5 -108.501 -46.5c-76.667 0 -115 40 -115 120c0 47.333 15.333 86.833 46 118.5s66.667 47.5 108 47.5c34 0 61.5 -10.167 82.5 -30.5s31.5 -50.166 31.5 -89.499z" />
    <glyph glyph-name="semicolon" unicode=";" horiz-adv-x="497" 
d="M420 70c0 -39.333 -10.334 -83.5 -31.001 -132.5s-49.5 -97.167 -86.5 -144.5s-79.833 -88.333 -128.5 -123l-53 40c37.333 43.333 65 86 83 128s27 92 27 150c0 29.333 -10.333 54 -31 74s-52.667 28.333 -96 25l-16 57c6 8 19.333 17.333 40 28
s44.334 21.334 71.001 32.001s52.5 19.334 77.5 26.001s44.167 9.66699 57.5 9c32 -14.667 54.333 -35.834 67 -63.501s19 -62.834 19 -105.501zM398.999 851c0 -48.667 -14.832 -88.501 -44.499 -119.501s-65.834 -46.5 -108.501 -46.5c-76.667 0 -115 40 -115 120
c0 47.333 15.333 86.833 46 118.5s66.667 47.5 108 47.5c34 0 61.5 -10.167 82.5 -30.5s31.5 -50.166 31.5 -89.499z" />
    <glyph glyph-name="less" unicode="&#x3c;" horiz-adv-x="909" 
d="M851 879c-3.33301 -14 -8.33301 -32.667 -15 -56s-12 -41.333 -16 -54l-734 -269l-28 29l15.5 53c6.33301 22 12.5 39.667 18.5 53l732 271zM851 326l-41.5 -38.499c-13 -11.667 -29.5 -23.834 -49.5 -36.501l-674 249l-28 29l15.5 53c6.33301 22 12.5 39.667 18.5 53
l740 -271z" />
    <glyph glyph-name="equal" unicode="=" horiz-adv-x="909" 
d="M851 744c-3.33301 -13.333 -8.83301 -29.5 -16.5 -48.5s-13.5 -34.167 -17.5 -45.5h-731l-28 27c4 14 9.5 30 16.5 48s13.5 33.333 19.5 46h730zM851 444c-3.33301 -14 -8.83301 -30.165 -16.5 -48.498s-13.5 -33.5 -17.5 -45.5h-731l-28 29
c4 13.333 9.5 28.666 16.5 45.999s13.5 32.666 19.5 45.999h730z" />
    <glyph glyph-name="greater" unicode="&#x3e;" horiz-adv-x="909" 
d="M851 628c-3.33301 -14 -8.16699 -31.501 -14.5 -52.501s-12.5 -39.5 -18.5 -55.5l-732 -269l-28 28c4.66699 12.667 10.167 30.834 16.5 54.501s11.833 41.5 16.5 53.5l543 200l-556 205l-20 40l47 38.5l45 35.5l675 -248z" />
    <glyph glyph-name="question" unicode="?" horiz-adv-x="902" 
d="M826 1165c0 -60 -11.001 -113.502 -33.001 -160.502s-49.5 -90.167 -82.5 -129.5l-100 -116.5c-33.667 -38.333 -62.667 -78.833 -87 -121.5s-38.166 -90.667 -41.499 -144l-6 -96c-12.667 -9.33301 -25.167 -17.333 -37.5 -24s-27.833 -12.334 -46.5 -17.001l-27 23
l-8 114c-2.66699 45.333 4.83301 90.166 22.5 134.499s40.167 87.833 67.5 130.5l83 125.5c28 41 51.667 81.167 71 120.5s29 78 29 116c0 82 -17.167 145.333 -51.5 190s-82.5 67 -144.5 67c-43.333 0 -81.166 -18.833 -113.499 -56.5s-48.5 -82.5 -48.5 -134.5
c0 -9.33301 1.16699 -19.333 3.5 -30s5.16602 -20.667 8.49902 -30c-22 -11.333 -49.667 -21 -83 -29s-64.666 -13.667 -93.999 -17l-30 33c-0.666992 4.66699 -1.16699 10.834 -1.5 18.501s-0.5 14.167 -0.5 19.5c0 62.667 20.167 118.834 60.5 168.501
s93.666 88.834 159.999 117.501s137.833 43 214.5 43c102 0 180.167 -29.167 234.5 -87.5s81.5 -134.166 81.5 -227.499zM561.999 125.998c0 -48.667 -14.832 -88.501 -44.499 -119.501s-65.834 -46.5 -108.501 -46.5c-76.667 0 -115 40 -115 120
c0 47.333 15.333 86.833 46 118.5s66.667 47.5 108 47.5c34 0 61.5 -10.167 82.5 -30.5s31.5 -50.166 31.5 -89.499z" />
    <glyph glyph-name="at" unicode="@" horiz-adv-x="1701" 
d="M1626 557c0 -86 -14.1689 -164.83 -42.502 -236.497s-65 -133.667 -110 -186s-93.667 -92.833 -146 -121.5s-102.5 -43 -150.5 -43c-34.667 0 -65.334 13.667 -92.001 41s-45 74.333 -55 141c-36 -48 -67.167 -85.167 -93.5 -111.5s-52.333 -44.666 -78 -54.999
s-56.167 -15.5 -91.5 -15.5c-45.333 0 -90.666 18.167 -135.999 54.5s-83 89.5 -113 159.5s-45 156 -45 258c0 59.333 9.83301 119.333 29.5 180s48.334 116.5 86.001 167.5s83.167 92.167 136.5 123.5s113 47 179 47c30.667 0 57.667 -5.5 81 -16.5s52 -36.167 86 -75.5
c45.333 22 89.333 52.667 132 92l31 -30l-7.5 -30.5c-5 -20.333 -10 -46.833 -15 -79.5s-7.5 -67.334 -7.5 -104.001v-431c0 -105.333 32 -158 96 -158c22 0 47.167 16.333 75.5 49s53 78.167 74 136.5s31.5 124.833 31.5 199.5c0 150.667 -24.667 277.5 -74 380.5
s-117.333 181 -204 234s-186.667 79.5 -300 79.5c-102 0 -193.333 -18.333 -274 -55s-149.167 -86.834 -205.5 -150.501s-99.333 -136.5 -129 -218.5s-44.5 -168 -44.5 -258c0 -122.667 18 -231.834 54 -327.501s85.5 -176.667 148.5 -243s135.167 -116.833 216.5 -151.5
s167.666 -52 258.999 -52c78.667 0 152.834 9.66699 222.501 29s130.834 42.5 183.501 69.5s92.334 51.833 119.001 74.5l34 -65c-32 -34.667 -76.5 -71 -133.5 -109s-125.333 -70.167 -205 -96.5s-169.5 -39.5 -269.5 -39.5c-157.333 0 -296.333 34.5 -417 103.5
s-215.334 167.333 -284.001 295s-103 278.834 -103 453.501c0 116 22.5 226.5 67.5 331.5s107.167 198.667 186.5 281s171.333 147.166 276 194.499s217 71 337 71c136 0 255.333 -29.5 358 -88.5s182.667 -146.833 240 -263.5s86 -261.334 86 -434.001zM1024 731.003
c-17.333 34.667 -36.667 61.999 -58 81.999s-50.666 30 -87.999 30c-68.667 0 -123.334 -30.5 -164.001 -91.5s-61 -153.833 -61 -278.5c0 -76 10.167 -140.167 30.5 -192.5s45.5 -92.166 75.5 -119.499s59.667 -41 89 -41c26 0 50.5 9.33301 73.5 28s57.167 56 102.5 112
v471z" />
    <glyph glyph-name="A" unicode="A" horiz-adv-x="1242" 
d="M385 440l-106.002 -318.999c-6.66699 -20.667 2 -35.667 26 -45s63.333 -17 118 -23v-53h-423v53c45.333 8 81 16.333 107 25s42.333 23 49 43l364 1106c20.667 20 45.334 37.5 74.001 52.5s54.667 27.5 78 37.5l420 -1196c6.66699 -18.667 19 -33.334 37 -44.001
s48.667 -18.667 92 -24v-53h-447v53c51.333 3.33301 86.833 10 106.5 20s25.834 26 18.501 48l-110 319h-404zM753.998 540.001l-172 498l-164 -498h336z" />
    <glyph glyph-name="B" unicode="B" horiz-adv-x="1161" 
d="M1054 356c0 -113.333 -43.6719 -203.332 -131.005 -269.999s-202.666 -100 -345.999 -100c-40.667 0 -88 0.833008 -142 2.5s-108.5 3.5 -163.5 5.5s-104.5 4 -148.5 6l247 106c20.667 -11.333 48.334 -18.833 83.001 -22.5s67 -5.5 97 -5.5
c96 0 171.167 22.833 225.5 68.5s81.5 105.834 81.5 180.501c0 49.333 -10.667 98.5 -32 147.5s-55.666 89.833 -102.999 122.5s-109.666 49 -186.999 49c-44 0 -82.5 -2.33301 -115.5 -7s-64.167 -10 -93.5 -16l-10 107h93c96.667 0 169.834 12.167 219.501 36.5
s83.167 55 100.5 92s26 74.5 26 112.5c0 66.667 -23 121.334 -69 164.001s-131 64 -255 64c-35.333 0 -75.666 -1.83301 -120.999 -5.5s-91 -8.33398 -137 -14.001s-87.667 -11.834 -125 -18.501l-11 69c36.667 10 80.667 19.5 132 28.5s105 16.5 161 22.5s109 9 159 9
c140 0 250.667 -24 332 -72s122 -114 122 -198c0 -71.333 -18 -133 -54 -185s-85.667 -89.333 -149 -112c60 -10.667 113.667 -33.334 161 -68.001s84.666 -77.667 111.999 -129s41 -108 41 -170zM47.9951 0.000976562l-0.000976562 53.001
c44.667 9.33301 79.5 19.666 104.5 30.999s37.5 21.333 37.5 30v1096l190 21v-1119c0 -8 10.833 -18 32.5 -30s56.834 -22.333 105.501 -31v-51h-470z" />
    <glyph glyph-name="C" unicode="C" horiz-adv-x="1113" 
d="M1036 211c-85.333 -90 -165.5 -152.665 -240.5 -187.998s-148.167 -53 -219.5 -53c-63.333 0 -125.5 13.833 -186.5 41.5s-115.833 68 -164.5 121s-87.5 117.667 -116.5 194s-43.5 162.833 -43.5 259.5c0 142 27.833 265.667 83.5 371s130.167 187.166 223.5 245.499
s196.333 87.5 309 87.5c71.333 0 136.5 -9.83301 195.5 -29.5s105.833 -43.167 140.5 -70.5c4.66699 -4 1 -16.5 -11 -37.5s-26.5 -42.833 -43.5 -65.5s-30.5 -39.334 -40.5 -50.001l-45 9c-34 40 -74 71.167 -120 93.5s-97.667 33.5 -155 33.5
c-34 0 -71.167 -9.33301 -111.5 -28s-78.5 -49.167 -114.5 -91.5s-65.5 -98.666 -88.5 -168.999s-34.5 -157.5 -34.5 -261.5c0 -116.667 20.667 -213.334 62 -290.001s93 -133.834 155 -171.501s124 -56.5 186 -56.5c36 0 83.167 11.333 141.5 34
s123.833 64.334 196.5 125.001c6.66699 -4 14.667 -12.5 24 -25.5s15.333 -22.167 18 -27.5z" />
    <glyph glyph-name="D" unicode="D" horiz-adv-x="1244" 
d="M48 0l-0.000976562 53.001c44.667 9.33301 79.5 19.666 104.5 30.999s37.5 21.333 37.5 30v1065l-142 -21l-11 72c40.667 11.333 89.834 21.5 147.501 30.5s117.5 16.167 179.5 21.5s120 8 174 8c192 0 343 -54 453 -162s165 -258.667 165 -452
c0 -124.667 -18.167 -230.167 -54.5 -316.5s-83.333 -156 -141 -209s-120.167 -91.333 -187.5 -115s-132 -35.5 -194 -35.5h-66h-139.5h-129h-162.5h-34zM551.999 92.001c43.333 0 88.332 10.832 134.999 32.499s90.167 54.834 130.5 99.501s73 101.167 98 169.5
s37.5 149.5 37.5 243.5c0 177.333 -41.5 315.333 -124.5 414s-202.167 148 -357.5 148c-29.333 0 -59.666 -1 -90.999 -3v-1037c0 -29.333 18.167 -47.833 54.5 -55.5s75.5 -11.5 117.5 -11.5z" />
    <glyph glyph-name="E" unicode="E" horiz-adv-x="1036" 
d="M914 1233c-1.33301 -22.667 -4.16504 -49.834 -8.49805 -81.501s-9.5 -62.167 -15.5 -91.5s-11.667 -52.666 -17 -69.999h-55c-2.66699 61.333 -10.834 105 -24.501 131s-32.834 39 -57.501 39h-408l29 100h522zM811.001 705
c-10.667 -18.667 -24.999 -40.167 -42.999 -64.5s-34.333 -41.5 -49 -51.5c-20.667 19.333 -44.834 33.333 -72.501 42s-69.5 13 -125.5 13h-207l22 91h447zM979.002 264c-4.66699 -57.333 -11.335 -110.832 -20.002 -160.499s-15.667 -84.167 -21 -103.5h-890v53
c44.667 9.33301 79.5 19.666 104.5 30.999s37.5 21.333 37.5 30v1031c0 8 -11.667 18 -35 30s-59 22.667 -107 32v53h477v-53c-44.667 -4.66699 -80 -10.167 -106 -16.5s-39 -14.166 -39 -23.499v-1003c0 -12.667 4.83301 -23.834 14.5 -33.501s29 -17.167 58 -22.5
s72.833 -8 131.5 -8h119c41.333 0 74.833 4.5 100.5 13.5s47.834 26.833 66.501 53.5s37.334 66 56.001 118z" />
    <glyph glyph-name="F" unicode="F" horiz-adv-x="999" 
d="M922 1233c-0.666992 -22.667 -3.16699 -49.834 -7.5 -81.501s-9.33301 -62.167 -15 -91.5s-11.167 -52.666 -16.5 -69.999h-57c-2 61.333 -9.83301 105 -23.5 131s-33.167 39 -58.5 39h-416l29 100h532zM783 705c-12.667 -20 -28.002 -41.833 -46.002 -65.5
s-34 -40.5 -48 -50.5c-19.333 19.333 -43.166 33.333 -71.499 42s-70.166 13 -125.499 13h-239l55 91h444zM47.998 0v53c44.667 9.33301 79.5 19.666 104.5 30.999s37.5 21.333 37.5 30v1031c0 8 -11.667 18 -35 30s-59 22.667 -107 32v53h477v-53
c-36 -4.66699 -69.167 -10.167 -99.5 -16.5s-45.5 -14.166 -45.5 -23.499v-1053c0 -8 12.333 -17 37 -27s70 -21.333 136 -34v-53h-505z" />
    <glyph glyph-name="G" unicode="G" horiz-adv-x="1207" 
d="M1160 562c-38 -8.66699 -64.5 -20.6699 -79.5 -36.0029s-22.5 -30.666 -22.5 -45.999v-321l-27.5 -11.5l-63 -25.5c-23.667 -9.33301 -44.5 -16.833 -62.5 -22.5s-27 -6.16699 -27 -1.5v382c0 14.667 -12.167 28.834 -36.5 42.501s-75.833 26.834 -154.5 39.501v53h473
v-53zM1060 1188c6 -4.66699 2.66992 -16.8311 -9.99707 -36.498s-28.167 -40.334 -46.5 -62.001s-33.166 -37.834 -44.499 -48.501l-43 9c-44 49.333 -90.5 82.5 -139.5 99.5s-105.167 25.5 -168.5 25.5c-24.667 0 -56.834 -8.66699 -96.501 -26
s-79.334 -46.333 -119.001 -87s-72.834 -95.667 -99.501 -165s-40 -156 -40 -260c0 -122 19.667 -222.5 59 -301.5s89.833 -137.5 151.5 -175.5s125.5 -57 191.5 -57c68 0 126.5 9.66699 175.5 29s90.833 45.333 125.5 78l32 -14.5l44.5 -21
c14.333 -7 22.833 -12.167 25.5 -15.5c-66 -54 -124.167 -94.5 -174.5 -121.5s-96.166 -45 -137.499 -54s-82.333 -13.5 -123 -13.5c-68.667 0 -136.167 12.5 -202.5 37.5s-126.333 62.833 -180 113.5s-96.334 114.5 -128.001 191.5s-47.5 166.833 -47.5 269.5
c0 148 30.333 274.833 91 380.5s142.167 186.667 244.5 243s216.166 84.5 341.499 84.5c29.333 0 63.333 -4 102 -12s77 -19.5 115 -34.5s71.667 -33.5 101 -55.5z" />
    <glyph glyph-name="H" unicode="H" horiz-adv-x="1359" 
d="M818 0v52.999c44.667 9.33301 79.5 19.666 104.5 30.999s37.5 21.333 37.5 30v1031c0 8 -11.667 18 -35 30s-59 22.667 -107 32v53h475v-53c-45.333 -9.33301 -80.5 -19.666 -105.5 -30.999s-37.5 -21.666 -37.5 -30.999v-1031c0 -8 11.833 -17.833 35.5 -29.5
s59.5 -22.167 107.5 -31.5v-53h-475zM352 609.999v100h628v-100h-628zM48 -0.000976562v52.999c44.667 9.33301 79.5 19.666 104.5 30.999s37.5 21.333 37.5 30v1031c0 8 -11.667 18 -35 30s-59 22.667 -107 32v53h475v-53c-45.333 -9.33301 -80.5 -19.666 -105.5 -30.999
s-37.5 -21.666 -37.5 -30.999v-1031c0 -8 11.667 -17.833 35 -29.5s59.333 -22.167 108 -31.5v-53h-475z" />
    <glyph glyph-name="I" unicode="I" horiz-adv-x="630" 
d="M68 0v52.999c44.667 9.33301 79.5 19.666 104.5 30.999s37.5 21.333 37.5 30v1031c0 8 -11.667 18 -35 30s-59 22.667 -107 32v53h475v-53c-45.333 -9.33301 -80.5 -19.666 -105.5 -30.999s-37.5 -21.666 -37.5 -30.999v-1031c0 -8 11.833 -17.833 35.5 -29.5
s59.5 -22.167 107.5 -31.5v-53h-475z" />
    <glyph glyph-name="J" unicode="J" horiz-adv-x="645" 
d="M578 1207c-45.333 -9.33301 -80.5 -19.6699 -105.5 -31.0029s-37.5 -21.666 -37.5 -30.999v-947c0 -103.333 -10.333 -185.833 -31 -247.5s-47.167 -111 -79.5 -148s-65.833 -69.5 -100.5 -97.5c-36 -29.333 -78.5 -52.833 -127.5 -70.5s-89.5 -26.5 -121.5 -26.5
c-31.333 0 -61.5 5.16699 -90.5 15.5s-52.833 22.333 -71.5 36s-28 24.834 -28 33.501c0 8 8.5 20.667 25.5 38s36.167 34.166 57.5 50.499s38.333 26.833 51 31.5c36.667 -27.333 67.334 -45.333 92.001 -54s50 -13 76 -13c23.333 0 47.166 9.83301 71.499 29.5
s44.833 56.834 61.5 111.501s25 134.334 25 239.001v1019c0 8 -12 17.5 -36 28.5s-76 22.167 -156 33.5v53h525v-53z" />
    <glyph glyph-name="K" unicode="K" horiz-adv-x="1212" 
d="M1140 1207c-42.667 -5.33301 -75.667 -11.332 -99 -17.999s-45.333 -21.334 -66 -44.001l-463 -502h-139l404 475c30 36 39.5 58.667 28.5 68s-42.833 16.333 -95.5 21v53h430v-53zM1204 42.001c-38.667 -12.667 -80 -25.167 -124 -37.5s-82 -18.5 -114 -18.5
c-20 0 -37.333 3 -52 9s-28.667 17.333 -42 34l-499 614l124 78l526 -581c22.667 -26 48.667 -41 78 -45s61.333 -4 96 0zM48 0.000976562v52.999c44.667 9.33301 79.5 19.666 104.5 30.999s37.5 21.333 37.5 30v1031c0 8 -11.667 18 -35 30s-59 22.667 -107 32v53h475v-53
c-45.333 -9.33301 -80.5 -19.666 -105.5 -30.999s-37.5 -21.666 -37.5 -30.999v-1031c0 -8 11.667 -17.833 35 -29.5s59.333 -22.167 108 -31.5v-53h-475z" />
    <glyph glyph-name="L" unicode="L" horiz-adv-x="998" 
d="M969 264c-4.66699 -57.333 -11.3359 -110.834 -20.0029 -160.501s-15.667 -84.167 -21 -103.5h-880v53c44.667 9.33301 79.5 19.666 104.5 30.999s37.5 21.333 37.5 30v1031c0 8 -11.667 18 -35 30s-59 22.667 -107 32v53h475v-53
c-45.333 -9.33301 -80.5 -19.666 -105.5 -30.999s-37.5 -21.666 -37.5 -30.999v-971c0 -23.333 12.833 -41.5 38.5 -54.5s74.834 -19.5 147.501 -19.5h133c41.333 0 74.333 4.5 99 13.5s45.834 26.833 63.501 53.5s35.834 66 54.501 118z" />
    <glyph glyph-name="M" unicode="M" horiz-adv-x="1679" 
d="M1123 0v53.001c44.667 9.33301 81.167 19.666 109.5 30.999s42.5 21.333 42.5 30l-10 1033l180 57l10 -1090c0 -8 12.167 -17.833 36.5 -29.5s60.5 -22.167 108.5 -31.5v-53h-477zM1578 1207c-30 0 -65.835 -7.66699 -107.502 -23s-80.167 -34.833 -115.5 -58.5
s-58.666 -48.5 -69.999 -74.5l-452 -1051h-4c-15.333 84 -24.166 143.333 -26.499 178s1.16699 62.667 10.5 84l395 914c16.667 40 28.667 64 36 72s17.333 12 30 12h304v-53zM842.998 264.001c9.33301 -20.667 13.4971 -48.833 12.4971 -84.5s-9.83301 -95.5 -26.5 -179.5
h-60l-457 1054c-17.333 40 -40.666 71.167 -69.999 93.5s-59.666 37.833 -90.999 46.5s-59 13 -83 13v53h306c12.667 0 22.834 -5 30.501 -15s19.5 -33 35.5 -69zM57.9951 0.00195312v53c94.667 18.667 142 39 142 61l10 1072l126 25l-11 -1097
c0 -8 11.833 -17.833 35.5 -29.5s59.5 -22.167 107.5 -31.5v-53h-410z" />
    <glyph glyph-name="N" unicode="N" horiz-adv-x="1339" 
d="M1293 1207c-48 -6.66699 -83.833 -16.333 -107.5 -29s-35.5 -23.667 -35.5 -33v-1113l-130 39v1074c0 8 -10.333 18.5 -31 31.5s-57.667 23.167 -111 30.5v53h415v-53zM1150 -29.999c-43.333 4.66699 -77.834 13.333 -103.501 26s-44.167 27 -55.5 43l-753 1044
c-27.333 38 -57.166 66.833 -89.499 86.5s-65.833 32.167 -100.5 37.5v53h234c19.333 0 34 -4.33301 44 -13s27.333 -30.334 52 -65.001l649 -896c9.33301 -13.333 23.833 -32.666 43.5 -57.999l54.5 -69l25 -31v-158zM47.999 0v53c48.667 6 84.5 15.5 107.5 28.5
s34.5 23.833 34.5 32.5v1072l130 35v-1107c0 -8 10.833 -18.333 32.5 -31s58.5 -22.667 110.5 -30v-53h-415z" />
    <glyph glyph-name="O" unicode="O" horiz-adv-x="1244" 
d="M584 -30c-81.333 0 -154 17.499 -218 52.499s-118.333 82.5 -163 142.5s-78.5 128.5 -101.5 205.5s-34.5 157.5 -34.5 241.5c0 90.667 14.5 176.834 43.5 258.501s69.5 154 121.5 217s113 112.5 183 148.5s145.667 54 227 54c84.667 0 159.167 -18 223.5 -54
s118.333 -84.5 162 -145.5s76.667 -129.833 99 -206.5s33.5 -155.667 33.5 -237c0 -90.667 -15.333 -176.667 -46 -258s-72.667 -153.5 -126 -216.5s-114.5 -112.5 -183.5 -148.5s-142.5 -54 -220.5 -54zM618 94.999c103.333 0 188.166 44.834 254.499 134.501
s99.5 222.834 99.5 399.501c0 69.333 -8.66699 136.166 -26 200.499s-42.166 122.166 -74.499 173.499s-71 92 -116 122s-94.833 45 -149.5 45c-111.333 0 -197.833 -47.333 -259.5 -142s-92.5 -223.667 -92.5 -387c0 -99.333 16.667 -190.5 50 -273.5
s77.5 -149.167 132.5 -198.5s115.5 -74 181.5 -74z" />
    <glyph glyph-name="P" unicode="P" horiz-adv-x="1101" 
d="M1017 936c0 -69.333 -13.6621 -129.499 -40.9951 -180.499s-62.333 -93.167 -105 -126.5s-87.834 -58.166 -135.501 -74.499s-91.834 -24.5 -132.501 -24.5c-64 0 -118.333 10 -163 30l-26 85c27.333 -12.667 53.166 -20.834 77.499 -24.501s48.166 -5.5 71.499 -5.5
c40 0 80.5 10.333 121.5 31s75.5 51.667 103.5 93s42 93.333 42 156c0 70 -15.833 127.333 -47.5 172s-74.334 77.834 -128.001 99.501s-114.167 32.5 -181.5 32.5c-70 0 -142.333 -4 -217 -12s-144 -17.667 -208 -29l-11 72c67.333 17.333 145.5 31.666 234.5 42.999
s175.167 17 258.5 17c147.333 0 265.333 -30.333 354 -91s133 -148.334 133 -263.001zM48.0049 0.000976562v53.001c44.667 9.33301 79.5 19.666 104.5 30.999s37.5 21.333 37.5 30v1089h190v-1089c0 -8 11.333 -17.333 34 -28s69 -21.667 139 -33v-53h-505z" />
    <glyph glyph-name="Q" unicode="Q" horiz-adv-x="1244" 
d="M1158 647c0 -90.667 -15.1699 -176.667 -45.5029 -258s-72.166 -153.5 -125.499 -216.5s-114.666 -112.5 -183.999 -148.5s-142.666 -54 -219.999 -54c-76.667 0 -146.667 17 -210 51s-118 80.667 -164 140s-81.5 127.666 -106.5 204.999s-37.5 159.333 -37.5 246
c0 90.667 14.5 176.834 43.5 258.501s69.667 154 122 217s113.333 112.5 183 148.5s145.5 54 227.5 54c84 0 158.167 -18 222.5 -54s118.333 -84.5 162 -145.5s76.667 -129.833 99 -206.5s33.5 -155.667 33.5 -237zM1327 -119
c-31.333 -58 -64.8301 -104.669 -100.497 -140.002s-63.834 -53 -84.501 -53c-53.333 0 -106.5 15 -159.5 45s-105.833 65.667 -158.5 107s-105.334 79.5 -158.001 114.5s-105.334 56.833 -158.001 65.5l24.5 5.5c16.333 3.66699 36 7.83398 59 12.501
s44.833 8.16699 65.5 10.5s35.667 2.5 45 0.5c40.667 -10 80.667 -25.833 120 -47.5s77.833 -44.167 115.5 -67.5s74.167 -43.166 109.5 -59.499s69 -24.5 101 -24.5c16.667 0 35 5.16699 55 15.5s50 30.5 90 60.5zM971 628.998c0 69.333 -8.83301 136.167 -26.5 200.5
s-42.667 122.166 -75 173.499s-71 92 -116 122s-94.833 45 -149.5 45c-110.667 0 -196.834 -47.333 -258.501 -142s-92.5 -223.667 -92.5 -387c0 -99.333 16.5 -190.5 49.5 -273.5s77.167 -149.167 132.5 -198.5s116 -74 182 -74c102.667 0 187.334 44.833 254.001 134.5
s100 222.834 100 399.501z" />
    <glyph glyph-name="R" unicode="R" horiz-adv-x="1179" 
d="M962 987c0 -85.333 -21.332 -157.164 -63.999 -215.497s-100 -102.333 -172 -132s-152 -44.5 -240 -44.5c-18.667 0 -37.834 1.16699 -57.501 3.5s-39.834 5.83301 -60.501 10.5l-6 90c23.333 -4 42.833 -6.66699 58.5 -8s31.834 -2 48.501 -2c100 0 176 23.167 228 69.5
s78 112.166 78 197.499c0 69.333 -24.833 127.166 -74.5 173.499s-133.167 69.5 -250.5 69.5c-58.667 0 -123.334 -4.16699 -194.001 -12.5s-140 -17.833 -208 -28.5l-11 72c65.333 15.333 134.333 29.166 207 41.499s154.334 18.5 245.001 18.5c163.333 0 283 -29 359 -87
s114 -130 114 -216zM1174 42.002c-44 -14.667 -89.166 -27.667 -135.499 -39s-82.5 -17 -108.5 -17c-18.667 0 -37.334 5.5 -56.001 16.5s-32.667 23.833 -42 38.5l-305 571l119 66l342 -524c20.667 -28.667 43.5 -46.667 68.5 -54s60.167 -9 105.5 -5zM48.002 0.00195312
v53.001c44.667 9.33301 79.5 19.666 104.5 30.999s37.5 21.333 37.5 30v1100h190v-1100c0 -8 11.667 -17.833 35 -29.5s59.333 -22.167 108 -31.5v-53h-475z" />
    <glyph glyph-name="S" unicode="S" horiz-adv-x="1000" 
d="M770 1045l-46.0039 5.99609c-34.667 50 -73.667 84.667 -117 104s-84 29 -122 29c-72 0 -123.833 -18.333 -155.5 -55s-47.5 -74 -47.5 -112c0 -42 15.167 -78.167 45.5 -108.5s69.5 -57.833 117.5 -82.5l152.5 -75.5c53.667 -25.667 104.334 -54.834 152.001 -87.501
s86.834 -72 117.501 -118s46 -102 46 -168c0 -44.667 -9.5 -90.667 -28.5 -138s-47.5 -91.333 -85.5 -132s-86 -73.667 -144 -99s-126.333 -38 -205 -38c-45.333 0 -98.833 8.83301 -160.5 26.5s-116.167 41.5 -163.5 71.5c-4.66699 2.66699 -8.16699 14.334 -10.5 35.001
s-3.5 46 -3.5 76s1.33301 59.833 4 89.5s7 54.834 13 75.501l51 -5c30 -78.667 74 -138.5 132 -179.5s121 -61.5 189 -61.5c40 0 78.833 9.5 116.5 28.5s68.834 45.333 93.501 79s37 71.5 37 113.5c0 54 -15.167 98.833 -45.5 134.5s-69.166 66.167 -116.499 91.5
s-97.666 49.833 -150.999 73.5s-103.833 49.834 -151.5 78.501s-86.5 64.334 -116.5 107.001s-45 96.334 -45 161.001c0 30.667 7.66699 64.667 23 102s39.666 73 72.999 107s76.5 61.833 129.5 83.5s117.5 32.5 193.5 32.5c64 0 125.5 -8.66699 184.5 -26
s100.833 -39.333 125.5 -66c6 -5.33301 4.33301 -18.5 -5 -39.5s-21.5 -42.667 -36.5 -65s-28.167 -38.5 -39.5 -48.5z" />
    <glyph glyph-name="T" unicode="T" horiz-adv-x="1148" 
d="M1106 1233c-1.33301 -34 -5.16602 -74.167 -11.499 -120.5s-13.5 -90.5 -21.5 -132.5h-55c-12.667 62 -23.834 107.5 -33.501 136.5s-28.5 43.5 -56.5 43.5h-367l29 100h483zM182 1160c-13.333 0 -25.5 -4.66602 -36.5 -13.999s-22.833 -27.333 -35.5 -54
s-29 -66 -49 -118l-53 21c2.66699 39.333 7.5 84.666 14.5 135.999s13.833 94.333 20.5 129h577l23 -100h-461zM305 0.000976562v53c61.333 12.667 103.5 25.5 126.5 38.5s34.5 24.167 34.5 33.5v1042c0 8 -11.333 14.333 -34 19l-106 21v53h473v-53
c-44.667 -9.33301 -79.667 -16 -105 -20s-38 -10.667 -38 -20v-1042c0 -8.66699 11.5 -19.667 34.5 -33s65.5 -26.333 127.5 -39v-53h-513z" />
    <glyph glyph-name="U" unicode="U" horiz-adv-x="1349" 
d="M1288 1207c-45.333 -9.33301 -80.501 -19.6699 -105.501 -31.0029s-37.5 -21.666 -37.5 -30.999v-621c0 -174.667 -43 -310.667 -129 -408s-201 -146 -345 -146c-91.333 0 -173.333 17 -246 51s-130 86 -172 156s-63 159 -63 267v701c0 8 -11.667 18 -35 30
s-59 22.667 -107 32v53h475v-53c-45.333 -9.33301 -80.5 -19.666 -105.5 -30.999s-37.5 -21.666 -37.5 -30.999v-646c0 -128 27.833 -227.333 83.5 -298s140.5 -106 254.5 -106c63.333 0 115.833 19 157.5 57s72.834 87 93.501 147s31 123 31 189v657c0 8 -11.667 18 -35 30
s-59 22.667 -107 32v53h430v-53z" />
    <glyph glyph-name="V" unicode="V" horiz-adv-x="1341" 
d="M1303 1207c-45.333 -8.66699 -81 -17.167 -107 -25.5s-42 -21.833 -48 -40.5l-381 -1074c-6.66699 -20 -20.334 -36.5 -41.001 -49.5s-42.667 -23.333 -66 -31s-42.666 -13.167 -57.999 -16.5l-445 1171c-12.667 33.333 -59 55.333 -139 66v53h460v-53
c-53.333 -4 -89.5 -10.833 -108.5 -20.5s-24.833 -24.167 -17.5 -43.5l344 -912l323 910c6.66699 19.333 -1 33.5 -23 42.5s-60 16.833 -114 23.5v53h421v-53z" />
    <glyph glyph-name="W" unicode="W" horiz-adv-x="1741" 
d="M1712 1207c-58.667 -12 -98.165 -22.667 -118.498 -32s-31.5 -19.333 -33.5 -30l-229 -1086c-4 -18.667 -14.833 -34.167 -32.5 -46.5s-36.834 -21.666 -57.501 -27.999s-37.667 -11.166 -51 -14.499l-331 952l-287 -863c-10 -28.667 -31.333 -49.167 -64 -61.5
s-62.667 -21.5 -90 -27.5l-260 1167c-3.33301 16.667 -15.333 30.334 -36 41.001s-54.667 20.334 -102 29.001v53h449v-53c-64.667 -6.66699 -103.834 -16.334 -117.501 -29.001s-18.834 -26.334 -15.501 -41.001l189 -842l314 965h70l347 -965l179 850
c2.66699 15.333 -11.166 27.666 -41.499 36.999s-67.833 17.666 -112.5 24.999v53h431v-53z" />
    <glyph glyph-name="X" unicode="X" horiz-adv-x="1270" 
d="M1193 1207c-48.667 -5.33301 -87 -13.501 -115 -24.501s-50.667 -30.833 -68 -59.5l-375 -599l-56 148l282 451c18 30 17.167 50.333 -2.5 61s-59.167 18.334 -118.5 23.001v53h453v-53zM763 -0.000976562l0.000976562 52.999c58.667 6 95.5 14.833 110.5 26.5
s13.167 30.834 -5.5 57.501l-673 986c-20.667 29.333 -40.834 49 -60.501 59s-51.5 18.333 -95.5 25v53h481v-53c-56.667 -5.33301 -93.667 -13.333 -111 -24s-16 -30.667 4 -60l673 -986c19.333 -28.667 40.333 -48.5 63 -59.5s53.667 -19.167 93 -24.5v-53h-479z
M360.001 136.998c-19.333 -29.333 -19.834 -49.667 -1.50098 -61s58.5 -19 120.5 -23v-53h-450v53c42.667 3.33301 79.334 11.333 110.001 24s54.667 32.667 72 60l385 615l43 -174z" />
    <glyph glyph-name="Y" unicode="Y" horiz-adv-x="1230" 
d="M1191 1207c-45.333 -8.66699 -79.834 -17.501 -103.501 -26.501s-40.167 -22.167 -49.5 -39.5l-358 -654h-142c-24 55.333 -52 114 -84 176s-65.5 123 -100.5 183l-101.5 167c-32.667 51.333 -61.334 94 -86.001 128c-12.667 14.667 -29 27.167 -49 37.5
s-57.667 15.5 -113 15.5l-4 53c39.333 5.33301 81.333 10.5 126 15.5s80.667 7.5 108 7.5c35.333 0 64 -13.667 86 -41c32.667 -43.333 68 -95.666 106 -156.999s75.833 -126 113.5 -194s71.834 -134 102.501 -198l257 461c10 17.333 6.83301 31 -9.5 41
s-50.166 18.333 -101.499 25v53h403v-53zM354.999 -0.000976562l-0.000976562 53c60.667 12.667 102.834 25.5 126.501 38.5s35.5 24.167 35.5 33.5v512h190v-512c0 -8.66699 11.5 -19.667 34.5 -33s65.833 -26.333 128.5 -39v-53h-515z" />
    <glyph glyph-name="Z" unicode="Z" horiz-adv-x="1086" 
d="M1009 313l-4.5 -101.5c-1.66699 -39 -3.16699 -77.5 -4.5 -115.5s-2.33301 -70 -3 -96h-909l-31 48l698 1102h-436c-22 0 -46.5 -17.5 -73.5 -52.5s-47.833 -87.167 -62.5 -156.5l-67 14l32 321c36 -8 66.833 -12.667 92.5 -14s58.167 -2 97.5 -2h633l28 -45l-693 -1105
h501c28 0 51.333 16.167 70 48.5s41 89.5 67 171.5z" />
    <glyph glyph-name="bracketleft" unicode="[" horiz-adv-x="650" 
d="M615 -241c-2.66699 -13.333 -7.33203 -29.5 -13.999 -48.5s-12.334 -34.167 -17.001 -45.5h-449v1935h443l35 -28c-2.66699 -16.667 -7.16699 -35 -13.5 -55s-11.5 -34 -15.5 -42h-279v-1685h273z" />
    <glyph glyph-name="backslash" unicode="\" horiz-adv-x="961" 
d="M873 -335c-16 5.33301 -38.168 13.333 -66.501 24s-48.5 20.667 -60.5 30l-696 1857l40 24c19.333 -4.66699 40.333 -11.5 63 -20.5s43.334 -19.167 62.001 -30.5l695 -1856z" />
    <glyph glyph-name="bracketright" unicode="]" horiz-adv-x="630" 
d="M73 -335l-36.001 31.002c2 15.333 6 32.666 12 51.999s11.333 33.333 16 42h280v1685h-272l-38 29c2 14 6.33301 30.667 13 50s12.334 34.666 17.001 45.999h450v-1935h-442z" />
    <glyph glyph-name="asciicircum" unicode="^" horiz-adv-x="1008" 
d="M907 635c-28.667 -27.333 -64.0029 -50.667 -106.003 -70l-37 27l-283 723l-250 -680c-14 -13.333 -32.167 -26.666 -54.5 -39.999s-40.166 -23.333 -53.499 -30l-23 27l322 870c16.667 15.333 38.334 31.666 65.001 48.999s49.334 30.333 68.001 39z" />
    <glyph glyph-name="underscore" unicode="_" horiz-adv-x="805" 
d="M838 -158c-3.33301 -14 -8.66699 -30.833 -16 -50.5s-13.666 -35.5 -18.999 -47.5h-805l-27 29c3.33301 13.333 8.66602 29.333 15.999 48s14 34.667 20 48h805z" />
    <glyph glyph-name="grave" unicode="`" horiz-adv-x="653" 
d="M443 1081c-6.66699 -6 -16.5 -12.668 -29.5 -20.001s-25.167 -12.666 -36.5 -15.999l-362 377l24 46c8.66699 2 24.667 5 48 9l71 12c24 4 41.333 6.66699 52 8z" />
    <glyph glyph-name="a" unicode="a" horiz-adv-x="968" 
d="M956 92c-56.667 -38.667 -107.166 -68.6689 -151.499 -90.002s-76.833 -32 -97.5 -32c-24.667 0 -44.834 17.5 -60.501 52.5s-23.5 82.167 -23.5 141.5v533c0 44 -10.833 80.833 -32.5 110.5s-62.5 43.834 -122.5 42.501c-39.333 -0.666992 -75.333 -13 -108 -37
s-47 -56 -43 -96c0.666992 -6.66699 -7.5 -14 -24.5 -22s-37.667 -15.667 -62 -23s-47.333 -13 -69 -17s-36.5 -5 -44.5 -3l-16 44c20.667 47.333 55.5 91 104.5 131s105 72.167 168 96.5s125.833 36.5 188.5 36.5c78.667 0 138.5 -20.5 179.5 -61.5s61.5 -95.5 61.5 -163.5
v-537c0 -52 13.333 -78 40 -78c9.33301 0 21 1.83301 35 5.5s34.333 10.834 61 21.501zM633.001 482.998c-70 -11.333 -124.667 -22.334 -164 -33.001s-69.333 -22 -90 -34s-38 -25 -52 -39c-17.333 -18 -31.333 -38 -42 -60s-16 -48 -16 -78
c0 -33.333 6.16699 -59 18.5 -77s26.666 -30.333 42.999 -37s30.166 -10 41.499 -10c36 0 75.333 9.83301 118 29.5s90.334 52.834 143.001 99.501l8 -87c-62.667 -67.333 -125 -115.333 -187 -144s-115.667 -43 -161 -43c-34 0 -67.667 7.66699 -101 23
s-61.166 39.333 -83.499 72s-33.5 74.667 -33.5 126c0 49.333 8.66699 90.5 26 123.5s38.333 61.833 63 86.5c21.333 22 48 42.5 80 61.5s78.167 37 138.5 54s143.833 33.5 250.5 49.5v-83z" />
    <glyph glyph-name="b" unicode="b" horiz-adv-x="1060" 
d="M975 497c0 -58 -12.5 -117.833 -37.5 -179.5s-59.833 -118.667 -104.5 -171s-97.167 -94.833 -157.5 -127.5s-125.833 -49 -196.5 -49c-29.333 0 -76 11.333 -140 34s-132 53.334 -204 92.001v1190c0 39.333 -3 67.666 -9 84.999s-18.167 28.833 -36.5 34.5
s-45.5 10.5 -81.5 14.5v50c49.333 10 95.833 20.667 139.5 32s86.5 27.333 128.5 48c14 -12 27 -24 39 -36v-762c66.667 72.667 131.334 125.5 194.001 158.5s113 49.5 151 49.5c93.333 0 169.166 -41.333 227.499 -124s87.5 -195.667 87.5 -339zM811 411
c0 132.667 -24.002 232.834 -72.002 300.501s-103.667 101.5 -167 101.5c-23.333 0 -58.666 -12.833 -105.999 -38.5s-97.666 -72.834 -150.999 -141.501v-425c53.333 -36 104.833 -60.833 154.5 -74.5s85.5 -20.5 107.5 -20.5c51.333 0 94.5 14 129.5 42
s61.167 64.833 78.5 110.5s26 94.167 26 145.5z" />
    <glyph glyph-name="c" unicode="c" horiz-adv-x="908" 
d="M858 190c-58 -67.333 -108.333 -116.499 -151 -147.499s-82.334 -50.833 -119.001 -59.5s-76 -13 -118 -13c-67.333 0 -131.166 18.833 -191.499 56.5s-109.333 92 -147 163s-56.5 155.833 -56.5 254.5c0 96 22.667 183 68 261s107.333 140 186 186
s167.334 69 266.001 69c44 0 91 -7.33301 141 -22s86.333 -33.667 109 -57c2 -10.667 -0.666992 -29.5 -8 -56.5s-16.5 -54 -27.5 -81s-20.5 -46.5 -28.5 -58.5l-47 10c-14.667 37.333 -39.834 71.666 -75.501 102.999s-85.167 47 -148.5 47c-44 0 -85.5 -13.333 -124.5 -40
s-70.5 -67.334 -94.5 -122.001s-36 -124 -36 -208c0 -74 13.5 -138.167 40.5 -192.5s62.833 -96.166 107.5 -125.499s92.667 -44 144 -44c25.333 0 49 2.16699 71 6.5s48 15.333 78 33s69.333 46.5 118 86.5z" />
    <glyph glyph-name="d" unicode="d" horiz-adv-x="1093" 
d="M1081 94c-124 -82.667 -206.334 -123.999 -247.001 -123.999c-28.667 0 -50.667 24.333 -66 73s-23 128.334 -23 239.001v982c0 49.333 -2.33301 85.5 -7 108.5s-16.834 38.5 -36.501 46.5s-52.5 13.667 -98.5 17v49c60.667 7.33301 115.334 17.166 164.001 29.499
s90.334 24.166 125.001 35.499l33 -32v-1249c0 -46.667 2 -80.167 6 -100.5s9.66699 -34.5 17 -42.5c6 -6.66699 17 -8.66699 33 -6s43.333 11.667 82 27zM818.999 245.001c-48 -58.667 -92.168 -108.503 -132.501 -149.503s-81.333 -72.167 -123 -93.5
s-89.167 -32 -142.5 -32c-52.667 0 -105.667 18.833 -159 56.5s-97.833 92 -133.5 163s-53.5 155.833 -53.5 254.5c0 60.667 11.5 121.334 34.5 182.001s55.667 116.334 98 167.001s92.5 91.167 150.5 121.5s122.333 45.5 193 45.5c40 0 80.333 -6.83301 121 -20.5
s87 -45.834 139 -96.501c0 -40 -4.5 -69 -13.5 -87s-24.167 -33.333 -45.5 -46c-22 42 -53 74.667 -93 98s-84.667 35 -134 35c-78.667 0 -143.334 -29.667 -194.001 -89s-76 -149.666 -76 -270.999c0 -74 13 -138.167 39 -192.5s58 -96.333 96 -126s75.333 -44.5 112 -44.5
c48.667 0 95.334 18.333 140.001 55s90.667 77.334 138 122.001c8 -4 15.833 -12.333 23.5 -25s12.834 -21.667 15.501 -27z" />
    <glyph glyph-name="e" unicode="e" horiz-adv-x="961" 
d="M886 555c-12 -14 -29.6699 -27.501 -53.0029 -40.501s-45.666 -23.5 -66.999 -31.5h-584l2 97h475c15.333 0 25.5 2.5 30.5 7.5s7.5 14.5 7.5 28.5c0 24.667 -5.16699 55.5 -15.5 92.5s-29.5 69.833 -57.5 98.5s-69 43 -123 43c-77.333 0 -137.166 -33.333 -179.499 -100
s-63.5 -151.667 -63.5 -255c0 -69.333 11 -133 33 -191s54 -104.333 96 -139s92.667 -52 152 -52c28 0 55.167 2.66699 81.5 8s56.5 17.333 90.5 36s76.333 47.667 127 87c8.66699 -4.66699 17.167 -12.667 25.5 -24s13.833 -19.666 16.5 -24.999
c-60 -64 -111.667 -112.167 -155 -144.5s-84.666 -53.833 -123.999 -64.5s-83 -16 -131 -16c-70.667 0 -136 19.333 -196 58s-108.167 93 -144.5 163s-54.5 152 -54.5 246c0 90 18.833 173.667 56.5 251s90.834 140 159.501 188c31.333 22 69.166 41.5 113.499 58.5
s86.833 25.5 127.5 25.5c65.333 0 120.5 -12.167 165.5 -36.5s81.5 -56.5 109.5 -96.5s48.167 -83.833 60.5 -131.5s18.5 -94.5 18.5 -140.5z" />
    <glyph glyph-name="f" unicode="f" horiz-adv-x="657" 
d="M842 1454c0 -10 -9.00098 -24.167 -27.001 -42.5s-38 -36 -60 -53s-39.667 -28.833 -53 -35.5c-31.333 32 -62.833 55.333 -94.5 70s-56.834 22 -75.501 22c-22.667 0 -46.167 -10.833 -70.5 -32.5s-44.833 -61.334 -61.5 -119.001s-25 -140.167 -25 -247.5v-86h255
l32 -31c-12.667 -20 -29.167 -41.333 -49.5 -64s-36.5 -37.667 -48.5 -45c-16 8 -38.167 15.833 -66.5 23.5s-69.166 11.5 -122.499 11.5v-713c0 -8 15 -16.167 45 -24.5s84 -19.833 162 -34.5v-53h-524v53c45.333 8 79.5 17.833 102.5 29.5s34.5 21.5 34.5 29.5v713h-129
l-23 31l78 74h74v31c0 94.667 8.33301 171.834 25 231.501s39.334 108.667 68.001 147s60.667 72.833 96 103.5c40.667 35.333 85.167 62 133.5 80s87.833 27 118.5 27c31.333 0 62.833 -6.33301 94.5 -19s58.167 -26.667 79.5 -42s32 -27 32 -35z" />
    <glyph glyph-name="g" unicode="g" horiz-adv-x="1019" 
d="M993 -115c0 -52 -15.167 -101.167 -45.5 -147.5s-70.5 -87 -120.5 -122s-105.333 -62.5 -166 -82.5s-121 -30 -181 -30c-48.667 0 -99.5 5 -152.5 15s-102.333 25.833 -148 47.5s-82.834 49.667 -111.501 84s-43 75.833 -43 124.5c0 24 7.66699 49.667 23 77
s45.166 58 89.499 92s109.833 73.333 196.5 118l22 -2c14.667 -1.33301 29.667 -4.16602 45 -8.49902s24 -11.166 26 -20.499c-68.667 -37.333 -118.667 -69.5 -150 -96.5s-51.166 -50.167 -59.499 -69.5s-12.5 -36.333 -12.5 -51c0 -35.333 15.167 -67.5 45.5 -96.5
s71 -52.333 122 -70s106.833 -26.5 167.5 -26.5c86 0 153.333 21 202 63s73 93.667 73 155c0 22 -7.66699 42.333 -23 61s-43.333 35.167 -84 49.5s-99.667 26.166 -177 35.499c-131.333 15.333 -224 37.666 -278 66.999s-81 60 -81 92c0 13.333 12.333 35.833 37 67.5
s75.667 72.5 153 122.5l155 17c-59.333 -40 -98.833 -73.5 -118.5 -100.5s-29.5 -43.167 -29.5 -48.5c0 -10 6 -19.5 18 -28.5s35.5 -17.833 70.5 -26.5s87.5 -17.334 157.5 -26.001c99.333 -11.333 176.333 -28.666 231 -51.999s92.834 -50.833 114.501 -82.5
s32.5 -65.167 32.5 -100.5zM1012 928l-23.499 -53.501c-8.33301 -18.333 -19.5 -35.5 -33.5 -51.5c-36 -6 -73 -10.667 -111 -14s-85.333 -4 -142 -2l-44 82c81.333 4.66699 149.166 14.834 203.499 30.501s96.833 29.167 127.5 40.5zM853.001 640.999
c0 -68 -19.4961 -127.998 -58.4961 -179.998s-89.167 -92.667 -150.5 -122s-126 -44 -194 -44c-67.333 0 -127.833 12.667 -181.5 38s-96 61 -127 107s-46.5 100 -46.5 162c0 65.333 19.167 125.166 57.5 179.499s88.166 97.666 149.499 129.999s126.666 48.5 195.999 48.5
c67.333 0 127.666 -14.5 180.999 -43.5s95.666 -67.667 126.999 -116s47 -101.5 47 -159.5zM683.005 600.001c0 70 -21.332 129.999 -63.999 179.999s-105.334 75 -188.001 75c-22 0 -45.833 -7.33301 -71.5 -22s-47.834 -36.5 -66.501 -65.5s-28 -65.167 -28 -108.5
c0 -70 20.333 -129.833 61 -179.5s104.334 -74.5 191.001 -74.5c38.667 0 76 16.333 112 49s54 81.334 54 146.001z" />
    <glyph glyph-name="h" unicode="h" horiz-adv-x="1150" 
d="M668 0v53.002c91.333 24 137 44.333 137 61v499c0 81.333 -9.83301 135 -29.5 161s-50.834 39 -93.501 39c-43.333 0 -92.166 -19.833 -146.499 -59.5s-109.5 -97.834 -165.5 -174.501v-465c0 -10 12.167 -20.333 36.5 -31s58.166 -20.667 101.499 -30v-53h-455v53
c44 11.333 77.833 21.666 101.5 30.999s35.5 19.333 35.5 30v1174c0 37.333 -2.5 64.333 -7.5 81s-17.167 28.167 -36.5 34.5s-50.333 11.833 -93 16.5v50c62.667 10.667 114.167 21.834 154.5 33.501s81.5 27.167 123.5 46.5l39 -36v-797
c64 77.333 132.667 137.166 206 179.499s136 63.5 188 63.5c57.333 0 108.5 -18.333 153.5 -55s67.5 -95.334 67.5 -176.001v-615c0 -8.66699 9.83301 -17.667 29.5 -27s55.834 -20.666 108.501 -33.999v-53h-455z" />
    <glyph glyph-name="i" unicode="i" horiz-adv-x="575" 
d="M418 1261c0 -40 -12.834 -73.668 -38.501 -101.001s-57.5 -41 -95.5 -41c-67.333 0 -101 33.667 -101 101c0 40.667 12.833 74.334 38.5 101.001s56.834 40 93.501 40c31.333 0 56.333 -8.33301 75 -25s28 -41.667 28 -75zM67.999 -0.000976562l-0.00195312 53
c91.333 18.667 137 39 137 61v549c0 45.333 -2 79.333 -6 102s-15.5 38.5 -34.5 47.5s-51.167 15.833 -96.5 20.5v50c46.667 8 94.334 18.667 143.001 32s92 28.333 130 45h44v-846c0 -8 10.833 -17.833 32.5 -29.5s56.834 -22.167 105.501 -31.5v-53h-455z" />
    <glyph glyph-name="j" unicode="j" horiz-adv-x="550" 
d="M414 1261c0 -40 -12.668 -73.668 -38.001 -101.001s-57 -41 -95 -41c-68 0 -102 33.667 -102 101c0 40.667 12.833 74.334 38.5 101.001s56.834 40 93.501 40c31.333 0 56.333 -8.33301 75 -25s28 -41.667 28 -75zM379.999 101.999
c0 -102.667 -9.50098 -185.167 -28.501 -247.5s-43.833 -112.5 -74.5 -150.5s-63.667 -71 -99 -99c-36 -28 -76.333 -52 -121 -72s-81.667 -30 -111 -30c-30 0 -59.5 4.66699 -88.5 14s-52.833 20 -71.5 32s-28 22 -28 30c0 9.33301 9 23 27 41s38.333 35.667 61 53
s40.667 29 54 35c21.333 -21.333 45.5 -36.333 72.5 -45s52.833 -13 77.5 -13s48.5 10.833 71.5 32.5s41.833 60.834 56.5 117.501s22 137.667 22 243v620c0 45.333 -2 79.166 -6 101.499s-15.5 38 -34.5 47s-51.167 16.167 -96.5 21.5v50c60 10 108.833 21 146.5 33
s78.834 26.667 123.501 44h47v-858z" />
    <glyph glyph-name="k" unicode="k" horiz-adv-x="1040" 
d="M1008 877c-29.333 -2.66699 -57.167 -8.5 -83.5 -17.5s-53.5 -24.5 -81.5 -46.5l-403 -317l-95 30l299 263c29.333 26 44.5 45.167 45.5 57.5s-6.83301 20.5 -23.5 24.5s-36.667 6 -60 6v53h402v-53zM33.999 0v53.001c44 11.333 77.833 21.333 101.5 30s35.5 19 35.5 31
v1172c0 39.333 -3.5 67.666 -10.5 84.999s-20.333 28.833 -40 34.5s-48.5 10.5 -86.5 14.5v50c52 9.33301 102 20 150 32s90.667 28 128 48l39 -36v-1400c0 -10 6 -18.833 18 -26.5s42.667 -19.167 92 -34.5v-53h-427zM1043 23.001
c-39.333 -8.66699 -79.334 -16.334 -120.001 -23.001s-68 -10 -82 -10c-50.667 0 -89.667 17.667 -117 53l-377 483l127 76l411 -478c18.667 -22 38.834 -36.167 60.501 -42.5s52.167 -8.16602 91.5 -5.49902z" />
    <glyph glyph-name="l" unicode="l" horiz-adv-x="575" 
d="M58 0l0.00195312 53.002c57.333 10 96.166 20 116.499 30s30.5 20.333 30.5 31v1172c0 39.333 -3.66699 67.5 -11 84.5s-20.833 28.5 -40.5 34.5s-48.167 11 -85.5 15v50c54 9.33301 102.667 19.666 146 30.999s87.666 27.666 132.999 48.999l38 -36v-1400
c0 -10 11 -20.333 33 -31s60.333 -20.667 115 -30v-53h-475z" />
    <glyph glyph-name="m" unicode="m" horiz-adv-x="1673" 
d="M1194 0l-0.00292969 52.9971c48 12.667 81.833 23.834 101.5 33.501s29.5 18.834 29.5 27.501v509c0 82 -8.66699 135.833 -26 161.5s-45.333 38.5 -84 38.5c-39.333 0 -83.333 -19.333 -132 -58s-97 -92.667 -145 -162v-489c0 -8.66699 9.5 -17.667 28.5 -27
s54.833 -20.666 107.5 -33.999v-53h-448v53c48 12.667 82 23.834 102 33.501s30 18.834 30 27.501v509c0 82 -8.16699 135.833 -24.5 161.5s-44.166 38.5 -83.499 38.5c-40 0 -83.167 -19.167 -129.5 -57.5s-96.5 -92.5 -150.5 -162.5v-489c0 -22 45 -42.333 135 -61v-53
h-452v53c44 11.333 77.833 21.666 101.5 30.999s35.5 19.333 35.5 30v590c0 35.333 -2.5 61.166 -7.5 77.499s-17.167 27.666 -36.5 33.999s-50.333 12.166 -93 17.499v50c56.667 8 105 18.5 145 31.5s80 28.167 120 45.5l37 -37l11 -194
c64.667 80.667 126.667 139.334 186 176.001s113 55 161 55c63.333 0 115 -16.167 155 -48.5s61.333 -85.166 64 -158.499l1 -19c62 77.333 122.833 134.333 182.5 171s113.834 55 162.501 55c63.333 0 117 -18.333 161 -55s66 -95.334 66 -176.001v-615
c0 -8.66699 10.333 -17.667 31 -27s57.334 -20.666 110.001 -33.999v-53h-452z" />
    <glyph glyph-name="n" unicode="n" horiz-adv-x="1150" 
d="M668 0l0.000976562 52.999c91.333 24 137 44.333 137 61v504c0 78.667 -9 130.834 -27 156.501s-49 38.5 -93 38.5c-38 0 -83.833 -17.167 -137.5 -51.5s-112.834 -95.166 -177.501 -182.499v-465c0 -10 12.167 -20.333 36.5 -31s58.166 -20.667 101.499 -30v-53h-455v53
c44 11.333 77.833 21.666 101.5 30.999s35.5 19.333 35.5 30v590c0 34.667 -2.16699 60.167 -6.5 76.5s-16.166 27.833 -35.499 34.5s-51 12.667 -95 18v50c50.667 6.66699 97.167 16.5 139.5 29.5s84.166 28.833 125.499 47.5l37 -37l11 -214
c64.667 81.333 134.167 143.5 208.5 186.5s137.5 64.5 189.5 64.5c57.333 0 108.5 -18.333 153.5 -55s67.5 -95.334 67.5 -176.001v-615c0 -8.66699 9.83301 -17.667 29.5 -27s55.834 -20.666 108.501 -33.999v-53h-455z" />
    <glyph glyph-name="o" unicode="o" horiz-adv-x="1045" 
d="M970 485c0 -66.667 -12.3369 -130.668 -37.0039 -192.001s-58.667 -116.333 -102 -165s-93.166 -87.167 -149.499 -115.5s-115.5 -42.5 -177.5 -42.5c-86.667 0 -162.167 20.667 -226.5 62s-114.166 97.666 -149.499 168.999s-53 152.333 -53 243
c0 66 11.833 129.833 35.5 191.5s56.834 117 99.501 166s92.334 87.667 149.001 116s118 42.5 184 42.5c86 0 161 -20.667 225 -62s113.667 -97.666 149 -168.999s53 -152.666 53 -243.999zM782.996 449.999c0 70.667 -13 135.832 -39 195.499s-59.5 107.834 -100.5 144.501
s-84.167 55 -129.5 55c-64 0 -114.167 -16.333 -150.5 -49s-62.166 -77.167 -77.499 -133.5s-23 -119.5 -23 -189.5s13.833 -134.5 41.5 -193.5s62.167 -106.167 103.5 -141.5s82.666 -53 123.999 -53c89.333 0 153.5 32.667 192.5 98s58.5 154.333 58.5 267z" />
    <glyph glyph-name="p" unicode="p" horiz-adv-x="1105" 
d="M646 -30c-82.667 0 -174.67 40.999 -276.003 122.999v-458c0 -10.667 12.5 -21.334 37.5 -32.001s68.833 -20.667 131.5 -30v-53h-486v53c44 10.667 77.833 20.834 101.5 30.501s35.5 20.167 35.5 31.5v1069c0 33.333 -2.66699 58.833 -8 76.5
s-17.666 30.334 -36.999 38.001s-50 12.5 -92 14.5v50c56 10 103.333 20.667 142 32s79.667 26.333 123 45l37 -37l9 -173c69.333 74.667 134.5 128.334 195.5 161.001s110.5 49 148.5 49c90.667 0 167 -40.167 229 -120.5s93 -195.166 93 -344.499
c0 -60.667 -11.167 -121.834 -33.5 -183.501s-52.166 -118.334 -89.499 -170.001s-78.666 -93.167 -123.999 -124.5s-91 -47 -137 -47zM622.997 819.999c-24 0 -57.499 -12.833 -100.499 -38.5s-93.833 -75.167 -152.5 -148.5v-415c63.333 -44 115.666 -72.5 156.999 -85.5
s79.333 -19.5 114 -19.5c64.667 0 118.167 26.667 160.5 80s63.5 131 63.5 233c0 80 -11.5 149.5 -34.5 208.5s-53 104.667 -90 137s-76.167 48.5 -117.5 48.5z" />
    <glyph glyph-name="q" unicode="q" horiz-adv-x="1078" 
d="M573 -480v53.002c62 9.33301 105.833 19.166 131.5 29.499s38.5 21.166 38.5 32.499v1206c14 4.66699 32.833 14.334 56.5 29.001s47 30.667 70 48s39.833 31.333 50.5 42l34 -32l-15.5 -64c-10.333 -42.667 -15.5 -94 -15.5 -154v-1075c0 -10.667 10 -21.334 30 -32.001
s55.333 -20.667 106 -30v-53h-486zM817 245.002c-48.667 -58.667 -93.168 -108.5 -133.501 -149.5s-81.833 -72.167 -124.5 -93.5s-91 -32 -145 -32c-50.667 0 -102 18.833 -154 56.5s-95.833 92 -131.5 163s-53.5 155.833 -53.5 254.5c0 78 14.5 146.833 43.5 206.5
s63.167 109.5 102.5 149.5s74.666 69.333 105.999 88c37.333 21.333 76.333 38.666 117 51.999s76.334 20 107.001 20c40 0 80 -7 120 -21s86 -47 138 -99c0 -40 -4.5 -68.833 -13.5 -86.5s-24.167 -33.167 -45.5 -46.5c-20.667 42 -52 75.167 -94 99.5
s-86.333 36.5 -133 36.5c-47.333 0 -91.333 -13 -132 -39s-73.5 -65.5 -98.5 -118.5s-37.5 -119.833 -37.5 -200.5c0 -75.333 12.667 -140.333 38 -195s57 -96.667 95 -126s75.333 -44 112 -44c48.667 0 95.334 18.333 140.001 55s90.334 77.334 137.001 122.001
c8.66699 -4 16.667 -12.333 24 -25s12.666 -21.667 15.999 -27z" />
    <glyph glyph-name="r" unicode="r" horiz-adv-x="844" 
d="M805 921c6 -4 8.49707 -17.002 7.49707 -39.002s-4.66699 -48.167 -11 -78.5s-13.666 -60 -21.999 -89s-16.5 -52.5 -24.5 -70.5h-53c-7.33301 54 -20.833 94.333 -40.5 121s-43.167 40 -70.5 40c-28.667 0 -64 -21.167 -106 -63.5s-80.333 -115.833 -115 -220.5v-407
c0 -10 13 -20.333 39 -31s70.333 -20.667 133 -30v-53h-489v53c91.333 20.667 137 41 137 61v565c0 44 -2.33301 74.667 -7 92s-10 29 -16 35c-8.66699 8.66699 -20.667 14.834 -36 18.501s-41.333 6.5 -78 8.5v50c52.667 10 99.834 20.667 141.501 32
s82.834 26.333 123.501 45l37 -37l13 -200c36 66.667 78.833 122.834 128.5 168.501s103.167 68.5 160.5 68.5c22.667 0 47 -3 73 -9s51 -16 75 -30z" />
    <glyph glyph-name="s" unicode="s" horiz-adv-x="813" 
d="M727 283c0 -70.667 -14.167 -127.004 -42.5 -169.004s-63 -73.333 -104 -94s-81.333 -34.167 -121 -40.5s-70.834 -9.5 -93.501 -9.5c-35.333 0 -77.166 5.83301 -125.499 17.5s-94.833 30.167 -139.5 55.5c-4.66699 2.66699 -7.83398 13.834 -9.50098 33.501
s-2.16699 43.5 -1.5 71.5s2.5 55.833 5.5 83.5s7.16699 50.834 12.5 69.501l55 -11c6.66699 -61.333 33.334 -112 80.001 -152s102.667 -60 168 -60c47.333 0 85.166 12.667 113.499 38s42.5 60 42.5 104c0 47.333 -20.5 85.833 -61.5 115.5s-102.167 65.834 -183.5 108.501
c-37.333 19.333 -73 40.5 -107 63.5s-61.833 49.833 -83.5 80.5s-32.5 67.334 -32.5 110.001c0 55.333 15.167 102.5 45.5 141.5s69.666 68.833 117.999 89.5s99.5 31 153.5 31c46.667 0 97.167 -7 151.5 -21s95.5 -32.667 123.5 -56c5.33301 -4.66699 5 -19.167 -1 -43.5
s-14.167 -49.5 -24.5 -75.5s-19.166 -43.667 -26.499 -53l-49 8c-26.667 50.667 -56.834 87.667 -90.501 111s-68.5 35 -104.5 35c-42.667 0 -76 -11.833 -100 -35.5s-36 -49.167 -36 -76.5c0 -38 18.167 -70 54.5 -96s92.5 -58.667 168.5 -98
c38.667 -20 76.834 -41.833 114.501 -65.5s68.834 -52.167 93.501 -85.5s37 -75 37 -125z" />
    <glyph glyph-name="t" unicode="t" horiz-adv-x="723" 
d="M696 130c-72.667 -54 -139.5 -94.167 -200.5 -120.5s-109.167 -39.5 -144.5 -39.5c-49.333 0 -92.666 19.833 -129.999 59.5s-56 106.167 -56 199.5v596h-126l-24 31l78 74h72v234l147 119l33 -28v-325h320l31 -31c-12.667 -20 -29.334 -41.333 -50.001 -64
s-37.667 -37.667 -51 -45c-16 8 -40.167 15.833 -72.5 23.5s-72.5 11.5 -120.5 11.5h-57v-508c0 -76 8 -128.167 24 -156.5s41.333 -42.5 76 -42.5c24 0 52.833 4.66699 86.5 14s77.167 28 130.5 56z" />
    <glyph glyph-name="u" unicode="u" horiz-adv-x="1108" 
d="M1094 92c-48.667 -32 -97.0039 -60.333 -145.004 -85s-80 -37 -96 -37c-24 0 -44.167 13.833 -60.5 41.5s-27.166 75.834 -32.499 144.501c-55.333 -52.667 -104.166 -92.334 -146.499 -119.001s-80 -44.5 -113 -53.5s-63.833 -13.5 -92.5 -13.5
c-41.333 0 -80.5 8.33301 -117.5 25s-67.167 47.334 -90.5 92.001s-35 108.667 -35 192v425c0 42 -2.16699 72.333 -6.5 91s-15.333 31 -33 37s-46.5 11 -86.5 15v50c54 6 101.5 13.667 142.5 23s85.5 22.666 133.5 39.999l30 -41v-582c0 -90 12.333 -150.667 37 -182
s59.334 -47 104.001 -47c38 0 78.833 11.333 122.5 34s94.167 62.667 151.5 120v442c0 40 -3 69.667 -9 89s-18.667 32.666 -38 39.999s-49.333 12 -90 14v50c54 6 104.833 14.833 152.5 26.5s91.834 23.834 132.501 36.501l32 -41v-655c0 -81.333 7.66699 -128 23 -140
c7.33301 -5.33301 20 -6.5 38 -3.5s44 11.833 78 26.5z" />
    <glyph glyph-name="v" unicode="v" horiz-adv-x="1020" 
d="M1002 877c-40 -9.33301 -66.1689 -18.165 -78.502 -26.498s-22.166 -22.166 -29.499 -41.499l-283 -742c-11.333 -30 -33.166 -52.333 -65.499 -67s-59.5 -24.667 -81.5 -30l-338 839c-7.33301 17.333 -19 31.166 -35 41.499s-40.333 19.166 -73 26.499v53h408v-53
c-51.333 -6.66699 -84.333 -14.334 -99 -23.001s-17.667 -23.667 -9 -45l236 -595l221 595c7.33301 20 5 34.5 -7 43.5s-41.667 17.167 -89 24.5v53h323v-53z" />
    <glyph glyph-name="w" unicode="w" horiz-adv-x="1454" 
d="M1435 877c-40 -9.33301 -65.668 -18.168 -77.001 -26.501s-19 -20.166 -23 -35.499l-221 -756c-5.33301 -19.333 -17.166 -35.166 -35.499 -47.499s-37.333 -21.666 -57 -27.999s-35.167 -10.833 -46.5 -13.5l-264 701l20 259h27h39l257 -696l163 581
c4 15.333 -1.33301 27.666 -16 36.999s-45 17.666 -91 24.999v53h325v-53zM526.999 58.998c-10 -30.667 -30.834 -52.168 -62.501 -64.501s-56.167 -20.5 -73.5 -24.5l-264 845c-7.33301 26.667 -43.666 47.334 -108.999 62.001v53h408v-53
c-62.667 -6.66699 -99.5 -15.5 -110.5 -26.5s-14.167 -22.833 -9.5 -35.5l175 -581l244 696h37h23l16 -125z" />
    <glyph glyph-name="x" unicode="x" horiz-adv-x="1043" 
d="M1005 877c-54 -4 -94.833 -13.668 -122.5 -29.001s-50.5 -35.333 -68.5 -60l-251 -343l-65 77l193 268c22.667 32.667 27.5 54.334 14.5 65.001s-40.167 18 -81.5 22v53h381v-53zM597 -0.000976562l-0.000976562 53c22 2 41.667 5.16699 59 9.5s28 12.333 32 24
s-2.66699 29.5 -20 53.5l-472 648c-17.333 24 -36.333 43.833 -57 59.5s-57.334 25.5 -110.001 29.5v53h445v-53c-41.333 -4 -69.166 -11.5 -83.499 -22.5s-10.166 -32.5 12.501 -64.5l468 -644c14.667 -20 33.667 -39 57 -57s57 -30 101 -36v-53h-432zM308.999 139.999
c-17.333 -24 -22.1689 -41.834 -14.502 -53.501s21.834 -19.667 42.501 -24s41.334 -7.5 62.001 -9.5v-53h-381v53c52 8 89.667 20.333 113 37s42.333 35.334 57 56.001l261 354l64 -80z" />
    <glyph glyph-name="y" unicode="y" horiz-adv-x="1020" 
d="M1002 877c-40 -9.33301 -66.667 -18.002 -80 -26.002s-23.333 -21.667 -30 -41l-334 -889c-56 -148 -122.833 -254.667 -200.5 -320s-152.834 -98 -225.501 -98c-50.667 0 -94 6.5 -130 19.5s-54 25.833 -54 38.5c0 6 7.66699 19.333 23 40s33 42 53 64s37 37.333 51 46
c32 -20 64.167 -31 96.5 -33s61.166 1.33301 86.499 10c24 8 52.667 32.333 86 73s62 89.667 86 147l29 69l-330 832c-7.33301 18.667 -19.5 32.834 -36.5 42.501s-41.833 18.167 -74.5 25.5v53h408v-53c-50 -6.66699 -82.167 -14.167 -96.5 -22.5
s-17.166 -23.5 -8.49902 -45.5l232 -592l220 592c7.33301 20.667 3.83301 35.334 -10.5 44.001s-45.166 16.667 -92.499 24v53h332v-53z" />
    <glyph glyph-name="z" unicode="z" horiz-adv-x="896" 
d="M847 276c0 -28 -0.5 -60.667 -1.5 -98s-2.33301 -72.333 -4 -105s-3.83398 -57 -6.50098 -73h-738l-26 45l546 785h-317c-24 0 -47.5 -12 -70.5 -36s-41.833 -68.667 -56.5 -134l-56 15l20 271c29.333 -8 55.333 -12.667 78 -14s55.334 -2 98.001 -2h515l22 -43
l-549 -787h396c19.333 0 36 15.333 50 46s29 78 45 142z" />
    <glyph glyph-name="braceleft" unicode="{" horiz-adv-x="698" 
d="M664 1543c-52 -32.667 -95.332 -72.833 -129.999 -120.5s-52 -102.834 -52 -165.501c0 -50 3.5 -90.333 10.5 -121l20.5 -92c6.66699 -30.667 10 -71 10 -121c0 -55.333 -16.833 -108 -50.5 -158s-78.5 -87.333 -134.5 -112c66.667 -12 114.167 -41.333 142.5 -88
s42.5 -106.667 42.5 -180c0 -51.333 -3.33301 -95 -10 -131s-13.5 -70.333 -20.5 -103s-10.5 -70.334 -10.5 -113.001c0 -67.333 11 -121.333 33 -162s68.333 -80.667 139 -120l-28 -71c-115.333 45.333 -200.833 96.166 -256.5 152.499s-83.5 132.833 -83.5 229.5
c0 50.667 3.5 92.334 10.5 125.001l20.5 99.5c6.66699 33.667 10 77.167 10 130.5c0 54 -13 94 -39 120s-62.333 39 -109 39c-18.667 0 -29.334 -0.166992 -32.001 -0.5s-13.667 -2.16602 -33 -5.49902l-17 63c76.667 20.667 134.167 50.834 172.5 90.501
s57.5 84.5 57.5 134.5c0 39.333 -2 71.833 -6 97.5s-8.83301 49.167 -14.5 70.5s-10.5 44.833 -14.5 70.5s-6 58.5 -6 98.5c0 90 32 168 96 234s147.667 121.333 251 166z" />
    <glyph glyph-name="bar" unicode="|" horiz-adv-x="500" 
d="M325 -422c-12 -10 -29.667 -20.168 -53 -30.501s-43 -18.166 -59 -23.499l-38 25v2070l55 30c18 9.33301 37 16.333 57 21l38 -24v-2068z" />
    <glyph glyph-name="braceright" unicode="}" horiz-adv-x="698" 
d="M603 646c-77.333 -20.667 -135.168 -50.5049 -173.501 -89.5049s-57.5 -83.833 -57.5 -134.5c0 -39.333 2 -71.666 6 -96.999s8.66699 -48.666 14 -69.999s10 -44.833 14 -70.5s6 -58.5 6 -98.5c0 -90 -32 -168.167 -96 -234.5s-147.333 -121.833 -250 -166.5l-32 58
c52 32.667 95.333 72.834 130 120.501s52 102.834 52 165.501c0 50 -3.33301 90.333 -10 121l-20 92c-6.66699 30.667 -10 71.334 -10 122.001c0 55.333 16.667 107.5 50 156.5s78.666 85.833 135.999 110.5c-67.333 12.667 -115.166 42.334 -143.499 89.001
s-42.5 107 -42.5 181c0 51.333 3.33301 94.833 10 130.5l20 103c6.66699 33 10 70.5 10 112.5c0 68 -11.167 122.333 -33.5 163s-68.5 80.334 -138.5 119.001l28 71c116 -44.667 201.667 -95.334 257 -152.001s83 -133 83 -229c0 -50.667 -3.33301 -92.334 -10 -125.001
l-20 -99.5c-6.66699 -33.667 -10 -77.167 -10 -130.5c0 -106 49.667 -159 149 -159h30c2.66699 0 14.334 2 35.001 6z" />
    <glyph glyph-name="asciitilde" unicode="~" horiz-adv-x="999" 
d="M955 777c-18 -44 -42.8311 -89.5 -74.498 -136.5s-67.5 -86.833 -107.5 -119.5s-82 -49 -126 -49c-28 0 -57.5 8 -88.5 24s-62.5 34.667 -94.5 56s-63.667 40 -95 56s-61.333 24 -90 24c-63.333 0 -122.333 -54 -177 -162l-58 30c19.333 43.333 44.666 88.5 75.999 135.5
s66.833 86.833 106.5 119.5s81.5 49 125.5 49c32 0 64.167 -8 96.5 -24s64 -34.667 95 -56s61.167 -40 90.5 -56s57.666 -24 84.999 -24c30 0 60.333 13 91 39s59.667 66.333 87 121z" />
    <glyph glyph-name="uni00A0" unicode="&#xa0;" horiz-adv-x="451" 
 />
    <glyph glyph-name="exclamdown" unicode="&#xa1;" horiz-adv-x="582" 
d="M419 841c0 -48 -15.166 -87.833 -45.499 -119.5s-66.166 -47.5 -107.499 -47.5c-34.667 0 -62.334 10.167 -83.001 30.5s-31 50.833 -31 91.5c0 48 14.667 87.5 44 118.5s65.666 46.5 108.999 46.5c76 0 114 -40 114 -120zM399.001 -472
c-27.333 -16 -58.8311 -33.166 -94.498 -51.499s-65.5 -31.833 -89.5 -40.5l-45 26l57 1061c13.333 10 26.666 17.667 39.999 23s28.666 10.666 45.999 15.999l27 -19z" />
    <glyph glyph-name="cent" unicode="&#xa2;" horiz-adv-x="986" 
d="M583 -3c-12 -10.667 -23.167 -18.333 -33.5 -23s-23.5 -9.66699 -39.5 -15l-27 28v1222c18 11.333 29.167 19 33.5 23s16.833 8.33301 37.5 13l29 -24v-1224zM892 353.001c-58 -67.333 -108.001 -116.833 -150.001 -148.5s-81.667 -52.167 -119 -61.5
s-77.666 -14 -120.999 -14c-64 0 -127 17.5 -189 52.5s-113.167 86.5 -153.5 154.5s-60.5 151.333 -60.5 250c0 94.667 23 179.167 69 253.5s108.833 132.833 188.5 175.5s169.834 64 270.501 64c44 0 91.5 -7 142.5 -21s87.833 -33.667 110.5 -59
c2 -10 -0.833008 -27.167 -8.5 -51.5s-16.834 -48.666 -27.501 -72.999s-20 -42.166 -28 -53.499l-45 12c-8.66699 16 -22.5 34.167 -41.5 54.5s-44.333 38.166 -76 53.499s-70.5 23 -116.5 23c-44.667 0 -87.167 -11.833 -127.5 -35.5s-73 -61 -98 -112
s-37.5 -117.833 -37.5 -200.5c0 -76.667 13.833 -140.834 41.5 -192.501s64.167 -90.667 109.5 -117s95 -39.5 149 -39.5c26 0 50.833 2.5 74.5 7.5s50.5 17.167 80.5 36.5s68.667 50.333 116 93z" />
    <glyph glyph-name="sterling" unicode="&#xa3;" horiz-adv-x="986" 
d="M891 1165c-0.666992 -22.667 -3.16602 -52.9961 -7.49902 -90.9961s-9.33301 -75.167 -15 -111.5s-11.167 -62.833 -16.5 -79.5h-57c-18.667 164 -94.334 246 -227.001 246c-25.333 0 -51 -5 -77 -15s-48.667 -32.333 -68 -67s-32.333 -87.834 -39 -159.501
s-2.66699 -169.167 12 -292.5c11.333 -100.667 6.16602 -192.334 -15.501 -275.001s-52.5 -151.334 -92.5 -206.001c45.333 3.33301 83 5.16602 113 5.49902s56.833 -0.166992 80.5 -1.5l74 -4c25.667 -1.33301 56.834 -1.33301 93.501 0
c41.333 0.666992 75.166 5 101.499 13s49 24.5 68 49.5s37.833 63.5 56.5 115.5l53 -20c-4.66699 -58 -11.834 -113 -21.501 -165s-16.834 -87.667 -21.501 -107c-36 -20 -80.167 -30 -132.5 -30s-108.833 4.16699 -169.5 12.5l-182.5 24
c-61 7.66699 -118.667 9.83398 -173 6.50098s-101.166 -17.666 -140.499 -42.999l-28 57c32 26 58.333 50.667 79 74s36.334 52.666 47.001 87.999s16.5 83.5 17.5 144.5s-2.5 142.5 -10.5 244.5c-10 133.333 -0.5 249.166 28.5 347.499s77.5 174.5 145.5 228.5
s155 81 261 81c34.667 0 71.834 -3.83301 111.501 -11.5s90.5 -27.167 152.5 -58.5zM650.001 531.004h-569.001l-24 28c2.66699 10 6.83398 22 12.501 36l14.5 37h569l27 -25z" />
    <glyph glyph-name="currency" unicode="&#xa4;" horiz-adv-x="986" 
d="M364 733c-36.667 -36.667 -55 -80.668 -55 -132.001c0 -50.667 18 -93.667 54 -129c36.667 -36.667 80.667 -55 132 -55c50.667 0 94 18 130 54c36 37.333 54 81 54 131c0 50.667 -18.333 94.334 -55 131.001c-36 36 -79 54 -129 54c-51.333 0 -95 -18 -131 -54z
M290 806.999c28.667 28.667 60.6689 50.167 96.002 64.5s71.666 21.5 108.999 21.5c78 0 145.667 -28.667 203 -86c28 -28 49.333 -60.167 64 -96.5s22 -73.166 22 -110.499c0 -36.667 -7.16699 -72.834 -21.5 -108.501s-35.5 -67.5 -63.5 -95.5
c-27.333 -28 -58.833 -48.833 -94.5 -62.5s-72.167 -20.5 -109.5 -20.5c-38 0 -74.833 7 -110.5 21s-67.834 35.333 -96.501 64c-28 28 -48.833 59.5 -62.5 94.5s-20.5 70.833 -20.5 107.5c0 37.333 7 74 21 110s35.333 68.333 64 97zM373.002 409.999l-164 -163l-36 2
c-6 10 -12 21 -18 33s-11.333 23.667 -16 35l162 163l38 2zM295.002 729.999l-155 156l2 36c10 6 21 12 33 18s23.667 11.333 35 16l155 -155l2 -37zM776.002 247.999l-155.001 155l2 37c20.667 12 43.334 23.667 68.001 35l156 -157l1 -37zM846.001 883.999l-163 -163
l-37 2c-12 21.333 -23.333 44 -34 68l164 164l37 1z" />
    <glyph glyph-name="yen" unicode="&#xa5;" horiz-adv-x="986" 
d="M234 0v53c60 12.667 101.833 25.5 125.5 38.5s35.5 24.167 35.5 33.5v295h-277l-22 25c2.66699 10 6.66699 22.5 12 37.5l14 38.5h273v42c-46 99.333 -96.333 196.5 -151 291.5s-104.667 171.833 -150 230.5c-12 15.333 -28 28 -48 38s-58 15 -114 15l-4 53
c39.333 5.33301 81.833 10.5 127.5 15.5s82.167 7.5 109.5 7.5c35.333 0 63.666 -13.667 84.999 -41c50 -65.333 96.167 -134.833 138.5 -208.5s86.833 -158.5 133.5 -254.5l207 375c10 17.333 6.83301 31 -9.5 41s-50.166 18.333 -101.499 25v53h403v-53
c-45.333 -8.66699 -79.833 -17.5 -103.5 -26.5s-40.167 -22.167 -49.5 -39.5l-283 -524v-40h270l25 -23l-29 -78h-266v-295c0 -8.66699 11.667 -19.667 35 -33s66.333 -26.333 129 -39v-53h-515z" />
    <glyph glyph-name="brokenbar" unicode="&#xa6;" horiz-adv-x="500" 
d="M327 747c-14 -10.667 -32.333 -21 -55 -31s-42.334 -17.333 -59.001 -22l-39 24v901l55.5 30c17.667 9.33301 36.834 16.333 57.501 21l40 -24v-899zM327 -422c-14 -10.667 -32.333 -21 -55 -31s-42.334 -17.667 -59.001 -23l-39 25v890
c19.333 11.333 37.833 21.5 55.5 30.5s36.834 16.833 57.501 23.5l40 -27v-888z" />
    <glyph glyph-name="section" unicode="&#xa7;" horiz-adv-x="982" 
d="M447 -30c-35.333 0 -77.167 7.33203 -125.5 21.999s-94.833 34.334 -139.5 59.001c-4 2 -7 12.833 -9 32.5s-2.66699 43.5 -2 71.5s2.5 56 5.5 84s7.16699 51 12.5 69l56 -11c6.66699 -60.667 33.167 -112.667 79.5 -156s102.166 -65 167.499 -65
c48 0 86.167 10.333 114.5 31s42.5 53.334 42.5 98.001c0 35.333 -12.667 65 -38 89s-57.5 45.833 -96.5 65.5l-118.5 62.5c-80.667 43.333 -147.834 91.5 -201.501 144.5s-80.5 122.833 -80.5 209.5c0 42.667 11.667 84.167 35 124.5s54.333 75.5 93 105.5
s80.334 50.333 125.001 61l61 -79c-46 -6 -83.333 -24.5 -112 -55.5s-43 -67.167 -43 -108.5c0 -40 9.83301 -74.5 29.5 -103.5s50.334 -57.333 92.001 -85s94.834 -59.834 159.501 -96.501c38.667 -19.333 77.667 -40.5 117 -63.5s72.166 -50.833 98.499 -83.5
s39.5 -74 39.5 -124c0 -70.667 -14.167 -126.167 -42.5 -166.5s-63.166 -69.833 -104.499 -88.5s-81.833 -30.5 -121.5 -35.5s-70.834 -7.5 -93.501 -7.5zM652.999 360.999l-98 84.9961c44 0.666992 80.833 16 110.5 46s44.5 65 44.5 105
c0 63.333 -24.167 115.833 -72.5 157.5s-123.166 89.834 -224.499 144.501c-62.667 34 -117.167 74.833 -163.5 122.5s-69.5 104.834 -69.5 171.501c0 55.333 15.333 101.166 46 137.499s70.167 63.666 118.5 81.999s99.166 27.5 152.499 27.5
c47.333 0 98 -8.16699 152 -24.5s95.333 -36.166 124 -59.499c5.33301 -5.33301 4.83301 -20.166 -1.5 -44.499s-14.666 -49.5 -24.999 -75.5s-19.166 -43.667 -26.499 -53l-49 8c-52.667 102.667 -117.667 154 -195 154c-42.667 0 -76 -9.16699 -100 -27.5
s-36 -44.166 -36 -77.499c0 -45.333 20.167 -83.666 60.5 -114.999s97.166 -67.333 170.499 -108c54.667 -30.667 104.334 -61.334 149.001 -92.001s80.5 -66.667 107.5 -108s40.5 -93.666 40.5 -156.999c0 -60 -11.833 -111.667 -35.5 -155s-52.334 -77.333 -86.001 -102
s-64.834 -38.667 -93.501 -42z" />
    <glyph glyph-name="dieresis" unicode="&#xa8;" horiz-adv-x="801" 
d="M309 1263c0 -41.333 -12.501 -76.667 -37.501 -106s-55.5 -44 -91.5 -44c-64 0 -96 35 -96 105c0 41.333 12.833 76.5 38.5 105.5s55.834 43.5 90.501 43.5c64 0 96 -34.667 96 -104zM716.999 1263c0 -41.333 -12.501 -76.667 -37.501 -106s-55.833 -44 -92.5 -44
c-63.333 0 -95 35 -95 105c0 41.333 12.833 76.5 38.5 105.5s55.834 43.5 90.501 43.5c64 0 96 -34.667 96 -104z" />
    <glyph glyph-name="copyright" unicode="&#xa9;" horiz-adv-x="1472" 
d="M735 -30c-92.667 0 -178 17.5 -256 52.5s-145.667 83.333 -203 145s-101.833 133 -133.5 214s-47.5 168.167 -47.5 261.5c0 92 15.833 178.667 47.5 260s76.167 152.666 133.5 213.999s125 109.333 203 144s163.333 52 256 52s178.167 -17.333 256.5 -52
s146.333 -82.667 204 -144s102.334 -132.666 134.001 -213.999s47.5 -168 47.5 -260c0 -93.333 -15.833 -180.5 -47.5 -261.5s-76.334 -152.333 -134.001 -214s-125.667 -110 -204 -145s-163.833 -52.5 -256.5 -52.5zM713 223c-58.667 0 -115.167 15.4961 -169.5 46.4961
s-98.666 75.833 -132.999 134.5s-51.5 128.667 -51.5 210c0 87.333 19.5 164.5 58.5 231.5s91.5 119.5 157.5 157.5s139.333 57 220 57c48 0 92 -6.66699 132 -20s71.667 -29 95 -47c3.33301 -4 0.833008 -15.667 -7.5 -35s-18.333 -39.166 -30 -59.499
s-21.167 -34.166 -28.5 -41.499l-34 5c-20.667 27.333 -44.834 52.333 -72.501 75s-63.167 34 -106.5 34c-31.333 0 -65 -10.167 -101 -30.5s-66.5 -54.666 -91.5 -102.999s-37.5 -113.833 -37.5 -196.5c0 -68 15 -125.333 45 -172s66.333 -82 109 -106s83 -36 121 -36
c29.333 0 59 5.83301 89 17.5s71.667 36.834 125 75.501l33 -37c-63.333 -63.333 -120.5 -105.833 -171.5 -127.5s-101.167 -32.5 -150.5 -32.5zM735 67.9961c106 0 200 25.833 282 77.5s146.333 121 193 208s70 183.5 70 289.5c0 104.667 -23.333 200.334 -70 287.001
s-111 156 -193 208s-176 78 -282 78c-104.667 0 -198 -26 -280 -78s-146.333 -121.333 -193 -208s-70 -182.334 -70 -287.001c0 -106 23.333 -202.5 70 -289.5s111 -156.333 193 -208s175.333 -77.5 280 -77.5z" />
    <glyph glyph-name="ordfeminine" unicode="&#xaa;" horiz-adv-x="537" 
d="M526 779c-62 -42 -107.666 -62.9961 -136.999 -62.9961c-12 0 -23.5 10.833 -34.5 32.5s-16.5 59.167 -16.5 112.5v195c0 41.333 -4.66699 72.833 -14 94.5s-31.333 32.5 -66 32.5c-20 0 -39 -7.83301 -57 -23.5s-22.667 -36.834 -14 -63.501
c1.33301 -4 -6.5 -8.83301 -23.5 -14.5s-35.167 -10.334 -54.5 -14.001s-32 -4.83398 -38 -3.50098l-9 22c6 28.667 23.5 55 52.5 79s61.5 43.167 97.5 57.5s67.667 21.5 95 21.5c48 0 82.667 -13.667 104 -41s32 -77.333 32 -150v-196c0 -18.667 1.33301 -32.167 4 -40.5
s6 -14.833 10 -19.5c3.33301 -2 9.66602 -2.33301 18.999 -1s23.333 5.66602 42 12.999zM292.001 984.004c-50 -13.333 -84.8311 -30.5 -104.498 -51.5s-29.5 -45.833 -29.5 -74.5c0 -26 6 -43.333 18 -52s22.667 -13 32 -13c20 0 41.667 5.16699 65 15.5s49 27.833 77 52.5
l5 -47c-34.667 -36 -68.834 -61.333 -102.501 -76s-62.834 -22 -87.501 -22c-26.667 0 -53 8.5 -79 25.5s-39 46.5 -39 88.5c0 41.333 15.5 78.5 46.5 111.5s80.5 58.167 148.5 75.5l166 41l3 -44zM49.0029 586.004v78h449v-78h-449z" />
    <glyph glyph-name="guillemotleft" unicode="&#xab;" horiz-adv-x="1014" 
d="M458 430v17.5c0 11.667 0.166992 23.667 0.5 36s0.833008 18.833 1.5 19.5l371 415l47 -35l-22.5 -42l-55.5 -104.5l-66 -124.5l-55 -104c-14.667 -28 -21.667 -41.667 -21 -41l221 -420l-48 -35zM75 430v17.5c0 11.667 0.166992 23.667 0.5 36s0.833008 18.833 1.5 19.5
l372 415l47 -35l-22.5 -42l-55.5 -104.5l-66 -124.5l-55 -104c-14.667 -28 -21.667 -41.667 -21 -41l221 -420l-48 -35z" />
    <glyph glyph-name="logicalnot" unicode="&#xac;" horiz-adv-x="986" 
d="M911 233c-13.333 -10 -28.499 -20.501 -45.499 -31.501s-33.833 -19.167 -50.5 -24.5l-27 28v296h-695l-27 27c3.33301 13.333 8.66602 29.333 15.999 48s14 34.334 20 47.001h384h230h116h41h7l31 -24v-366z" />
    <glyph glyph-name="uni00AD" unicode="&#xad;" horiz-adv-x="703" 
d="M644 549c-4 -14.667 -9.66797 -32 -17.001 -52s-13.666 -35.667 -18.999 -47h-522l-28 27c4 14 9.5 30.667 16.5 50s13.5 35.333 19.5 48h523z" />
    <glyph glyph-name="registered" unicode="&#xae;" horiz-adv-x="730" 
d="M701 1084c0 -64.667 -14.5 -123.5 -43.5 -176.5s-69 -95.333 -120 -127s-108.833 -47.5 -173.5 -47.5s-122.167 15.833 -172.5 47.5s-89.833 74 -118.5 127s-43 111.833 -43 176.5s14.333 123.5 43 176.5s68.167 95.333 118.5 127s107.833 47.5 172.5 47.5
s122.5 -15.833 173.5 -47.5s91 -74 120 -127s43.5 -111.833 43.5 -176.5zM637 1084c0 52.667 -11.667 100.667 -35 144s-55.5 78 -96.5 104s-88.167 39 -141.5 39c-52 0 -98.5 -13 -139.5 -39s-73.167 -60.667 -96.5 -104s-35 -91.333 -35 -144s11.667 -100.834 35 -144.501
s55.5 -78.334 96.5 -104.001s87.5 -38.5 139.5 -38.5c53.333 0 100.5 12.833 141.5 38.5s73.167 60.334 96.5 104.001s35 91.834 35 144.501zM504 1196c0 -40 -15 -71.168 -45 -93.501s-68.333 -33.5 -115 -33.5c-10 0 -22.333 1.66699 -37 5l-2 38
c12.667 -2.66699 24.334 -4 35.001 -4c64 0 96 26.333 96 79c0 19.333 -7.5 35.666 -22.5 48.999s-40.167 20 -75.5 20c-18.667 0 -38.834 -1.16699 -60.501 -3.5s-43.5 -5.16602 -65.5 -8.49902l-2 31c19.333 4 40.333 7.83301 63 11.5s48 5.5 76 5.5
c52 0 90.833 -9.16699 116.5 -27.5s38.5 -41.166 38.5 -68.499zM557 898.999c-13.333 -4 -28 -8 -44 -12s-27.667 -6 -35 -6c-13.333 0 -23.333 5.66699 -30 17l-106 182l48 18l115 -162c7.33301 -12 24 -17.333 50 -16zM212 885.999v20c28 6 42 12 42 18v347h61v-347
c0 -6.66699 13.667 -12.667 41 -18v-20h-144z" />
    <glyph glyph-name="macron" unicode="&#xaf;" horiz-adv-x="1010" 
d="M872 1290c-3.33301 -14.667 -10.334 -34.5 -21.001 -59.5s-18.334 -43.5 -23.001 -55.5h-665l-25 27c2.66699 14.667 9.33398 34.167 20.001 58.5s19.334 42.833 26.001 55.5h663z" />
    <glyph glyph-name="degree" unicode="&#xb0;" horiz-adv-x="733" 
d="M602 1047c0 -56.667 -13.998 -107.333 -41.998 -152s-63.167 -80 -105.5 -106s-84.5 -39 -126.5 -39c-57.333 0 -104.333 19.333 -141 58s-55 84.667 -55 138c0 57.333 13.667 108.5 41 153.5s62.166 80.333 104.499 106s85.166 38.5 128.499 38.5
c53.333 0 99.333 -19.667 138 -59s58 -85.333 58 -138zM478.002 995.001c0 37.333 -9 70 -27 98s-42.333 42 -73 42c-32 0 -60.333 -12.333 -85 -37s-37 -58 -37 -100c0 -35.333 8.83301 -67.5 26.5 -96.5s42.167 -43.5 73.5 -43.5c30 0 57.833 12 83.5 36
s38.5 57.667 38.5 101z" />
    <glyph glyph-name="plusminus" unicode="&#xb1;" horiz-adv-x="848" 
d="M789 704c-3.33301 -14 -8.83301 -30.499 -16.5 -49.499s-14.167 -34.167 -19.5 -45.5h-667l-28 27c4 13.333 9.5 29.166 16.5 47.499s13.5 33.833 19.5 46.5h668zM487 344.001c-30.667 -15.333 -63.333 -26.667 -98 -34l-27 25v664l47 16
c19.333 6.66699 36.333 11.667 51 15l27 -25v-661zM789.001 222c-3.33301 -13.333 -8.83301 -29.667 -16.5 -49s-14.167 -34.333 -19.5 -45h-667l-28 26c4 14 9.5 30 16.5 48s13.5 33.667 19.5 47h668z" />
    <glyph glyph-name="twosuperior" unicode="&#xb2;" horiz-adv-x="690" 
d="M604 620l-526 0.000976562l-20 44l202.5 207c52.333 55.333 92.833 101.333 121.5 138s48.667 67.834 60 93.501s17 49.5 17 71.5c0 36 -9.33301 65 -28 87s-50.334 33 -95.001 33c-36 0 -64.167 -12.167 -84.5 -36.5s-29.5 -51.166 -27.5 -80.499
c-36 -16.667 -78.333 -27.334 -127 -32.001l-20 26c0 27.333 14.333 55.666 43 84.999s66.334 54.166 113.001 74.499s97 30.5 151 30.5c64.667 0 117.5 -13.5 158.5 -40.5s61.5 -68.167 61.5 -123.5c0 -36 -11.833 -73 -35.5 -111s-63.5 -86.167 -119.5 -144.5l-229 -230.5
h273c21.333 0 37 8.66699 47 26s16.5 34.5 19.5 51.5l4.5 25.5l50 -8z" />
    <glyph glyph-name="threesuperior" unicode="&#xb3;" horiz-adv-x="690" 
d="M606 849c0 -67.333 -27.334 -125.335 -82.001 -174.002s-128 -73 -220 -73c-40.667 0 -84 8 -130 24s-90 41.333 -132 76l25 47c42.667 -27.333 80.667 -46 114 -56s67.666 -15 102.999 -15c50.667 0 92.167 12.667 124.5 38s48.5 63.666 48.5 114.999
c0 38.667 -8.66699 69.334 -26 92.001s-38.5 38.834 -63.5 48.501s-49.5 14.5 -73.5 14.5c-12.667 0 -20.834 -0.166992 -24.501 -0.5s-12.5 -1.5 -26.5 -3.5l-10 49c54 13.333 94.167 28.666 120.5 45.999s43.5 35.5 51.5 54.5s12 36.5 12 52.5
c0 27.333 -8.33301 52.5 -25 75.5s-45 34.5 -85 34.5c-31.333 0 -55.666 -8.66699 -72.999 -26s-22.666 -39.666 -15.999 -66.999c-17.333 -8 -38.166 -14.5 -62.499 -19.5s-47.5 -8.5 -69.5 -10.5l-20 25c0 22.667 12.667 46.667 38 72s59.166 47.166 101.499 65.499
s89.5 27.5 141.5 27.5c76.667 0 132.167 -17.5 166.5 -52.5s51.5 -72.833 51.5 -113.5c0 -30 -13.333 -60.167 -40 -90.5s-62.667 -52.166 -108 -65.499c54.667 -5.33301 99.834 -26.166 135.501 -62.499s53.5 -78.833 53.5 -127.5z" />
    <glyph glyph-name="acute" unicode="&#xb4;" horiz-adv-x="653" 
d="M279 1045c-12 2 -24.167 6.50098 -36.5 13.501s-22.5 13.5 -30.5 19.5l227 419c10 -0.666992 26.833 -2.83398 50.5 -6.50098l71 -11.5c23.667 -4 40.5 -7.33301 50.5 -10l26 -44z" />
    <glyph glyph-name="mu" unicode="&#xb5;" horiz-adv-x="1125" 
d="M1110 87l-86 -53.502c-30.667 -18.333 -60 -33.666 -88 -45.999s-50.667 -18.5 -68 -18.5c-34 0 -58.333 25 -73 75s-22 107.333 -22 172v62v128v150v128.5v63.5c0 21.333 -4.16699 48.833 -12.5 82.5s-16.833 56.834 -25.5 69.501c31.333 7.33301 65.333 16.333 102 27
s70.334 21.667 101.001 33l31 -41l-9.5 -62c-3.66699 -24 -5.83398 -56.667 -6.50098 -98v-54v-113.5v-134v-117.5v-62c0 -62 3 -104.833 9 -128.5s16 -35.5 30 -35.5s29.167 2.33301 45.5 7s35.5 11.667 57.5 21zM834 256.998
c-65.333 -97.333 -126.83 -169.667 -184.497 -217s-109.834 -71 -156.501 -71c-45.333 0 -92 21 -140 63s-88.333 99 -121 171s-49 153.333 -49 244v48.5v90.5v89v44c0 34 -1.83301 59.167 -5.5 75.5s-14.334 27.666 -32.001 33.999s-47.5 11.5 -89.5 15.5v50
c54.667 8 102.667 16.5 144 25.5s82 22.5 122 40.5c0.666992 0 6.16699 -5.83301 16.5 -17.5l24.5 -27.5v-57.5v-133.5v-158.5v-135v-59.5c0 -33.333 7.66699 -67.666 23 -102.999s36.166 -64.833 62.499 -88.5s55.5 -35.5 87.5 -35.5c24 0 49.833 4.5 77.5 13.5
s58.167 28.833 91.5 59.5s71.333 77.667 114 141zM279.003 458.997c-3.33301 -40.667 -4.50098 -77.834 -3.50098 -111.501s2.33301 -69.334 4 -107.001s2.16699 -82.5 1.5 -134.5c-1.33301 -139.333 13.834 -251.166 45.501 -335.499s65.834 -147.5 102.501 -189.5
c-13.333 -4 -34.333 -11.5 -63 -22.5l-84.5 -33.5c-27.667 -11.333 -46.834 -19.666 -57.501 -24.999l-41 32v64v150v201.5v220.5v207v160.5v79.5l22 -28c14.667 -18.667 30 -40.167 46 -64.5s25.333 -45.5 28 -63.5z" />
    <glyph glyph-name="paragraph" unicode="&#xb6;" horiz-adv-x="1170" 
d="M1023 1260l-21.4971 -19.998l-51 -45.5c-19.667 -17 -37.334 -31.5 -53.001 -43.5s-24.834 -16.667 -27.501 -14c-43.333 16.667 -88 29.167 -134 37.5s-88.833 14 -128.5 17s-71.5 4.5 -95.5 4.5c-50 0 -95.333 -11.167 -136 -33.5s-73 -52.833 -97 -91.5
s-36 -83 -36 -133c0 -48 10.833 -96.833 32.5 -146.5s55.667 -91 102 -124s106.166 -49.5 179.499 -49.5c43.333 0 74.333 1.33301 93 4l28 4l8 -65l-35 -18.5c-23.333 -12.333 -69 -18.5 -137 -18.5c-86.667 0 -165.5 14.167 -236.5 42.5s-127.667 70.666 -170 126.999
s-63.5 126.166 -63.5 209.499c0 76 20 143 60 201s95.5 103.5 166.5 136.5s153.5 49.5 247.5 49.5c23.333 0 55.5 -1 96.5 -3s84.833 -4.5 131.5 -7.5s91.167 -6 133.5 -9l103.5 -7.5zM457.003 -249.998v53.002c45.333 9.33301 80.5 19.666 105.5 30.999
s37.5 21.666 37.5 30.999l2 1346c0 5.33301 -5.33301 6.16602 -16 2.49902s-26.834 -7.16699 -48.501 -10.5s-48.834 -2 -81.501 4v53h637v-53c-45.333 -9.33301 -80.666 -19.666 -105.999 -30.999s-38 -21.666 -38 -30.999v-1280c0 -8.66699 11.833 -18.834 35.5 -30.501
s59.834 -22.167 108.501 -31.5v-53h-636zM816.003 1194l-80 19v-1348c0 -7.33301 5 -13.833 15 -19.5s18 -9.5 24 -11.5c8 2 16.833 5.83301 26.5 11.5s14.5 12.167 14.5 19.5v1329z" />
    <glyph glyph-name="periodcentered" unicode="&#xb7;" horiz-adv-x="340" 
d="M290 717c0 -42.667 -13.167 -77.667 -39.5 -105s-58.833 -41 -97.5 -41c-68.667 0 -103 35.667 -103 107c0 42 13.5 76.833 40.5 104.5s58.833 41.5 95.5 41.5c31.333 0 56.5 -8.83301 75.5 -26.5s28.5 -44.5 28.5 -80.5z" />
    <glyph glyph-name="cedilla" unicode="&#xb8;" horiz-adv-x="469" 
d="M423 -229c0 -49.333 -27.333 -93.833 -82 -133.5s-135.667 -66.834 -243 -81.501l-27 57c65.333 10.667 112 26.834 140 48.501s42 43.5 42 65.5s-8.5 37.667 -25.5 47s-44.167 16 -81.5 20l7.5 18c5 12 13.833 36.5 26.5 73.5l55 166.5l93 -2l-52 -149
c40 -8 74.5 -22.333 103.5 -43s43.5 -49.667 43.5 -87z" />
    <glyph glyph-name="onesuperior" unicode="&#xb9;" horiz-adv-x="690" 
d="M116 620l-0.00195312 45.998c72.667 7.33301 121 16 145 26s36 19.333 36 28v451c0 31.333 -4.33301 51 -13 59c-5.33301 4.66699 -20.166 7.16699 -44.499 7.5s-67.5 -5.16699 -129.5 -16.5l-16 44c26 6 59.833 15.333 101.5 28s82.667 25.834 123 39.501
s70.833 25.167 91.5 34.5l28 -22v-625c0 -8 10.333 -17.167 31 -27.5s66.334 -19.166 137.001 -26.499v-46h-490z" />
    <glyph glyph-name="ordmasculine" unicode="&#xba;" horiz-adv-x="577" 
d="M532 990c0 -46 -12.5 -89.832 -37.5 -131.499s-57.333 -75.834 -97 -102.501s-81.167 -40 -124.5 -40c-68.667 0 -124 24 -166 72s-63 108.333 -63 181c0 46.667 11.5 91 34.5 133s54 76.167 93 102.5s82.833 39.5 131.5 39.5c67.333 0 122.333 -24.333 165 -73
s64 -109 64 -181zM56 586.001v78h465v-78h-465zM424 971.001c0 56 -14.168 105.332 -42.501 147.999s-63.833 64 -106.5 64c-40 0 -70.5 -18.667 -91.5 -56s-31.5 -84.333 -31.5 -141c0 -56 15.333 -105 46 -147s65.334 -63 104.001 -63c37.333 0 67 18.333 89 55
s33 83.334 33 140.001z" />
    <glyph glyph-name="guillemotright" unicode="&#xbb;" horiz-adv-x="1014" 
d="M556 429l-373 -417l-48 35l221 419l-220 417l47 35l372 -416zM939 429l-373 -417l-48 35l221 419l-221 417l48 35l372 -416z" />
    <glyph glyph-name="onequarter" unicode="&#xbc;" horiz-adv-x="1225" 
d="M321 3c-15.333 -7.33301 -32.167 -13.501 -50.5 -18.501l-54.5 -14.5l-25 30l804 1203c13.333 5.33301 30 11.333 50 18s37.333 11.334 52 14.001l25 -28zM1153 211.999c-8 -10.667 -16.168 -20.166 -24.501 -28.499s-16.5 -15.166 -24.5 -20.499h-31v-102
c0 -5.33301 4.33301 -10 13 -14s28.334 -9 59.001 -15v-32h-292v32c48.667 6.66699 79.667 12.667 93 18s20 10.666 20 15.999v97h-275l-21 17l278 382c16 6 34 12.167 54 18.5s36.333 12.166 49 17.499l22 -18v-353h65zM965.998 484l-194 -257h194v257zM93.998 637v37.001
c58.667 6 97.667 12.833 117 20.5s29 15.167 29 22.5v360c0 26 -3.33301 41.667 -10 47c-4.66699 4 -16.834 6.16699 -36.501 6.5s-54.167 -4.16699 -103.5 -13.5l-13 36c20.667 4.66699 47.834 12 81.501 22s66.667 20.667 99 32s57.166 20.666 74.499 27.999l21 -18v-500
c0 -6.66699 8.33301 -14 25 -22s53.334 -15 110.001 -21v-37h-394z" />
    <glyph glyph-name="onehalf" unicode="&#xbd;" horiz-adv-x="1225" 
d="M314 3c-15.333 -7.33301 -32.167 -13.501 -50.5 -18.501l-54.5 -14.5l-25 30l804 1203c13.333 5.33301 30 11.333 50 18s37.333 11.334 52 14.001l25 -28zM93.999 636.999v37.001c58.667 6 97.667 12.833 117 20.5s29 15.167 29 22.5v360c0 26 -3.33301 41.667 -10 47
c-4.66699 4 -16.834 6.16699 -36.501 6.5s-54.167 -4.16699 -103.5 -13.5l-13 36c20.667 4.66699 47.834 12 81.501 22s66.667 20.667 99 32s57.166 20.666 74.499 27.999l21 -18v-500c0 -6.66699 8.33301 -14 25 -22s53.334 -15 110.001 -21v-37h-394zM1141 0
l-422.998 0.00195312l-16 35c88.667 88.667 156.167 158.334 202.5 209.001s77.833 90.5 94.5 119.5s25 55.5 25 79.5c0 28.667 -7.5 51.667 -22.5 69s-40.167 26 -75.5 26c-29.333 0 -52 -9.5 -68 -28.5s-23.333 -40.167 -22 -63.5
c-12.667 -6.66699 -28.667 -12.334 -48 -17.001s-37.333 -7.66699 -54 -9l-17 20c0 22.667 11.667 45.667 35 69s53.666 43.166 90.999 59.499s77.666 24.5 120.999 24.5c52.667 0 95.334 -10.833 128.001 -32.5s49 -54.5 49 -98.5c0 -28.667 -9.5 -58.334 -28.5 -89.001
s-51 -69.334 -96 -116.001l-184.5 -184h220c16.667 0 29.167 6.83301 37.5 20.5s13.666 27.334 15.999 41.001l3.5 20.5l40 -6z" />
    <glyph glyph-name="threequarters" unicode="&#xbe;" horiz-adv-x="1225" 
d="M314 3c-16 -7.33301 -33.167 -13.501 -51.5 -18.501l-54.5 -14.5l-25 30l805 1203c12.667 5.33301 29 11.333 49 18s37.333 11.334 52 14.001l25 -28zM524 820.999c0 -54 -21.998 -100.499 -65.998 -139.499s-102.667 -58.5 -176 -58.5
c-32.667 0 -67.5 6.33301 -104.5 19s-72.5 33 -106.5 61l20 37c34 -21.333 64.667 -36 92 -44s55 -12 83 -12c40.667 0 73.834 10.167 99.501 30.5s38.5 50.833 38.5 91.5c0 46.667 -14.5 79 -43.5 97s-58.167 27 -87.5 27c-10 0 -16.333 -0.166992 -19 -0.5
s-10 -1.5 -22 -3.5l-7 40c65.333 15.333 106.166 34.666 122.499 57.999s24.5 45 24.5 65c0 22 -6.66699 41.833 -20 59.5s-36 26.5 -68 26.5c-25.333 0 -45 -6.66699 -59 -20s-18.333 -31 -13 -53c-13.333 -6 -29.833 -11.167 -49.5 -15.5s-38.5 -7.16602 -56.5 -8.49902
l-16 21c0 17.333 10.167 36.166 30.5 56.499s47.666 37.833 81.999 52.5s72.166 22 113.499 22c61.333 0 105.833 -14 133.5 -42s41.5 -58.333 41.5 -91c0 -24 -10.667 -48 -32 -72s-50 -41.333 -86 -52c44 -4.66699 80.167 -21.5 108.5 -50.5s42.5 -62.833 42.5 -101.5z
M1153 212c-8 -10.667 -16.168 -20.166 -24.501 -28.499s-16.5 -15.166 -24.5 -20.499h-31v-102c0 -5.33301 4.33301 -10 13 -14s28.334 -9 59.001 -15v-32h-292v32c48.667 6.66699 79.667 12.667 93 18s20 10.666 20 15.999v97h-275l-21 17l278 382c16 6 34 12.167 54 18.5
s36.333 12.166 49 17.499l22 -18v-353h65zM966.001 484.001l-194 -257h194v257z" />
    <glyph glyph-name="questiondown" unicode="&#xbf;" horiz-adv-x="902" 
d="M608 841c0 -48 -15.333 -87.833 -46 -119.5s-67 -47.5 -109 -47.5c-34.667 0 -62.167 10.167 -82.5 30.5s-30.5 50.833 -30.5 91.5c0 48 14.833 87.333 44.5 118s65.5 46 107.5 46c77.333 0 116 -39.667 116 -119zM427 523c19.333 17.333 46.667 31.001 82 41.001l28 -23
l6 -114c3.33301 -46 -3.66699 -91 -21 -135s-39.666 -87.333 -66.999 -130l-82.5 -125.5c-27.667 -41 -51 -81.333 -70 -121s-28.5 -78.5 -28.5 -116.5c0 -82 16.833 -145.167 50.5 -189.5s81.5 -66.5 143.5 -66.5c43.333 0 81.333 18.667 114 56s49 82.333 49 135
c0 10 -1.33301 20.167 -4 30.5s-6 20.166 -10 29.499c22 12 49.833 22.167 83.5 30.5s65.5 13.5 95.5 15.5l29 -33c1.33301 -5.33301 2 -11.666 2 -18.999v-18c0 -63.333 -20.167 -119.833 -60.5 -169.5s-93.5 -88.667 -159.5 -117s-137.333 -42.5 -214 -42.5
c-102.667 0 -181.334 29.167 -236.001 87.5s-82 133.5 -82 225.5c0 60.667 11 114.334 33 161.001s49.5 90 82.5 130l100.5 117.5c34 38.333 63.167 78.666 87.5 120.999s38.5 90.166 42.5 143.499z" />
    <glyph glyph-name="Agrave" unicode="&#xc0;" horiz-adv-x="1242" 
d="M385 440l-106.002 -318.999c-6.66699 -20.667 2 -35.667 26 -45s63.333 -17 118 -23v-53h-423v53c45.333 8 81 16.333 107 25s42.333 23 49 43l364 1106c20.667 20 45.334 37.5 74.001 52.5s54.667 27.5 78 37.5l420 -1196c6.66699 -18.667 19 -33.334 37 -44.001
s48.667 -18.667 92 -24v-53h-447v53c51.333 3.33301 86.833 10 106.5 20s25.834 26 18.501 48l-110 319h-404zM753.998 540.001l-172 498l-164 -498h336zM791.998 1417c-8.66699 -12.667 -16.832 -23.5 -24.499 -32.5s-17.167 -16.167 -28.5 -21.5l-479 247l8 51
c6.66699 6 19.667 14.667 39 26s39.166 22.333 59.499 33l45.5 24z" />
    <glyph glyph-name="Aacute" unicode="&#xc1;" horiz-adv-x="1242" 
d="M385 440l-106.002 -318.999c-6.66699 -20.667 2 -35.667 26 -45s63.333 -17 118 -23v-53h-423v53c45.333 8 81 16.333 107 25s42.333 23 49 43l364 1106c20.667 20 45.334 37.5 74.001 52.5s54.667 27.5 78 37.5l420 -1196c6.66699 -18.667 19 -33.334 37 -44.001
s48.667 -18.667 92 -24v-53h-447v53c51.333 3.33301 86.833 10 106.5 20s25.834 26 18.501 48l-110 319h-404zM753.998 540.001l-172 498l-164 -498h336zM473.998 1364c-11.333 5.33301 -20.999 12.6689 -28.999 22.002s-16 19.666 -24 30.999l381 325
c9.33301 -4.66699 24.166 -12.5 44.499 -23.5l60 -34c19.667 -11.667 33.167 -20.834 40.5 -27.501l9 -51z" />
    <glyph glyph-name="Acircumflex" unicode="&#xc2;" horiz-adv-x="1242" 
d="M385 440l-106.002 -318.999c-6.66699 -20.667 2 -35.667 26 -45s63.333 -17 118 -23v-53h-423v53c45.333 8 81 16.333 107 25s42.333 23 49 43l364 1106c20.667 20 45.334 37.5 74.001 52.5s54.667 27.5 78 37.5l420 -1196c6.66699 -18.667 19 -33.334 37 -44.001
s48.667 -18.667 92 -24v-53h-447v53c51.333 3.33301 86.833 10 106.5 20s25.834 26 18.501 48l-110 319h-404zM753.998 540.001l-172 498l-164 -498h336zM933.998 1417c-8 -12.667 -15.1689 -23.334 -21.502 -32.001s-15.166 -15.334 -26.499 -20.001l-276 195l-274 -195
c-10.667 4.66699 -19.667 11.334 -27 20.001s-15.666 19.334 -24.999 32.001l269 317h117z" />
    <glyph glyph-name="Atilde" unicode="&#xc3;" horiz-adv-x="1242" 
d="M385 440l-106.002 -318.999c-6.66699 -20.667 2 -35.667 26 -45s63.333 -17 118 -23v-53h-423v53c45.333 8 81 16.333 107 25s42.333 23 49 43l364 1106c20.667 20 45.334 37.5 74.001 52.5s54.667 27.5 78 37.5l420 -1196c6.66699 -18.667 19 -33.334 37 -44.001
s48.667 -18.667 92 -24v-53h-447v53c51.333 3.33301 86.833 10 106.5 20s25.834 26 18.501 48l-110 319h-404zM753.998 540.001l-172 498l-164 -498h336zM968.998 1634c-15.333 -36 -35.332 -72.835 -59.999 -110.502s-52.834 -69.167 -84.501 -94.5
s-65.834 -38 -102.501 -38c-33.333 0 -64.833 9.16699 -94.5 27.5l-87 55c-28.333 18.333 -56.5 27.5 -84.5 27.5s-52.833 -10.5 -74.5 -31.5s-44.5 -50.167 -68.5 -87.5l-61 23c16 36 36.167 72.833 60.5 110.5s52.333 69.334 84 95.001s65.834 38.5 102.501 38.5
c36 0 69.5 -9.16699 100.5 -27.5s60 -36.666 87 -54.999s52.5 -27.5 76.5 -27.5c50 0 98.333 40 145 120z" />
    <glyph glyph-name="Adieresis" unicode="&#xc4;" horiz-adv-x="1242" 
d="M385 440l-106.002 -318.999c-6.66699 -20.667 2 -35.667 26 -45s63.333 -17 118 -23v-53h-423v53c45.333 8 81 16.333 107 25s42.333 23 49 43l364 1106c20.667 20 45.334 37.5 74.001 52.5s54.667 27.5 78 37.5l420 -1196c6.66699 -18.667 19 -33.334 37 -44.001
s48.667 -18.667 92 -24v-53h-447v53c51.333 3.33301 86.833 10 106.5 20s25.834 26 18.501 48l-110 319h-404zM753.998 540.001l-172 498l-164 -498h336zM518.998 1543c0 -41.333 -12.501 -76.667 -37.501 -106s-55.5 -44 -91.5 -44c-64 0 -96 35 -96 105
c0 41.333 12.833 76.5 38.5 105.5s55.834 43.5 90.501 43.5c64 0 96 -34.667 96 -104zM926.997 1543c0 -41.333 -12.501 -76.667 -37.501 -106s-55.833 -44 -92.5 -44c-63.333 0 -95 35 -95 105c0 41.333 12.833 76.5 38.5 105.5s55.834 43.5 90.501 43.5
c64 0 96 -34.667 96 -104z" />
    <glyph glyph-name="Aring" unicode="&#xc5;" horiz-adv-x="1242" 
d="M385 440l-106.002 -318.999c-6.66699 -20.667 2 -35.667 26 -45s63.333 -17 118 -23v-53h-423v53c45.333 8 81 16.333 107 25s42.333 23 49 43l364 1106c20.667 20 45.334 37.5 74.001 52.5s54.667 27.5 78 37.5l420 -1196c6.66699 -18.667 19 -33.334 37 -44.001
s48.667 -18.667 92 -24v-53h-447v53c51.333 3.33301 86.833 10 106.5 20s25.834 26 18.501 48l-110 319h-404zM753.998 540.001l-172 498l-164 -498h336zM804.998 1612c0 -46 -11.3359 -87.333 -34.0029 -124s-51.167 -65.5 -85.5 -86.5s-69.5 -31.5 -105.5 -31.5
c-47.333 0 -86.166 15.5 -116.499 46.5s-45.5 69.5 -45.5 115.5s11 87.333 33 124s50.167 65.667 84.5 87s69.833 32 106.5 32c46.667 0 85.334 -15.833 116.001 -47.5s46.334 -70.167 47.001 -115.5zM699.995 1571c0 32 -7.50195 58.833 -22.502 80.5
s-33.833 32.5 -56.5 32.5c-27.333 0 -50.5 -10.5 -69.5 -31.5s-28.5 -47.5 -28.5 -79.5c0 -30.667 7.33301 -57 22 -79s33.334 -33 56.001 -33c26.667 0 49.834 9.66699 69.501 29s29.5 46.333 29.5 81z" />
    <glyph glyph-name="AE" unicode="&#xc6;" horiz-adv-x="1615" 
d="M1560 264c-6 -57.333 -13.1709 -110.828 -21.5039 -160.495s-15.166 -84.167 -20.499 -103.5h-889v53c93.333 18.667 140 39 140 61v528h-264l-212 -521c-8.66699 -19.333 -3.5 -34 15.5 -44s54.833 -18 107.5 -24v-53h-416v53
c43.333 7.33301 77.666 15.666 102.999 24.999s42.333 23.666 51 42.999l405 1002c9.33301 22.667 -1.66699 39.167 -33 49.5s-79.666 21.833 -144.999 34.5v53h530h168h382l32 -27c-1.33301 -22.667 -4 -49.834 -8 -81.501s-8.83301 -62.167 -14.5 -91.5
s-11.834 -52.666 -18.501 -69.999h-55c-2.66699 61.333 -10.5 105 -23.5 131s-32.5 39 -58.5 39h-356v-425h403l29 -30c-11.333 -18.667 -26 -40.334 -44 -65.001s-34 -42.334 -48 -53.001c-36.667 36.667 -94.667 55 -174 55h-166v-478c0 -12.667 5 -23.834 15 -33.501
s29.833 -17.167 59.5 -22.5s73.834 -8 132.501 -8h118c40.667 0 73.834 4.5 99.501 13.5s47.834 26.833 66.501 53.5s37.334 66 56.001 118zM768.996 1138c0 14.667 -9.83301 21.332 -29.5 19.999s-34.167 -13.666 -43.5 -36.999l-154 -386h227v403z" />
    <glyph glyph-name="Ccedilla" unicode="&#xc7;" horiz-adv-x="1113" 
d="M1036 211c-85.333 -90 -165.5 -152.665 -240.5 -187.998s-148.167 -53 -219.5 -53c-63.333 0 -125.5 13.833 -186.5 41.5s-115.833 68 -164.5 121s-87.5 117.667 -116.5 194s-43.5 162.833 -43.5 259.5c0 142 27.833 265.667 83.5 371s130.167 187.166 223.5 245.499
s196.333 87.5 309 87.5c71.333 0 136.5 -9.83301 195.5 -29.5s105.833 -43.167 140.5 -70.5c4.66699 -4 1 -16.5 -11 -37.5s-26.5 -42.833 -43.5 -65.5s-30.5 -39.334 -40.5 -50.001l-45 9c-34 40 -74 71.167 -120 93.5s-97.667 33.5 -155 33.5
c-34 0 -71.167 -9.33301 -111.5 -28s-78.5 -49.167 -114.5 -91.5s-65.5 -98.666 -88.5 -168.999s-34.5 -157.5 -34.5 -261.5c0 -116.667 20.667 -213.334 62 -290.001s93 -133.834 155 -171.501s124 -56.5 186 -56.5c36 0 83.167 11.333 141.5 34
s123.833 64.334 196.5 125.001c6.66699 -4 14.667 -12.5 24 -25.5s15.333 -22.167 18 -27.5zM772 -228.998c0 -49.333 -27.334 -93.833 -82.001 -133.5s-135.667 -66.834 -243 -81.501l-27 57c65.333 10.667 112 26.834 140 48.501s42 43.5 42 65.5s-8.5 37.667 -25.5 47
s-44.167 16 -81.5 20l7 18c4.66699 12 13.334 36.5 26.001 73.5l55 166.5l93 -2l-51 -149c40 -8 74.5 -22.333 103.5 -43s43.5 -49.667 43.5 -87z" />
    <glyph glyph-name="Egrave" unicode="&#xc8;" horiz-adv-x="1036" 
d="M914 1233c-1.33301 -22.667 -4.16504 -49.834 -8.49805 -81.501s-9.5 -62.167 -15.5 -91.5s-11.667 -52.666 -17 -69.999h-55c-2.66699 61.333 -10.834 105 -24.501 131s-32.834 39 -57.501 39h-408l29 100h522zM811.001 705
c-10.667 -18.667 -24.999 -40.167 -42.999 -64.5s-34.333 -41.5 -49 -51.5c-20.667 19.333 -44.834 33.333 -72.501 42s-69.5 13 -125.5 13h-207l22 91h447zM979.002 264c-4.66699 -57.333 -11.335 -110.832 -20.002 -160.499s-15.667 -84.167 -21 -103.5h-890v53
c44.667 9.33301 79.5 19.666 104.5 30.999s37.5 21.333 37.5 30v1031c0 8 -11.667 18 -35 30s-59 22.667 -107 32v53h477v-53c-44.667 -4.66699 -80 -10.167 -106 -16.5s-39 -14.166 -39 -23.499v-1003c0 -12.667 4.83301 -23.834 14.5 -33.501s29 -17.167 58 -22.5
s72.833 -8 131.5 -8h119c41.333 0 74.833 4.5 100.5 13.5s47.834 26.833 66.501 53.5s37.334 66 56.001 118zM695.001 1417c-8.66699 -12.667 -16.832 -23.5 -24.499 -32.5s-17.167 -16.167 -28.5 -21.5l-479 247l8 51c6.66699 6 19.667 14.667 39 26
s39.166 22.333 59.499 33l45.5 24z" />
    <glyph glyph-name="Eacute" unicode="&#xc9;" horiz-adv-x="1036" 
d="M914 1233c-1.33301 -22.667 -4.16504 -49.834 -8.49805 -81.501s-9.5 -62.167 -15.5 -91.5s-11.667 -52.666 -17 -69.999h-55c-2.66699 61.333 -10.834 105 -24.501 131s-32.834 39 -57.501 39h-408l29 100h522zM811.001 705
c-10.667 -18.667 -24.999 -40.167 -42.999 -64.5s-34.333 -41.5 -49 -51.5c-20.667 19.333 -44.834 33.333 -72.501 42s-69.5 13 -125.5 13h-207l22 91h447zM979.002 264c-4.66699 -57.333 -11.335 -110.832 -20.002 -160.499s-15.667 -84.167 -21 -103.5h-890v53
c44.667 9.33301 79.5 19.666 104.5 30.999s37.5 21.333 37.5 30v1031c0 8 -11.667 18 -35 30s-59 22.667 -107 32v53h477v-53c-44.667 -4.66699 -80 -10.167 -106 -16.5s-39 -14.166 -39 -23.499v-1003c0 -12.667 4.83301 -23.834 14.5 -33.501s29 -17.167 58 -22.5
s72.833 -8 131.5 -8h119c41.333 0 74.833 4.5 100.5 13.5s47.834 26.833 66.501 53.5s37.334 66 56.001 118zM377.001 1364c-11.333 5.33301 -20.999 12.6689 -28.999 22.002s-16 19.666 -24 30.999l381 325c9.33301 -4.66699 24.166 -12.5 44.499 -23.5l60 -34
c19.667 -11.667 33.167 -20.834 40.5 -27.501l9 -51z" />
    <glyph glyph-name="Ecircumflex" unicode="&#xca;" horiz-adv-x="1036" 
d="M914 1233c-1.33301 -22.667 -4.16504 -49.834 -8.49805 -81.501s-9.5 -62.167 -15.5 -91.5s-11.667 -52.666 -17 -69.999h-55c-2.66699 61.333 -10.834 105 -24.501 131s-32.834 39 -57.501 39h-408l29 100h522zM811.001 705
c-10.667 -18.667 -24.999 -40.167 -42.999 -64.5s-34.333 -41.5 -49 -51.5c-20.667 19.333 -44.834 33.333 -72.501 42s-69.5 13 -125.5 13h-207l22 91h447zM979.002 264c-4.66699 -57.333 -11.335 -110.832 -20.002 -160.499s-15.667 -84.167 -21 -103.5h-890v53
c44.667 9.33301 79.5 19.666 104.5 30.999s37.5 21.333 37.5 30v1031c0 8 -11.667 18 -35 30s-59 22.667 -107 32v53h477v-53c-44.667 -4.66699 -80 -10.167 -106 -16.5s-39 -14.166 -39 -23.499v-1003c0 -12.667 4.83301 -23.834 14.5 -33.501s29 -17.167 58 -22.5
s72.833 -8 131.5 -8h119c41.333 0 74.833 4.5 100.5 13.5s47.834 26.833 66.501 53.5s37.334 66 56.001 118zM837.001 1417c-8 -12.667 -15.1689 -23.334 -21.502 -32.001s-15.166 -15.334 -26.499 -20.001l-276 195l-274 -195c-10.667 4.66699 -19.667 11.334 -27 20.001
s-15.666 19.334 -24.999 32.001l269 317h117z" />
    <glyph glyph-name="Edieresis" unicode="&#xcb;" horiz-adv-x="1036" 
d="M914 1233c-1.33301 -22.667 -4.16504 -49.834 -8.49805 -81.501s-9.5 -62.167 -15.5 -91.5s-11.667 -52.666 -17 -69.999h-55c-2.66699 61.333 -10.834 105 -24.501 131s-32.834 39 -57.501 39h-408l29 100h522zM811.001 705
c-10.667 -18.667 -24.999 -40.167 -42.999 -64.5s-34.333 -41.5 -49 -51.5c-20.667 19.333 -44.834 33.333 -72.501 42s-69.5 13 -125.5 13h-207l22 91h447zM979.002 264c-4.66699 -57.333 -11.335 -110.832 -20.002 -160.499s-15.667 -84.167 -21 -103.5h-890v53
c44.667 9.33301 79.5 19.666 104.5 30.999s37.5 21.333 37.5 30v1031c0 8 -11.667 18 -35 30s-59 22.667 -107 32v53h477v-53c-44.667 -4.66699 -80 -10.167 -106 -16.5s-39 -14.166 -39 -23.499v-1003c0 -12.667 4.83301 -23.834 14.5 -33.501s29 -17.167 58 -22.5
s72.833 -8 131.5 -8h119c41.333 0 74.833 4.5 100.5 13.5s47.834 26.833 66.501 53.5s37.334 66 56.001 118zM422.001 1543c0 -41.333 -12.501 -76.667 -37.501 -106s-55.5 -44 -91.5 -44c-64 0 -96 35 -96 105c0 41.333 12.833 76.5 38.5 105.5s55.834 43.5 90.501 43.5
c64 0 96 -34.667 96 -104zM830 1543c0 -41.333 -12.501 -76.667 -37.501 -106s-55.833 -44 -92.5 -44c-63.333 0 -95 35 -95 105c0 41.333 12.833 76.5 38.5 105.5s55.834 43.5 90.501 43.5c64 0 96 -34.667 96 -104z" />
    <glyph glyph-name="Igrave" unicode="&#xcc;" horiz-adv-x="630" 
d="M68 0v52.999c44.667 9.33301 79.5 19.666 104.5 30.999s37.5 21.333 37.5 30v1031c0 8 -11.667 18 -35 30s-59 22.667 -107 32v53h475v-53c-45.333 -9.33301 -80.5 -19.666 -105.5 -30.999s-37.5 -21.666 -37.5 -30.999v-1031c0 -8 11.833 -17.833 35.5 -29.5
s59.5 -22.167 107.5 -31.5v-53h-475zM486 1417c-8.66699 -12.667 -16.832 -23.5 -24.499 -32.5s-17.167 -16.167 -28.5 -21.5l-479 247l8 51c6.66699 6 19.667 14.667 39 26s39.166 22.333 59.499 33l45.5 24z" />
    <glyph glyph-name="Iacute" unicode="&#xcd;" horiz-adv-x="630" 
d="M68 0v52.999c44.667 9.33301 79.5 19.666 104.5 30.999s37.5 21.333 37.5 30v1031c0 8 -11.667 18 -35 30s-59 22.667 -107 32v53h475v-53c-45.333 -9.33301 -80.5 -19.666 -105.5 -30.999s-37.5 -21.666 -37.5 -30.999v-1031c0 -8 11.833 -17.833 35.5 -29.5
s59.5 -22.167 107.5 -31.5v-53h-475zM168 1364c-11.333 5.33301 -20.999 12.6689 -28.999 22.002s-16 19.666 -24 30.999l381 325c9.33301 -4.66699 24.166 -12.5 44.499 -23.5l60 -34c19.667 -11.667 33.167 -20.834 40.5 -27.501l9 -51z" />
    <glyph glyph-name="Icircumflex" unicode="&#xce;" horiz-adv-x="630" 
d="M68 0v52.999c44.667 9.33301 79.5 19.666 104.5 30.999s37.5 21.333 37.5 30v1031c0 8 -11.667 18 -35 30s-59 22.667 -107 32v53h475v-53c-45.333 -9.33301 -80.5 -19.666 -105.5 -30.999s-37.5 -21.666 -37.5 -30.999v-1031c0 -8 11.833 -17.833 35.5 -29.5
s59.5 -22.167 107.5 -31.5v-53h-475zM628 1417c-8 -12.667 -15.1689 -23.334 -21.502 -32.001s-15.166 -15.334 -26.499 -20.001l-276 195l-274 -195c-10.667 4.66699 -19.667 11.334 -27 20.001s-15.666 19.334 -24.999 32.001l269 317h117z" />
    <glyph glyph-name="Idieresis" unicode="&#xcf;" horiz-adv-x="630" 
d="M68 0v52.999c44.667 9.33301 79.5 19.666 104.5 30.999s37.5 21.333 37.5 30v1031c0 8 -11.667 18 -35 30s-59 22.667 -107 32v53h475v-53c-45.333 -9.33301 -80.5 -19.666 -105.5 -30.999s-37.5 -21.666 -37.5 -30.999v-1031c0 -8 11.833 -17.833 35.5 -29.5
s59.5 -22.167 107.5 -31.5v-53h-475zM213 1543c0 -41.333 -12.501 -76.667 -37.501 -106s-55.5 -44 -91.5 -44c-64 0 -96 35 -96 105c0 41.333 12.833 76.5 38.5 105.5s55.834 43.5 90.501 43.5c64 0 96 -34.667 96 -104zM620.999 1543
c0 -41.333 -12.501 -76.667 -37.501 -106s-55.833 -44 -92.5 -44c-63.333 0 -95 35 -95 105c0 41.333 12.833 76.5 38.5 105.5s55.834 43.5 90.501 43.5c64 0 96 -34.667 96 -104z" />
    <glyph glyph-name="Eth" unicode="&#xd0;" horiz-adv-x="1244" 
d="M629 615h-580l-22 25c7.33301 24 16 49 26 75h580l25 -23zM48 0l-0.000976562 53.001c44.667 9.33301 79.5 19.666 104.5 30.999s37.5 21.333 37.5 30v1065l-142 -21l-11 72c40.667 11.333 89.834 21.5 147.501 30.5s117.5 16.167 179.5 21.5s120 8 174 8
c192 0 343 -54 453 -162s165 -258.667 165 -452c0 -124.667 -18.167 -230.167 -54.5 -316.5s-83.333 -156 -141 -209s-120.167 -91.333 -187.5 -115s-132 -35.5 -194 -35.5h-66h-139.5h-129h-162.5h-34zM551.999 92.001c43.333 0 88.332 10.832 134.999 32.499
s90.167 54.834 130.5 99.501s73 101.167 98 169.5s37.5 149.5 37.5 243.5c0 177.333 -41.5 315.333 -124.5 414s-202.167 148 -357.5 148c-29.333 0 -59.666 -1 -90.999 -3v-1037c0 -29.333 18.167 -47.833 54.5 -55.5s75.5 -11.5 117.5 -11.5z" />
    <glyph glyph-name="Ntilde" unicode="&#xd1;" horiz-adv-x="1339" 
d="M1293 1207c-48 -6.66699 -83.833 -16.333 -107.5 -29s-35.5 -23.667 -35.5 -33v-1113l-130 39v1074c0 8 -10.333 18.5 -31 31.5s-57.667 23.167 -111 30.5v53h415v-53zM1150 -29.999c-43.333 4.66699 -77.834 13.333 -103.501 26s-44.167 27 -55.5 43l-753 1044
c-27.333 38 -57.166 66.833 -89.499 86.5s-65.833 32.167 -100.5 37.5v53h234c19.333 0 34 -4.33301 44 -13s27.333 -30.334 52 -65.001l649 -896c9.33301 -13.333 23.833 -32.666 43.5 -57.999l54.5 -69l25 -31v-158zM47.999 0v53c48.667 6 84.5 15.5 107.5 28.5
s34.5 23.833 34.5 32.5v1072l130 35v-1107c0 -8 10.833 -18.333 32.5 -31s58.5 -22.667 110.5 -30v-53h-415zM1028 1634c-15.333 -36 -35.332 -72.835 -59.999 -110.502s-52.834 -69.167 -84.501 -94.5s-65.834 -38 -102.501 -38c-33.333 0 -64.833 9.16699 -94.5 27.5
l-87 55c-28.333 18.333 -56.5 27.5 -84.5 27.5s-52.833 -10.5 -74.5 -31.5s-44.5 -50.167 -68.5 -87.5l-61 23c16 36 36.167 72.833 60.5 110.5s52.333 69.334 84 95.001s65.834 38.5 102.501 38.5c36 0 69.5 -9.16699 100.5 -27.5s60 -36.666 87 -54.999
s52.5 -27.5 76.5 -27.5c50 0 98.333 40 145 120z" />
    <glyph glyph-name="Ograve" unicode="&#xd2;" horiz-adv-x="1244" 
d="M584 -30c-81.333 0 -154 17.499 -218 52.499s-118.333 82.5 -163 142.5s-78.5 128.5 -101.5 205.5s-34.5 157.5 -34.5 241.5c0 90.667 14.5 176.834 43.5 258.501s69.5 154 121.5 217s113 112.5 183 148.5s145.667 54 227 54c84.667 0 159.167 -18 223.5 -54
s118.333 -84.5 162 -145.5s76.667 -129.833 99 -206.5s33.5 -155.667 33.5 -237c0 -90.667 -15.333 -176.667 -46 -258s-72.667 -153.5 -126 -216.5s-114.5 -112.5 -183.5 -148.5s-142.5 -54 -220.5 -54zM618 94.999c103.333 0 188.166 44.834 254.499 134.501
s99.5 222.834 99.5 399.501c0 69.333 -8.66699 136.166 -26 200.499s-42.166 122.166 -74.499 173.499s-71 92 -116 122s-94.833 45 -149.5 45c-111.333 0 -197.833 -47.333 -259.5 -142s-92.5 -223.667 -92.5 -387c0 -99.333 16.667 -190.5 50 -273.5
s77.5 -149.167 132.5 -198.5s115.5 -74 181.5 -74zM806 1417c-8.66699 -12.667 -16.832 -23.5 -24.499 -32.5s-17.167 -16.167 -28.5 -21.5l-479 247l8 51c6.66699 6 19.667 14.667 39 26s39.166 22.333 59.499 33l45.5 24z" />
    <glyph glyph-name="Oacute" unicode="&#xd3;" horiz-adv-x="1244" 
d="M584 -30c-81.333 0 -154 17.499 -218 52.499s-118.333 82.5 -163 142.5s-78.5 128.5 -101.5 205.5s-34.5 157.5 -34.5 241.5c0 90.667 14.5 176.834 43.5 258.501s69.5 154 121.5 217s113 112.5 183 148.5s145.667 54 227 54c84.667 0 159.167 -18 223.5 -54
s118.333 -84.5 162 -145.5s76.667 -129.833 99 -206.5s33.5 -155.667 33.5 -237c0 -90.667 -15.333 -176.667 -46 -258s-72.667 -153.5 -126 -216.5s-114.5 -112.5 -183.5 -148.5s-142.5 -54 -220.5 -54zM618 94.999c103.333 0 188.166 44.834 254.499 134.501
s99.5 222.834 99.5 399.501c0 69.333 -8.66699 136.166 -26 200.499s-42.166 122.166 -74.499 173.499s-71 92 -116 122s-94.833 45 -149.5 45c-111.333 0 -197.833 -47.333 -259.5 -142s-92.5 -223.667 -92.5 -387c0 -99.333 16.667 -190.5 50 -273.5
s77.5 -149.167 132.5 -198.5s115.5 -74 181.5 -74zM488 1364c-11.333 5.33301 -20.999 12.6689 -28.999 22.002s-16 19.666 -24 30.999l381 325c9.33301 -4.66699 24.166 -12.5 44.499 -23.5l60 -34c19.667 -11.667 33.167 -20.834 40.5 -27.501l9 -51z" />
    <glyph glyph-name="Ocircumflex" unicode="&#xd4;" horiz-adv-x="1244" 
d="M584 -30c-81.333 0 -154 17.499 -218 52.499s-118.333 82.5 -163 142.5s-78.5 128.5 -101.5 205.5s-34.5 157.5 -34.5 241.5c0 90.667 14.5 176.834 43.5 258.501s69.5 154 121.5 217s113 112.5 183 148.5s145.667 54 227 54c84.667 0 159.167 -18 223.5 -54
s118.333 -84.5 162 -145.5s76.667 -129.833 99 -206.5s33.5 -155.667 33.5 -237c0 -90.667 -15.333 -176.667 -46 -258s-72.667 -153.5 -126 -216.5s-114.5 -112.5 -183.5 -148.5s-142.5 -54 -220.5 -54zM618 94.999c103.333 0 188.166 44.834 254.499 134.501
s99.5 222.834 99.5 399.501c0 69.333 -8.66699 136.166 -26 200.499s-42.166 122.166 -74.499 173.499s-71 92 -116 122s-94.833 45 -149.5 45c-111.333 0 -197.833 -47.333 -259.5 -142s-92.5 -223.667 -92.5 -387c0 -99.333 16.667 -190.5 50 -273.5
s77.5 -149.167 132.5 -198.5s115.5 -74 181.5 -74zM948 1417c-8 -12.667 -15.1689 -23.334 -21.502 -32.001s-15.166 -15.334 -26.499 -20.001l-276 195l-274 -195c-10.667 4.66699 -19.667 11.334 -27 20.001s-15.666 19.334 -24.999 32.001l269 317h117z" />
    <glyph glyph-name="Otilde" unicode="&#xd5;" horiz-adv-x="1244" 
d="M584 -30c-81.333 0 -154 17.499 -218 52.499s-118.333 82.5 -163 142.5s-78.5 128.5 -101.5 205.5s-34.5 157.5 -34.5 241.5c0 90.667 14.5 176.834 43.5 258.501s69.5 154 121.5 217s113 112.5 183 148.5s145.667 54 227 54c84.667 0 159.167 -18 223.5 -54
s118.333 -84.5 162 -145.5s76.667 -129.833 99 -206.5s33.5 -155.667 33.5 -237c0 -90.667 -15.333 -176.667 -46 -258s-72.667 -153.5 -126 -216.5s-114.5 -112.5 -183.5 -148.5s-142.5 -54 -220.5 -54zM618 94.999c103.333 0 188.166 44.834 254.499 134.501
s99.5 222.834 99.5 399.501c0 69.333 -8.66699 136.166 -26 200.499s-42.166 122.166 -74.499 173.499s-71 92 -116 122s-94.833 45 -149.5 45c-111.333 0 -197.833 -47.333 -259.5 -142s-92.5 -223.667 -92.5 -387c0 -99.333 16.667 -190.5 50 -273.5
s77.5 -149.167 132.5 -198.5s115.5 -74 181.5 -74zM983 1634c-15.333 -36 -35.332 -72.835 -59.999 -110.502s-52.834 -69.167 -84.501 -94.5s-65.834 -38 -102.501 -38c-33.333 0 -64.833 9.16699 -94.5 27.5l-87 55c-28.333 18.333 -56.5 27.5 -84.5 27.5
s-52.833 -10.5 -74.5 -31.5s-44.5 -50.167 -68.5 -87.5l-61 23c16 36 36.167 72.833 60.5 110.5s52.333 69.334 84 95.001s65.834 38.5 102.501 38.5c36 0 69.5 -9.16699 100.5 -27.5s60 -36.666 87 -54.999s52.5 -27.5 76.5 -27.5c50 0 98.333 40 145 120z" />
    <glyph glyph-name="Odieresis" unicode="&#xd6;" horiz-adv-x="1244" 
d="M584 -30c-81.333 0 -154 17.499 -218 52.499s-118.333 82.5 -163 142.5s-78.5 128.5 -101.5 205.5s-34.5 157.5 -34.5 241.5c0 90.667 14.5 176.834 43.5 258.501s69.5 154 121.5 217s113 112.5 183 148.5s145.667 54 227 54c84.667 0 159.167 -18 223.5 -54
s118.333 -84.5 162 -145.5s76.667 -129.833 99 -206.5s33.5 -155.667 33.5 -237c0 -90.667 -15.333 -176.667 -46 -258s-72.667 -153.5 -126 -216.5s-114.5 -112.5 -183.5 -148.5s-142.5 -54 -220.5 -54zM618 94.999c103.333 0 188.166 44.834 254.499 134.501
s99.5 222.834 99.5 399.501c0 69.333 -8.66699 136.166 -26 200.499s-42.166 122.166 -74.499 173.499s-71 92 -116 122s-94.833 45 -149.5 45c-111.333 0 -197.833 -47.333 -259.5 -142s-92.5 -223.667 -92.5 -387c0 -99.333 16.667 -190.5 50 -273.5
s77.5 -149.167 132.5 -198.5s115.5 -74 181.5 -74zM533 1543c0 -41.333 -12.501 -76.667 -37.501 -106s-55.5 -44 -91.5 -44c-64 0 -96 35 -96 105c0 41.333 12.833 76.5 38.5 105.5s55.834 43.5 90.501 43.5c64 0 96 -34.667 96 -104zM940.999 1543
c0 -41.333 -12.501 -76.667 -37.501 -106s-55.833 -44 -92.5 -44c-63.333 0 -95 35 -95 105c0 41.333 12.833 76.5 38.5 105.5s55.834 43.5 90.501 43.5c64 0 96 -34.667 96 -104z" />
    <glyph glyph-name="multiply" unicode="&#xd7;" horiz-adv-x="840" 
d="M749 283c-13.333 -6 -30.667 -12.5 -52 -19.5s-38.333 -11.833 -51 -14.5l-555 554l-1 38c13.333 6 30.5 12 51.5 18s38.5 10.667 52.5 14l555 -555v-35zM90.999 319l554.002 554c14 -3.33301 31.333 -8.16602 52 -14.499s37.667 -12.833 51 -19.5v-36l-554 -554
c-12.667 2.66699 -29.334 7.16699 -50.001 13.5s-38.334 13.166 -53.001 20.499v36z" />
    <glyph glyph-name="Oslash" unicode="&#xd8;" horiz-adv-x="1244" 
d="M1158 647c0 -90.667 -15.1709 -176.668 -45.5039 -258.001s-72.166 -153.5 -125.499 -216.5s-114.666 -112.5 -183.999 -148.5s-142.666 -54 -219.999 -54c-82 0 -155 17.5 -219 52.5s-118.167 82.5 -162.5 142.5s-78.166 128.5 -101.499 205.5s-35 157.5 -35 241.5
c0 90.667 14.5 176.834 43.5 258.501s69.667 154 122 217s113.333 112.5 183 148.5s145.5 54 227.5 54c84 0 158.167 -18 222.5 -54s118.333 -84.5 162 -145.5s76.667 -129.833 99 -206.5s33.5 -155.667 33.5 -237zM970.996 628.999c0 69.333 -8.83301 136.167 -26.5 200.5
s-42.667 122.166 -75 173.499s-71 92 -116 122s-94.833 45 -149.5 45c-110.667 0 -196.834 -47.333 -258.501 -142s-92.5 -223.667 -92.5 -387c0 -99.333 16.5 -190.5 49.5 -273.5s77.167 -149.167 132.5 -198.5s116 -74 182 -74c102.667 0 187.334 44.833 254.001 134.5
s100 222.834 100 399.501zM241.996 -2c-12 -10.667 -34.333 -20.833 -67 -30.5s-57.334 -16.5 -74.001 -20.5l-29 34l910 1283c18.667 11.333 41.334 21.333 68.001 30s50 15 70 19l30 -34z" />
    <glyph glyph-name="Ugrave" unicode="&#xd9;" horiz-adv-x="1349" 
d="M1288 1207c-45.333 -9.33301 -80.501 -19.6699 -105.501 -31.0029s-37.5 -21.666 -37.5 -30.999v-621c0 -174.667 -43 -310.667 -129 -408s-201 -146 -345 -146c-91.333 0 -173.333 17 -246 51s-130 86 -172 156s-63 159 -63 267v701c0 8 -11.667 18 -35 30
s-59 22.667 -107 32v53h475v-53c-45.333 -9.33301 -80.5 -19.666 -105.5 -30.999s-37.5 -21.666 -37.5 -30.999v-646c0 -128 27.833 -227.333 83.5 -298s140.5 -106 254.5 -106c63.333 0 115.833 19 157.5 57s72.834 87 93.501 147s31 123 31 189v657c0 8 -11.667 18 -35 30
s-59 22.667 -107 32v53h430v-53zM862.999 1417c-8.66699 -12.667 -16.832 -23.5 -24.499 -32.5s-17.167 -16.167 -28.5 -21.5l-479 247l8 51c6.66699 6 19.667 14.667 39 26s39.166 22.333 59.499 33l45.5 24z" />
    <glyph glyph-name="Uacute" unicode="&#xda;" horiz-adv-x="1349" 
d="M1288 1207c-45.333 -9.33301 -80.501 -19.6699 -105.501 -31.0029s-37.5 -21.666 -37.5 -30.999v-621c0 -174.667 -43 -310.667 -129 -408s-201 -146 -345 -146c-91.333 0 -173.333 17 -246 51s-130 86 -172 156s-63 159 -63 267v701c0 8 -11.667 18 -35 30
s-59 22.667 -107 32v53h475v-53c-45.333 -9.33301 -80.5 -19.666 -105.5 -30.999s-37.5 -21.666 -37.5 -30.999v-646c0 -128 27.833 -227.333 83.5 -298s140.5 -106 254.5 -106c63.333 0 115.833 19 157.5 57s72.834 87 93.501 147s31 123 31 189v657c0 8 -11.667 18 -35 30
s-59 22.667 -107 32v53h430v-53zM544.999 1364c-11.333 5.33301 -20.999 12.6689 -28.999 22.002s-16 19.666 -24 30.999l381 325c9.33301 -4.66699 24.166 -12.5 44.499 -23.5l60 -34c19.667 -11.667 33.167 -20.834 40.5 -27.501l9 -51z" />
    <glyph glyph-name="Ucircumflex" unicode="&#xdb;" horiz-adv-x="1349" 
d="M1288 1207c-45.333 -9.33301 -80.501 -19.6699 -105.501 -31.0029s-37.5 -21.666 -37.5 -30.999v-621c0 -174.667 -43 -310.667 -129 -408s-201 -146 -345 -146c-91.333 0 -173.333 17 -246 51s-130 86 -172 156s-63 159 -63 267v701c0 8 -11.667 18 -35 30
s-59 22.667 -107 32v53h475v-53c-45.333 -9.33301 -80.5 -19.666 -105.5 -30.999s-37.5 -21.666 -37.5 -30.999v-646c0 -128 27.833 -227.333 83.5 -298s140.5 -106 254.5 -106c63.333 0 115.833 19 157.5 57s72.834 87 93.501 147s31 123 31 189v657c0 8 -11.667 18 -35 30
s-59 22.667 -107 32v53h430v-53zM1005 1417c-8 -12.667 -15.1689 -23.334 -21.502 -32.001s-15.166 -15.334 -26.499 -20.001l-276 195l-274 -195c-10.667 4.66699 -19.667 11.334 -27 20.001s-15.666 19.334 -24.999 32.001l269 317h117z" />
    <glyph glyph-name="Udieresis" unicode="&#xdc;" horiz-adv-x="1349" 
d="M1288 1207c-45.333 -9.33301 -80.501 -19.6699 -105.501 -31.0029s-37.5 -21.666 -37.5 -30.999v-621c0 -174.667 -43 -310.667 -129 -408s-201 -146 -345 -146c-91.333 0 -173.333 17 -246 51s-130 86 -172 156s-63 159 -63 267v701c0 8 -11.667 18 -35 30
s-59 22.667 -107 32v53h475v-53c-45.333 -9.33301 -80.5 -19.666 -105.5 -30.999s-37.5 -21.666 -37.5 -30.999v-646c0 -128 27.833 -227.333 83.5 -298s140.5 -106 254.5 -106c63.333 0 115.833 19 157.5 57s72.834 87 93.501 147s31 123 31 189v657c0 8 -11.667 18 -35 30
s-59 22.667 -107 32v53h430v-53zM589.999 1543c0 -41.333 -12.501 -76.667 -37.501 -106s-55.5 -44 -91.5 -44c-64 0 -96 35 -96 105c0 41.333 12.833 76.5 38.5 105.5s55.834 43.5 90.501 43.5c64 0 96 -34.667 96 -104zM997.998 1543
c0 -41.333 -12.501 -76.667 -37.501 -106s-55.833 -44 -92.5 -44c-63.333 0 -95 35 -95 105c0 41.333 12.833 76.5 38.5 105.5s55.834 43.5 90.501 43.5c64 0 96 -34.667 96 -104z" />
    <glyph glyph-name="Yacute" unicode="&#xdd;" horiz-adv-x="1230" 
d="M1191 1207c-45.333 -8.66699 -79.834 -17.501 -103.501 -26.501s-40.167 -22.167 -49.5 -39.5l-358 -654h-142c-24 55.333 -52 114 -84 176s-65.5 123 -100.5 183l-101.5 167c-32.667 51.333 -61.334 94 -86.001 128c-12.667 14.667 -29 27.167 -49 37.5
s-57.667 15.5 -113 15.5l-4 53c39.333 5.33301 81.333 10.5 126 15.5s80.667 7.5 108 7.5c35.333 0 64 -13.667 86 -41c32.667 -43.333 68 -95.666 106 -156.999s75.833 -126 113.5 -194s71.834 -134 102.501 -198l257 461c10 17.333 6.83301 31 -9.5 41
s-50.166 18.333 -101.499 25v53h403v-53zM354.999 -0.000976562l-0.000976562 53c60.667 12.667 102.834 25.5 126.501 38.5s35.5 24.167 35.5 33.5v512h190v-512c0 -8.66699 11.5 -19.667 34.5 -33s65.833 -26.333 128.5 -39v-53h-515zM474.998 1364
c-11.333 5.33301 -20.999 12.6689 -28.999 22.002s-16 19.666 -24 30.999l381 325c9.33301 -4.66699 24.166 -12.5 44.499 -23.5l60 -34c19.667 -11.667 33.167 -20.834 40.5 -27.501l9 -51z" />
    <glyph glyph-name="Thorn" unicode="&#xde;" horiz-adv-x="1101" 
d="M1018 669c0 -69.333 -13.6631 -129.499 -40.9961 -180.499s-62.333 -93.333 -105 -127s-87.834 -58.667 -135.501 -75s-91.834 -24.166 -132.501 -23.499c-30.667 0 -60 2.5 -88 7.5s-53.333 13.167 -76 24.5l-25 82c27.333 -12.667 53 -20.667 77 -24s48 -5 72 -5
c40 0 80.5 10.167 121.5 30.5s75.333 51.166 103 92.499s41.5 93.666 41.5 156.999c0 70 -15.833 127.333 -47.5 172s-74.334 77.667 -128.001 99s-113.834 32 -180.501 32c-69.333 0 -144 -4.66699 -224 -14l-11 83c40 7.33301 83 13 129 17s100.333 6 163 6
c146.667 0 264.5 -30.5 353.5 -91.5s133.5 -148.5 133.5 -262.5zM47.0039 0.000976562l0.000976562 52.999c45.333 9.33301 80.666 19.666 105.999 30.999s38 21.333 38 30v1031c0 8 -12 18 -36 30s-60 22.667 -108 32v53h506v-53
c-68.667 -11.333 -114.5 -22.166 -137.5 -32.499s-34.5 -20.166 -34.5 -29.499v-1031c0 -8 11.333 -17.333 34 -28s68.667 -21.667 138 -33v-53h-506z" />
    <glyph glyph-name="germandbls" unicode="&#xdf;" horiz-adv-x="1201" 
d="M1123 283c0 -53.333 -12.5039 -103.833 -37.5039 -151.5s-63.667 -86.5 -116 -116.5s-119.833 -45 -202.5 -45c-28.667 0 -62.834 4.16699 -102.501 12.5s-75.5 18.5 -107.5 30.5s-51.333 23 -58 33c-4 5.33301 -6.5 20 -7.5 44s-0.833008 51 0.5 81s3.5 57.333 6.5 82
s7.16699 40.667 12.5 48l52 -13c11.333 -73.333 41.5 -126.666 90.5 -159.999s98.833 -50 149.5 -50c46 0 84.167 12.167 114.5 36.5s45.5 57.833 45.5 100.5c0 44.667 -11 82.167 -33 112.5s-50.167 56.5 -84.5 78.5s-71 42.667 -110 62s-75.667 40.166 -110 62.499
s-62.5 49.333 -84.5 81s-33 70.834 -33 117.501c0 52.667 11.167 94 33.5 124s49.833 54.167 82.5 72.5s65.334 35.166 98.001 50.499s60.167 33.833 82.5 55.5s33.5 51.834 33.5 90.501c0 48.667 -9.16699 95.5 -27.5 140.5s-46.166 82.167 -83.499 111.5
s-84.666 44 -141.999 44c-41.333 0 -78.166 -11 -110.499 -33s-57.833 -62.333 -76.5 -121s-28 -143 -28 -253v-1011h-317v53c44.667 8 78.667 17.833 102 29.5s35 21.5 35 29.5v844c0 107.333 10.5 192.666 31.5 255.999s47.833 113.5 80.5 150.5
s66.334 68.833 101.001 95.5c36.667 28 78.667 50.333 126 67s96.333 25 147 25c79.333 0 144.333 -19.333 195 -58s88.167 -85.834 112.5 -141.501s36.5 -109.167 36.5 -160.5c0 -65.333 -11.667 -117 -35 -155s-52 -67.667 -86 -89s-68.167 -39.166 -102.5 -53.499
s-63 -30.333 -86 -48s-34.5 -42.5 -34.5 -74.5c0 -29.333 10.667 -54.5 32 -75.5s49 -40.167 83 -57.5l108.5 -54.5c38.333 -19 74.5 -41.333 108.5 -67s61.667 -57.167 83 -94.5s32 -83.333 32 -138z" />
    <glyph glyph-name="agrave" unicode="&#xe0;" horiz-adv-x="968" 
d="M956 92c-56.667 -38.667 -107.166 -68.6689 -151.499 -90.002s-76.833 -32 -97.5 -32c-24.667 0 -44.834 17.5 -60.501 52.5s-23.5 82.167 -23.5 141.5v533c0 44 -10.833 80.833 -32.5 110.5s-62.5 43.834 -122.5 42.501c-39.333 -0.666992 -75.333 -13 -108 -37
s-47 -56 -43 -96c0.666992 -6.66699 -7.5 -14 -24.5 -22s-37.667 -15.667 -62 -23s-47.333 -13 -69 -17s-36.5 -5 -44.5 -3l-16 44c20.667 47.333 55.5 91 104.5 131s105 72.167 168 96.5s125.833 36.5 188.5 36.5c78.667 0 138.5 -20.5 179.5 -61.5s61.5 -95.5 61.5 -163.5
v-537c0 -52 13.333 -78 40 -78c9.33301 0 21 1.83301 35 5.5s34.333 10.834 61 21.501zM633.001 482.998c-70 -11.333 -124.667 -22.334 -164 -33.001s-69.333 -22 -90 -34s-38 -25 -52 -39c-17.333 -18 -31.333 -38 -42 -60s-16 -48 -16 -78
c0 -33.333 6.16699 -59 18.5 -77s26.666 -30.333 42.999 -37s30.166 -10 41.499 -10c36 0 75.333 9.83301 118 29.5s90.334 52.834 143.001 99.501l8 -87c-62.667 -67.333 -125 -115.333 -187 -144s-115.667 -43 -161 -43c-34 0 -67.667 7.66699 -101 23
s-61.166 39.333 -83.499 72s-33.5 74.667 -33.5 126c0 49.333 8.66699 90.5 26 123.5s38.333 61.833 63 86.5c21.333 22 48 42.5 80 61.5s78.167 37 138.5 54s143.833 33.5 250.5 49.5v-83zM611.001 1081c-8.66699 -8 -19 -15.168 -31 -21.501s-23.667 -11.166 -35 -14.499
l-362 377l24 46c8.66699 2 24.667 5.16699 48 9.5s47 8.5 71 12.5s41.333 6.33301 52 7z" />
    <glyph glyph-name="aacute" unicode="&#xe1;" horiz-adv-x="968" 
d="M956 92c-56.667 -38.667 -107.166 -68.6689 -151.499 -90.002s-76.833 -32 -97.5 -32c-24.667 0 -44.834 17.5 -60.501 52.5s-23.5 82.167 -23.5 141.5v533c0 44 -10.833 80.833 -32.5 110.5s-62.5 43.834 -122.5 42.501c-39.333 -0.666992 -75.333 -13 -108 -37
s-47 -56 -43 -96c0.666992 -6.66699 -7.5 -14 -24.5 -22s-37.667 -15.667 -62 -23s-47.333 -13 -69 -17s-36.5 -5 -44.5 -3l-16 44c20.667 47.333 55.5 91 104.5 131s105 72.167 168 96.5s125.833 36.5 188.5 36.5c78.667 0 138.5 -20.5 179.5 -61.5s61.5 -95.5 61.5 -163.5
v-537c0 -52 13.333 -78 40 -78c9.33301 0 21 1.83301 35 5.5s34.333 10.834 61 21.501zM633.001 482.998c-70 -11.333 -124.667 -22.334 -164 -33.001s-69.333 -22 -90 -34s-38 -25 -52 -39c-17.333 -18 -31.333 -38 -42 -60s-16 -48 -16 -78
c0 -33.333 6.16699 -59 18.5 -77s26.666 -30.333 42.999 -37s30.166 -10 41.499 -10c36 0 75.333 9.83301 118 29.5s90.334 52.834 143.001 99.501l8 -87c-62.667 -67.333 -125 -115.333 -187 -144s-115.667 -43 -161 -43c-34 0 -67.667 7.66699 -101 23
s-61.166 39.333 -83.499 72s-33.5 74.667 -33.5 126c0 49.333 8.66699 90.5 26 123.5s38.333 61.833 63 86.5c21.333 22 48 42.5 80 61.5s78.167 37 138.5 54s143.833 33.5 250.5 49.5v-83zM443.001 1045c-12 2 -24.333 6.50098 -37 13.501s-22.667 13.5 -30 19.5l227 419
c10 -0.666992 26.833 -2.83398 50.5 -6.50098l71 -11.5c23.667 -4 40.5 -7.33301 50.5 -10l26 -44z" />
    <glyph glyph-name="acircumflex" unicode="&#xe2;" horiz-adv-x="968" 
d="M956 92c-56.667 -38.667 -107.166 -68.6689 -151.499 -90.002s-76.833 -32 -97.5 -32c-24.667 0 -44.834 17.5 -60.501 52.5s-23.5 82.167 -23.5 141.5v533c0 44 -10.833 80.833 -32.5 110.5s-62.5 43.834 -122.5 42.501c-39.333 -0.666992 -75.333 -13 -108 -37
s-47 -56 -43 -96c0.666992 -6.66699 -7.5 -14 -24.5 -22s-37.667 -15.667 -62 -23s-47.333 -13 -69 -17s-36.5 -5 -44.5 -3l-16 44c20.667 47.333 55.5 91 104.5 131s105 72.167 168 96.5s125.833 36.5 188.5 36.5c78.667 0 138.5 -20.5 179.5 -61.5s61.5 -95.5 61.5 -163.5
v-537c0 -52 13.333 -78 40 -78c9.33301 0 21 1.83301 35 5.5s34.333 10.834 61 21.501zM633.001 482.998c-70 -11.333 -124.667 -22.334 -164 -33.001s-69.333 -22 -90 -34s-38 -25 -52 -39c-17.333 -18 -31.333 -38 -42 -60s-16 -48 -16 -78
c0 -33.333 6.16699 -59 18.5 -77s26.666 -30.333 42.999 -37s30.166 -10 41.499 -10c36 0 75.333 9.83301 118 29.5s90.334 52.834 143.001 99.501l8 -87c-62.667 -67.333 -125 -115.333 -187 -144s-115.667 -43 -161 -43c-34 0 -67.667 7.66699 -101 23
s-61.166 39.333 -83.499 72s-33.5 74.667 -33.5 126c0 49.333 8.66699 90.5 26 123.5s38.333 61.833 63 86.5c21.333 22 48 42.5 80 61.5s78.167 37 138.5 54s143.833 33.5 250.5 49.5v-83zM815.001 1097c-8 -12.667 -15.001 -23.334 -21.001 -32.001
s-15 -15.334 -27 -20.001l-276 253l-274 -253c-10.667 4.66699 -19.667 11.334 -27 20.001s-15.666 19.334 -24.999 32.001l269 382h117z" />
    <glyph glyph-name="atilde" unicode="&#xe3;" horiz-adv-x="968" 
d="M956 92c-56.667 -38.667 -107.166 -68.6689 -151.499 -90.002s-76.833 -32 -97.5 -32c-24.667 0 -44.834 17.5 -60.501 52.5s-23.5 82.167 -23.5 141.5v533c0 44 -10.833 80.833 -32.5 110.5s-62.5 43.834 -122.5 42.501c-39.333 -0.666992 -75.333 -13 -108 -37
s-47 -56 -43 -96c0.666992 -6.66699 -7.5 -14 -24.5 -22s-37.667 -15.667 -62 -23s-47.333 -13 -69 -17s-36.5 -5 -44.5 -3l-16 44c20.667 47.333 55.5 91 104.5 131s105 72.167 168 96.5s125.833 36.5 188.5 36.5c78.667 0 138.5 -20.5 179.5 -61.5s61.5 -95.5 61.5 -163.5
v-537c0 -52 13.333 -78 40 -78c9.33301 0 21 1.83301 35 5.5s34.333 10.834 61 21.501zM633.001 482.998c-70 -11.333 -124.667 -22.334 -164 -33.001s-69.333 -22 -90 -34s-38 -25 -52 -39c-17.333 -18 -31.333 -38 -42 -60s-16 -48 -16 -78
c0 -33.333 6.16699 -59 18.5 -77s26.666 -30.333 42.999 -37s30.166 -10 41.499 -10c36 0 75.333 9.83301 118 29.5s90.334 52.834 143.001 99.501l8 -87c-62.667 -67.333 -125 -115.333 -187 -144s-115.667 -43 -161 -43c-34 0 -67.667 7.66699 -101 23
s-61.166 39.333 -83.499 72s-33.5 74.667 -33.5 126c0 49.333 8.66699 90.5 26 123.5s38.333 61.833 63 86.5c21.333 22 48 42.5 80 61.5s78.167 37 138.5 54s143.833 33.5 250.5 49.5v-83zM848.001 1349c-16 -36 -36.167 -72.5 -60.5 -109.5s-52.5 -68 -84.5 -93
s-67 -37.5 -105 -37.5c-31.333 0 -61 9.16699 -89 27.5l-81.5 55c-26.333 18.333 -52.5 27.5 -78.5 27.5c-25.333 0 -49 -11 -71 -33s-45 -51.667 -69 -89l-63 24c15.333 36 35.166 72.667 59.499 110s52.5 68.5 84.5 93.5s67 37.5 105 37.5
c34.667 0 66.334 -9.33301 95.001 -28s55.5 -37.167 80.5 -55.5s48.5 -27.5 70.5 -27.5c24.667 0 49 11 73 33s47.333 52.667 70 92z" />
    <glyph glyph-name="adieresis" unicode="&#xe4;" horiz-adv-x="968" 
d="M956 92c-56.667 -38.667 -107.166 -68.6689 -151.499 -90.002s-76.833 -32 -97.5 -32c-24.667 0 -44.834 17.5 -60.501 52.5s-23.5 82.167 -23.5 141.5v533c0 44 -10.833 80.833 -32.5 110.5s-62.5 43.834 -122.5 42.501c-39.333 -0.666992 -75.333 -13 -108 -37
s-47 -56 -43 -96c0.666992 -6.66699 -7.5 -14 -24.5 -22s-37.667 -15.667 -62 -23s-47.333 -13 -69 -17s-36.5 -5 -44.5 -3l-16 44c20.667 47.333 55.5 91 104.5 131s105 72.167 168 96.5s125.833 36.5 188.5 36.5c78.667 0 138.5 -20.5 179.5 -61.5s61.5 -95.5 61.5 -163.5
v-537c0 -52 13.333 -78 40 -78c9.33301 0 21 1.83301 35 5.5s34.333 10.834 61 21.501zM633.001 482.998c-70 -11.333 -124.667 -22.334 -164 -33.001s-69.333 -22 -90 -34s-38 -25 -52 -39c-17.333 -18 -31.333 -38 -42 -60s-16 -48 -16 -78
c0 -33.333 6.16699 -59 18.5 -77s26.666 -30.333 42.999 -37s30.166 -10 41.499 -10c36 0 75.333 9.83301 118 29.5s90.334 52.834 143.001 99.501l8 -87c-62.667 -67.333 -125 -115.333 -187 -144s-115.667 -43 -161 -43c-34 0 -67.667 7.66699 -101 23
s-61.166 39.333 -83.499 72s-33.5 74.667 -33.5 126c0 49.333 8.66699 90.5 26 123.5s38.333 61.833 63 86.5c21.333 22 48 42.5 80 61.5s78.167 37 138.5 54s143.833 33.5 250.5 49.5v-83zM401.001 1263c0 -41.333 -12.667 -76.667 -38 -106s-56 -44 -92 -44
c-63.333 0 -95 35 -95 105c0 41.333 12.667 76.5 38 105.5s55.333 43.5 90 43.5c64.667 0 97 -34.667 97 -104zM808.001 1263c0 -41.333 -12.501 -76.667 -37.501 -106s-55.5 -44 -91.5 -44c-64 0 -96 35 -96 105c0 41.333 12.833 76.5 38.5 105.5s55.834 43.5 90.501 43.5
c64 0 96 -34.667 96 -104z" />
    <glyph glyph-name="aring" unicode="&#xe5;" horiz-adv-x="968" 
d="M956 92c-56.667 -38.667 -107.166 -68.6689 -151.499 -90.002s-76.833 -32 -97.5 -32c-24.667 0 -44.834 17.5 -60.501 52.5s-23.5 82.167 -23.5 141.5v533c0 44 -10.833 80.833 -32.5 110.5s-62.5 43.834 -122.5 42.501c-39.333 -0.666992 -75.333 -13 -108 -37
s-47 -56 -43 -96c0.666992 -6.66699 -7.5 -14 -24.5 -22s-37.667 -15.667 -62 -23s-47.333 -13 -69 -17s-36.5 -5 -44.5 -3l-16 44c20.667 47.333 55.5 91 104.5 131s105 72.167 168 96.5s125.833 36.5 188.5 36.5c78.667 0 138.5 -20.5 179.5 -61.5s61.5 -95.5 61.5 -163.5
v-537c0 -52 13.333 -78 40 -78c9.33301 0 21 1.83301 35 5.5s34.333 10.834 61 21.501zM633.001 482.998c-70 -11.333 -124.667 -22.334 -164 -33.001s-69.333 -22 -90 -34s-38 -25 -52 -39c-17.333 -18 -31.333 -38 -42 -60s-16 -48 -16 -78
c0 -33.333 6.16699 -59 18.5 -77s26.666 -30.333 42.999 -37s30.166 -10 41.499 -10c36 0 75.333 9.83301 118 29.5s90.334 52.834 143.001 99.501l8 -87c-62.667 -67.333 -125 -115.333 -187 -144s-115.667 -43 -161 -43c-34 0 -67.667 7.66699 -101 23
s-61.166 39.333 -83.499 72s-33.5 74.667 -33.5 126c0 49.333 8.66699 90.5 26 123.5s38.333 61.833 63 86.5c21.333 22 48 42.5 80 61.5s78.167 37 138.5 54s143.833 33.5 250.5 49.5v-83zM686.001 1292c0 -46 -11.3359 -87.333 -34.0029 -124s-51.167 -65.5 -85.5 -86.5
s-69.5 -31.5 -105.5 -31.5c-47.333 0 -86.166 15.5 -116.499 46.5s-45.5 69.5 -45.5 115.5s11 87.333 33 124s50.167 65.667 84.5 87s69.833 32 106.5 32c46.667 0 85.334 -15.833 116.001 -47.5s46.334 -70.167 47.001 -115.5zM580.998 1251
c0 32 -7.50195 58.833 -22.502 80.5s-33.833 32.5 -56.5 32.5c-27.333 0 -50.5 -10.5 -69.5 -31.5s-28.5 -47.5 -28.5 -79.5c0 -30.667 7.33301 -57 22 -79s33.334 -33 56.001 -33c26.667 0 49.834 9.66699 69.501 29s29.5 46.333 29.5 81z" />
    <glyph glyph-name="ae" unicode="&#xe6;" horiz-adv-x="1445" 
d="M293 -30c-32 0 -64.833 7.33301 -98.5 22s-62 38.167 -85 70.5s-34.5 75.166 -34.5 128.499c0 79.333 31.167 150.833 93.5 214.5s159.833 113.5 292.5 149.5c20.667 5.33301 45.667 9.66602 75 12.999s59.333 6 90 8v84c0 54 -9.83301 99.167 -29.5 135.5
s-58.5 54.5 -116.5 54.5c-26.667 0 -55 -7.5 -85 -22.5s-53.5 -35.167 -70.5 -60.5s-19.833 -54 -8.5 -86c1.33301 -6 -6.33398 -13.167 -23.001 -21.5s-37.167 -16 -61.5 -23s-47.5 -12.333 -69.5 -16s-37 -4.5 -45 -2.5l-16 41c10 44 32.333 84.333 67 121
s75.334 68.5 122.001 95.5s93.5 47.833 140.5 62.5s87.833 22 122.5 22c108.667 0 180.334 -43.667 215.001 -131c43.333 49.333 90 83.5 140 102.5s94.667 28.5 134 28.5c80.667 0 145 -20.667 193 -62s82.5 -93 103.5 -155s31.5 -124.667 31.5 -188
c-12.667 -14 -30.334 -27.5 -53.001 -40.5s-44.667 -23.833 -66 -32.5h-448c0 -8.66699 -0.166992 -17.834 -0.5 -27.501s-0.5 -19.167 -0.5 -28.5c0 -48 9 -96 27 -144s44.5 -87.833 79.5 -119.5s77.5 -47.5 127.5 -47.5c28 0 55 2.83301 81 8.5s55 17.667 87 36
s70.667 46.5 116 84.5c8.66699 -4.66699 17.167 -12.667 25.5 -24s13.833 -19.666 16.5 -24.999c-53.333 -62 -101.333 -109.167 -144 -141.5s-84.167 -54.333 -124.5 -66s-83.166 -17.5 -128.499 -17.5c-58.667 0 -115.5 18.333 -170.5 55s-98.167 88.334 -129.5 155.001
c-58 -71.333 -122.333 -124.166 -193 -158.499s-130.334 -51.5 -179.001 -51.5zM372 115c34.667 0 76.1689 10.832 124.502 32.499s96.166 56.167 143.499 103.5c-5.33301 21.333 -9 41.333 -11 60s-3 42 -3 70v97c-20.667 -1.33301 -40.834 -3.16602 -60.501 -5.49902
s-37.167 -5.16602 -52.5 -8.49902c-74.667 -16.667 -134.334 -44.334 -179.001 -83.001s-67 -86 -67 -142c0 -49.333 12.833 -82.333 38.5 -99s47.834 -25 66.501 -25zM812.002 579.999l333.999 -0.000976562c25.333 0 38 12 38 36c0 66 -14 122.333 -42 169s-71 70 -129 70
c-20 0 -43.667 -6.66699 -71 -20s-53.166 -39.666 -77.499 -78.999s-41.833 -98 -52.5 -176z" />
    <glyph glyph-name="ccedilla" unicode="&#xe7;" horiz-adv-x="908" 
d="M858 190c-58 -67.333 -108.333 -116.499 -151 -147.499s-82.334 -50.833 -119.001 -59.5s-76 -13 -118 -13c-67.333 0 -131.166 18.833 -191.499 56.5s-109.333 92 -147 163s-56.5 155.833 -56.5 254.5c0 96 22.667 183 68 261s107.333 140 186 186
s167.334 69 266.001 69c44 0 91 -7.33301 141 -22s86.333 -33.667 109 -57c2 -10.667 -0.666992 -29.5 -8 -56.5s-16.5 -54 -27.5 -81s-20.5 -46.5 -28.5 -58.5l-47 10c-14.667 37.333 -39.834 71.666 -75.501 102.999s-85.167 47 -148.5 47c-44 0 -85.5 -13.333 -124.5 -40
s-70.5 -67.334 -94.5 -122.001s-36 -124 -36 -208c0 -74 13.5 -138.167 40.5 -192.5s62.833 -96.166 107.5 -125.499s92.667 -44 144 -44c25.333 0 49 2.16699 71 6.5s48 15.333 78 33s69.333 46.5 118 86.5zM678 -228.999c0 -49.333 -27.334 -93.833 -82.001 -133.5
s-135.667 -66.834 -243 -81.501l-27 57c65.333 10.667 112 26.834 140 48.501s42 43.5 42 65.5s-8.5 37.667 -25.5 47s-44.167 16 -81.5 20l7 18c4.66699 12 13.334 36.5 26.001 73.5l55 166.5l93 -2l-51 -149c40 -8 74.5 -22.333 103.5 -43s43.5 -49.667 43.5 -87z" />
    <glyph glyph-name="egrave" unicode="&#xe8;" horiz-adv-x="961" 
d="M886 555c-12 -14 -29.6699 -27.501 -53.0029 -40.501s-45.666 -23.5 -66.999 -31.5h-584l2 97h475c15.333 0 25.5 2.5 30.5 7.5s7.5 14.5 7.5 28.5c0 24.667 -5.16699 55.5 -15.5 92.5s-29.5 69.833 -57.5 98.5s-69 43 -123 43c-77.333 0 -137.166 -33.333 -179.499 -100
s-63.5 -151.667 -63.5 -255c0 -69.333 11 -133 33 -191s54 -104.333 96 -139s92.667 -52 152 -52c28 0 55.167 2.66699 81.5 8s56.5 17.333 90.5 36s76.333 47.667 127 87c8.66699 -4.66699 17.167 -12.667 25.5 -24s13.833 -19.666 16.5 -24.999
c-60 -64 -111.667 -112.167 -155 -144.5s-84.666 -53.833 -123.999 -64.5s-83 -16 -131 -16c-70.667 0 -136 19.333 -196 58s-108.167 93 -144.5 163s-54.5 152 -54.5 246c0 90 18.833 173.667 56.5 251s90.834 140 159.501 188c31.333 22 69.166 41.5 113.499 58.5
s86.833 25.5 127.5 25.5c65.333 0 120.5 -12.167 165.5 -36.5s81.5 -56.5 109.5 -96.5s48.167 -83.833 60.5 -131.5s18.5 -94.5 18.5 -140.5zM637.997 1081c-8.66699 -8 -19 -15.168 -31 -21.501s-23.667 -11.166 -35 -14.499l-362 377l24 46
c8.66699 2 24.667 5.16699 48 9.5s47 8.5 71 12.5s41.333 6.33301 52 7z" />
    <glyph glyph-name="eacute" unicode="&#xe9;" horiz-adv-x="961" 
d="M886 555c-12 -14 -29.6699 -27.501 -53.0029 -40.501s-45.666 -23.5 -66.999 -31.5h-584l2 97h475c15.333 0 25.5 2.5 30.5 7.5s7.5 14.5 7.5 28.5c0 24.667 -5.16699 55.5 -15.5 92.5s-29.5 69.833 -57.5 98.5s-69 43 -123 43c-77.333 0 -137.166 -33.333 -179.499 -100
s-63.5 -151.667 -63.5 -255c0 -69.333 11 -133 33 -191s54 -104.333 96 -139s92.667 -52 152 -52c28 0 55.167 2.66699 81.5 8s56.5 17.333 90.5 36s76.333 47.667 127 87c8.66699 -4.66699 17.167 -12.667 25.5 -24s13.833 -19.666 16.5 -24.999
c-60 -64 -111.667 -112.167 -155 -144.5s-84.666 -53.833 -123.999 -64.5s-83 -16 -131 -16c-70.667 0 -136 19.333 -196 58s-108.167 93 -144.5 163s-54.5 152 -54.5 246c0 90 18.833 173.667 56.5 251s90.834 140 159.501 188c31.333 22 69.166 41.5 113.499 58.5
s86.833 25.5 127.5 25.5c65.333 0 120.5 -12.167 165.5 -36.5s81.5 -56.5 109.5 -96.5s48.167 -83.833 60.5 -131.5s18.5 -94.5 18.5 -140.5zM469.997 1045c-12 2 -24.333 6.50098 -37 13.501s-22.667 13.5 -30 19.5l227 419c10 -0.666992 26.833 -2.83398 50.5 -6.50098
l71 -11.5c23.667 -4 40.5 -7.33301 50.5 -10l26 -44z" />
    <glyph glyph-name="ecircumflex" unicode="&#xea;" horiz-adv-x="961" 
d="M886 555c-12 -14 -29.6699 -27.501 -53.0029 -40.501s-45.666 -23.5 -66.999 -31.5h-584l2 97h475c15.333 0 25.5 2.5 30.5 7.5s7.5 14.5 7.5 28.5c0 24.667 -5.16699 55.5 -15.5 92.5s-29.5 69.833 -57.5 98.5s-69 43 -123 43c-77.333 0 -137.166 -33.333 -179.499 -100
s-63.5 -151.667 -63.5 -255c0 -69.333 11 -133 33 -191s54 -104.333 96 -139s92.667 -52 152 -52c28 0 55.167 2.66699 81.5 8s56.5 17.333 90.5 36s76.333 47.667 127 87c8.66699 -4.66699 17.167 -12.667 25.5 -24s13.833 -19.666 16.5 -24.999
c-60 -64 -111.667 -112.167 -155 -144.5s-84.666 -53.833 -123.999 -64.5s-83 -16 -131 -16c-70.667 0 -136 19.333 -196 58s-108.167 93 -144.5 163s-54.5 152 -54.5 246c0 90 18.833 173.667 56.5 251s90.834 140 159.501 188c31.333 22 69.166 41.5 113.499 58.5
s86.833 25.5 127.5 25.5c65.333 0 120.5 -12.167 165.5 -36.5s81.5 -56.5 109.5 -96.5s48.167 -83.833 60.5 -131.5s18.5 -94.5 18.5 -140.5zM841.997 1097c-8 -12.667 -15.001 -23.334 -21.001 -32.001s-15 -15.334 -27 -20.001l-276 253l-274 -253
c-10.667 4.66699 -19.667 11.334 -27 20.001s-15.666 19.334 -24.999 32.001l269 382h117z" />
    <glyph glyph-name="edieresis" unicode="&#xeb;" horiz-adv-x="961" 
d="M886 555c-12 -14 -29.6699 -27.501 -53.0029 -40.501s-45.666 -23.5 -66.999 -31.5h-584l2 97h475c15.333 0 25.5 2.5 30.5 7.5s7.5 14.5 7.5 28.5c0 24.667 -5.16699 55.5 -15.5 92.5s-29.5 69.833 -57.5 98.5s-69 43 -123 43c-77.333 0 -137.166 -33.333 -179.499 -100
s-63.5 -151.667 -63.5 -255c0 -69.333 11 -133 33 -191s54 -104.333 96 -139s92.667 -52 152 -52c28 0 55.167 2.66699 81.5 8s56.5 17.333 90.5 36s76.333 47.667 127 87c8.66699 -4.66699 17.167 -12.667 25.5 -24s13.833 -19.666 16.5 -24.999
c-60 -64 -111.667 -112.167 -155 -144.5s-84.666 -53.833 -123.999 -64.5s-83 -16 -131 -16c-70.667 0 -136 19.333 -196 58s-108.167 93 -144.5 163s-54.5 152 -54.5 246c0 90 18.833 173.667 56.5 251s90.834 140 159.501 188c31.333 22 69.166 41.5 113.499 58.5
s86.833 25.5 127.5 25.5c65.333 0 120.5 -12.167 165.5 -36.5s81.5 -56.5 109.5 -96.5s48.167 -83.833 60.5 -131.5s18.5 -94.5 18.5 -140.5zM427.997 1263c0 -41.333 -12.667 -76.667 -38 -106s-56 -44 -92 -44c-63.333 0 -95 35 -95 105c0 41.333 12.667 76.5 38 105.5
s55.333 43.5 90 43.5c64.667 0 97 -34.667 97 -104zM834.997 1263c0 -41.333 -12.501 -76.667 -37.501 -106s-55.5 -44 -91.5 -44c-64 0 -96 35 -96 105c0 41.333 12.833 76.5 38.5 105.5s55.834 43.5 90.501 43.5c64 0 96 -34.667 96 -104z" />
    <glyph glyph-name="igrave" unicode="&#xec;" horiz-adv-x="575" 
d="M68 0l-0.00195312 53c91.333 18.667 137 39 137 61v549c0 45.333 -1.66699 79.333 -5 102s-14.5 38.5 -33.5 47.5s-51.833 15.833 -98.5 20.5v50c46.667 8 94.334 18.667 143.001 32s92 28.333 130 45h44v-846c0 -8 10.833 -17.833 32.5 -29.5
s56.834 -22.167 105.501 -31.5v-53h-455zM413.998 1081c-8.66699 -8 -19 -15.168 -31 -21.501s-23.667 -11.166 -35 -14.499l-362 377l24 46c8.66699 2 24.667 5.16699 48 9.5s47 8.5 71 12.5s41.333 6.33301 52 7z" />
    <glyph glyph-name="iacute" unicode="&#xed;" horiz-adv-x="575" 
d="M68 0l-0.00195312 53c91.333 18.667 137 39 137 61v549c0 45.333 -1.66699 79.333 -5 102s-14.5 38.5 -33.5 47.5s-51.833 15.833 -98.5 20.5v50c46.667 8 94.334 18.667 143.001 32s92 28.333 130 45h44v-846c0 -8 10.833 -17.833 32.5 -29.5
s56.834 -22.167 105.501 -31.5v-53h-455zM245.998 1045c-12 2 -24.333 6.50098 -37 13.501s-22.667 13.5 -30 19.5l227 419c10 -0.666992 26.833 -2.83398 50.5 -6.50098l71 -11.5c23.667 -4 40.5 -7.33301 50.5 -10l26 -44z" />
    <glyph glyph-name="icircumflex" unicode="&#xee;" horiz-adv-x="575" 
d="M68 0l-0.00195312 53c91.333 18.667 137 39 137 61v549c0 45.333 -1.66699 79.333 -5 102s-14.5 38.5 -33.5 47.5s-51.833 15.833 -98.5 20.5v50c46.667 8 94.334 18.667 143.001 32s92 28.333 130 45h44v-846c0 -8 10.833 -17.833 32.5 -29.5
s56.834 -22.167 105.501 -31.5v-53h-455zM617.998 1097c-8 -12.667 -15.001 -23.334 -21.001 -32.001s-15 -15.334 -27 -20.001l-276 253l-274 -253c-10.667 4.66699 -19.667 11.334 -27 20.001s-15.666 19.334 -24.999 32.001l269 382h117z" />
    <glyph glyph-name="idieresis" unicode="&#xef;" horiz-adv-x="575" 
d="M68 0l-0.00195312 53c91.333 18.667 137 39 137 61v549c0 45.333 -1.66699 79.333 -5 102s-14.5 38.5 -33.5 47.5s-51.833 15.833 -98.5 20.5v50c46.667 8 94.334 18.667 143.001 32s92 28.333 130 45h44v-846c0 -8 10.833 -17.833 32.5 -29.5
s56.834 -22.167 105.501 -31.5v-53h-455zM203.998 1263c0 -41.333 -12.667 -76.667 -38 -106s-56 -44 -92 -44c-63.333 0 -95 35 -95 105c0 41.333 12.667 76.5 38 105.5s55.333 43.5 90 43.5c64.667 0 97 -34.667 97 -104zM610.998 1263
c0 -41.333 -12.501 -76.667 -37.501 -106s-55.5 -44 -91.5 -44c-64 0 -96 35 -96 105c0 41.333 12.833 76.5 38.5 105.5s55.834 43.5 90.501 43.5c64 0 96 -34.667 96 -104z" />
    <glyph glyph-name="eth" unicode="&#xf0;" horiz-adv-x="1029" 
d="M950 597c0 -115.333 -15.5 -212.999 -46.5 -292.999s-70.167 -144.5 -117.5 -193.5s-96.333 -84.667 -147 -107s-95.667 -33.5 -135 -33.5c-89.333 0 -166 20.667 -230 62s-113.167 97.666 -147.5 168.999s-51.5 152.333 -51.5 243c0 66 11.5 129.833 34.5 191.5
s54.667 117 95 166s86.333 87.667 138 116s106.167 42.5 163.5 42.5c40 0 80.667 -11.167 122 -33.5s78 -50.166 110 -83.499c-17.333 62 -41 118.333 -71 169s-67.333 99.667 -112 147l-221 -94c-24.667 2 -42.167 3.66699 -52.5 5s-26.833 5.66602 -49.5 12.999l-11 39
l258 111c-36.667 30 -77.334 54 -122.001 72s-95.334 23 -152.001 15l-8 51l223 79c36.667 -24.667 72.334 -50.167 107.001 -76.5s66.334 -52.5 95.001 -78.5l201 86c31.333 -4.66699 52.333 -8 63 -10s24.667 -6 42 -12l7 -37l-239 -102
c90.667 -98.667 155.667 -200.667 195 -306s59 -211 59 -317zM770 595.001c-16 50 -40.167 93.5 -72.5 130.5s-67.833 65.833 -106.5 86.5s-75.667 31 -111 31c-72.667 0 -127.5 -34.167 -164.5 -102.5s-55.5 -155.833 -55.5 -262.5c0 -70 13.167 -134.833 39.5 -194.5
s59 -107.667 98 -144s77.833 -54.5 116.5 -54.5c73.333 0 134.333 37.5 183 112.5s73 194.5 73 358.5v19.5v19.5z" />
    <glyph glyph-name="ntilde" unicode="&#xf1;" horiz-adv-x="1150" 
d="M668 0l0.000976562 52.999c91.333 24 137 44.333 137 61v504c0 78.667 -9 130.834 -27 156.501s-49 38.5 -93 38.5c-38 0 -83.833 -17.167 -137.5 -51.5s-112.834 -95.166 -177.501 -182.499v-465c0 -10 12.167 -20.333 36.5 -31s58.166 -20.667 101.499 -30v-53h-455v53
c44 11.333 77.833 21.666 101.5 30.999s35.5 19.333 35.5 30v590c0 34.667 -2.16699 60.167 -6.5 76.5s-16.166 27.833 -35.499 34.5s-51 12.667 -95 18v50c50.667 6.66699 97.167 16.5 139.5 29.5s84.166 28.833 125.499 47.5l37 -37l11 -214
c64.667 81.333 134.167 143.5 208.5 186.5s137.5 64.5 189.5 64.5c57.333 0 108.5 -18.333 153.5 -55s67.5 -95.334 67.5 -176.001v-615c0 -8.66699 9.83301 -17.667 29.5 -27s55.834 -20.666 108.501 -33.999v-53h-455zM943.001 1349c-16 -36 -36.167 -72.5 -60.5 -109.5
s-52.5 -68 -84.5 -93s-67 -37.5 -105 -37.5c-31.333 0 -61 9.16699 -89 27.5l-81.5 55c-26.333 18.333 -52.5 27.5 -78.5 27.5c-25.333 0 -49 -11 -71 -33s-45 -51.667 -69 -89l-63 24c15.333 36 35.166 72.667 59.499 110s52.5 68.5 84.5 93.5s67 37.5 105 37.5
c34.667 0 66.334 -9.33301 95.001 -28s55.5 -37.167 80.5 -55.5s48.5 -27.5 70.5 -27.5c24.667 0 49 11 73 33s47.333 52.667 70 92z" />
    <glyph glyph-name="ograve" unicode="&#xf2;" horiz-adv-x="1045" 
d="M970 485c0 -66.667 -12.3369 -130.668 -37.0039 -192.001s-58.667 -116.333 -102 -165s-93.166 -87.167 -149.499 -115.5s-115.5 -42.5 -177.5 -42.5c-86.667 0 -162.167 20.667 -226.5 62s-114.166 97.666 -149.499 168.999s-53 152.333 -53 243
c0 66 11.833 129.833 35.5 191.5s56.834 117 99.501 166s92.334 87.667 149.001 116s118 42.5 184 42.5c86 0 161 -20.667 225 -62s113.667 -97.666 149 -168.999s53 -152.666 53 -243.999zM782.996 449.999c0 70.667 -13 135.832 -39 195.499s-59.5 107.834 -100.5 144.501
s-84.167 55 -129.5 55c-64 0 -114.167 -16.333 -150.5 -49s-62.166 -77.167 -77.499 -133.5s-23 -119.5 -23 -189.5s13.833 -134.5 41.5 -193.5s62.167 -106.167 103.5 -141.5s82.666 -53 123.999 -53c89.333 0 153.5 32.667 192.5 98s58.5 154.333 58.5 267zM661.996 1081
c-8.66699 -8 -19 -15.168 -31 -21.501s-23.667 -11.166 -35 -14.499l-362 377l24 46c8.66699 2 24.667 5.16699 48 9.5s47 8.5 71 12.5s41.333 6.33301 52 7z" />
    <glyph glyph-name="oacute" unicode="&#xf3;" horiz-adv-x="1045" 
d="M970 485c0 -66.667 -12.3369 -130.668 -37.0039 -192.001s-58.667 -116.333 -102 -165s-93.166 -87.167 -149.499 -115.5s-115.5 -42.5 -177.5 -42.5c-86.667 0 -162.167 20.667 -226.5 62s-114.166 97.666 -149.499 168.999s-53 152.333 -53 243
c0 66 11.833 129.833 35.5 191.5s56.834 117 99.501 166s92.334 87.667 149.001 116s118 42.5 184 42.5c86 0 161 -20.667 225 -62s113.667 -97.666 149 -168.999s53 -152.666 53 -243.999zM782.996 449.999c0 70.667 -13 135.832 -39 195.499s-59.5 107.834 -100.5 144.501
s-84.167 55 -129.5 55c-64 0 -114.167 -16.333 -150.5 -49s-62.166 -77.167 -77.499 -133.5s-23 -119.5 -23 -189.5s13.833 -134.5 41.5 -193.5s62.167 -106.167 103.5 -141.5s82.666 -53 123.999 -53c89.333 0 153.5 32.667 192.5 98s58.5 154.333 58.5 267zM493.996 1045
c-12 2 -24.333 6.50098 -37 13.501s-22.667 13.5 -30 19.5l227 419c10 -0.666992 26.833 -2.83398 50.5 -6.50098l71 -11.5c23.667 -4 40.5 -7.33301 50.5 -10l26 -44z" />
    <glyph glyph-name="ocircumflex" unicode="&#xf4;" horiz-adv-x="1045" 
d="M970 485c0 -66.667 -12.3369 -130.668 -37.0039 -192.001s-58.667 -116.333 -102 -165s-93.166 -87.167 -149.499 -115.5s-115.5 -42.5 -177.5 -42.5c-86.667 0 -162.167 20.667 -226.5 62s-114.166 97.666 -149.499 168.999s-53 152.333 -53 243
c0 66 11.833 129.833 35.5 191.5s56.834 117 99.501 166s92.334 87.667 149.001 116s118 42.5 184 42.5c86 0 161 -20.667 225 -62s113.667 -97.666 149 -168.999s53 -152.666 53 -243.999zM782.996 449.999c0 70.667 -13 135.832 -39 195.499s-59.5 107.834 -100.5 144.501
s-84.167 55 -129.5 55c-64 0 -114.167 -16.333 -150.5 -49s-62.166 -77.167 -77.499 -133.5s-23 -119.5 -23 -189.5s13.833 -134.5 41.5 -193.5s62.167 -106.167 103.5 -141.5s82.666 -53 123.999 -53c89.333 0 153.5 32.667 192.5 98s58.5 154.333 58.5 267zM865.996 1097
c-8 -12.667 -15.001 -23.334 -21.001 -32.001s-15 -15.334 -27 -20.001l-276 253l-274 -253c-10.667 4.66699 -19.667 11.334 -27 20.001s-15.666 19.334 -24.999 32.001l269 382h117z" />
    <glyph glyph-name="otilde" unicode="&#xf5;" horiz-adv-x="1045" 
d="M970 485c0 -66.667 -12.3369 -130.668 -37.0039 -192.001s-58.667 -116.333 -102 -165s-93.166 -87.167 -149.499 -115.5s-115.5 -42.5 -177.5 -42.5c-86.667 0 -162.167 20.667 -226.5 62s-114.166 97.666 -149.499 168.999s-53 152.333 -53 243
c0 66 11.833 129.833 35.5 191.5s56.834 117 99.501 166s92.334 87.667 149.001 116s118 42.5 184 42.5c86 0 161 -20.667 225 -62s113.667 -97.666 149 -168.999s53 -152.666 53 -243.999zM782.996 449.999c0 70.667 -13 135.832 -39 195.499s-59.5 107.834 -100.5 144.501
s-84.167 55 -129.5 55c-64 0 -114.167 -16.333 -150.5 -49s-62.166 -77.167 -77.499 -133.5s-23 -119.5 -23 -189.5s13.833 -134.5 41.5 -193.5s62.167 -106.167 103.5 -141.5s82.666 -53 123.999 -53c89.333 0 153.5 32.667 192.5 98s58.5 154.333 58.5 267zM898.996 1349
c-16 -36 -36.167 -72.5 -60.5 -109.5s-52.5 -68 -84.5 -93s-67 -37.5 -105 -37.5c-31.333 0 -61 9.16699 -89 27.5l-81.5 55c-26.333 18.333 -52.5 27.5 -78.5 27.5c-25.333 0 -49 -11 -71 -33s-45 -51.667 -69 -89l-63 24c15.333 36 35.166 72.667 59.499 110
s52.5 68.5 84.5 93.5s67 37.5 105 37.5c34.667 0 66.334 -9.33301 95.001 -28s55.5 -37.167 80.5 -55.5s48.5 -27.5 70.5 -27.5c24.667 0 49 11 73 33s47.333 52.667 70 92z" />
    <glyph glyph-name="odieresis" unicode="&#xf6;" horiz-adv-x="1045" 
d="M970 485c0 -66.667 -12.3369 -130.668 -37.0039 -192.001s-58.667 -116.333 -102 -165s-93.166 -87.167 -149.499 -115.5s-115.5 -42.5 -177.5 -42.5c-86.667 0 -162.167 20.667 -226.5 62s-114.166 97.666 -149.499 168.999s-53 152.333 -53 243
c0 66 11.833 129.833 35.5 191.5s56.834 117 99.501 166s92.334 87.667 149.001 116s118 42.5 184 42.5c86 0 161 -20.667 225 -62s113.667 -97.666 149 -168.999s53 -152.666 53 -243.999zM782.996 449.999c0 70.667 -13 135.832 -39 195.499s-59.5 107.834 -100.5 144.501
s-84.167 55 -129.5 55c-64 0 -114.167 -16.333 -150.5 -49s-62.166 -77.167 -77.499 -133.5s-23 -119.5 -23 -189.5s13.833 -134.5 41.5 -193.5s62.167 -106.167 103.5 -141.5s82.666 -53 123.999 -53c89.333 0 153.5 32.667 192.5 98s58.5 154.333 58.5 267zM451.996 1263
c0 -41.333 -12.667 -76.667 -38 -106s-56 -44 -92 -44c-63.333 0 -95 35 -95 105c0 41.333 12.667 76.5 38 105.5s55.333 43.5 90 43.5c64.667 0 97 -34.667 97 -104zM858.996 1263c0 -41.333 -12.501 -76.667 -37.501 -106s-55.5 -44 -91.5 -44c-64 0 -96 35 -96 105
c0 41.333 12.833 76.5 38.5 105.5s55.834 43.5 90.501 43.5c64 0 96 -34.667 96 -104z" />
    <glyph glyph-name="divide" unicode="&#xf7;" horiz-adv-x="848" 
d="M789 596c-3.33301 -13.333 -8.83301 -29.667 -16.5 -49s-14.167 -34.333 -19.5 -45h-667l-28 26c4 14 9.5 30 16.5 48s13.5 33.667 19.5 47h668zM512 827.999c0 -32 -9.66699 -60 -29 -84s-43.333 -36 -72 -36c-49.333 0 -74 28.333 -74 85
c0 33.333 9.83301 61.5 29.5 84.5s43.5 34.5 71.5 34.5c49.333 0 74 -28 74 -84zM512 334.999c0 -32.667 -9.66699 -60.833 -29 -84.5s-43.333 -35.5 -72 -35.5c-49.333 0 -74 28.333 -74 85c0 32.667 9.83301 60.5 29.5 83.5s43.5 34.5 71.5 34.5
c49.333 0 74 -27.667 74 -83z" />
    <glyph glyph-name="oslash" unicode="&#xf8;" horiz-adv-x="1045" 
d="M970 485c0 -66.667 -12.3379 -130.667 -37.0049 -192s-58.667 -116.333 -102 -165s-93.166 -87.167 -149.499 -115.5s-115.5 -42.5 -177.5 -42.5c-45.333 0 -88.166 6.16699 -128.499 18.5s-76.5 29.5 -108.5 51.5l-18 -23c-12 -10 -33.167 -22.833 -63.5 -38.5
s-54.166 -26.167 -71.499 -31.5l-28 32l101 133c-35.333 42 -62.833 91.5 -82.5 148.5s-29.5 118.167 -29.5 183.5c0 66 11.833 129.833 35.5 191.5s56.834 117 99.501 166s92.334 87.667 149.001 116s118 42.5 184 42.5c45.333 0 88 -6.16699 128 -18.5
s76.333 -29.833 109 -52.5l19 25l65 39.5c25.333 15 48 24.833 68 29.5l31 -32l-103 -135c34.667 -41.333 61.667 -90.5 81 -147.5s29 -118.167 29 -183.5zM309.995 272l368.002 484c-23.333 27.333 -49.333 49 -78 65s-57.334 24 -86.001 24
c-64 0 -114.333 -16.333 -151 -49s-62.834 -77.167 -78.501 -133.5s-23.5 -119.5 -23.5 -189.5c0 -35.333 4.33301 -70.333 13 -105s20.667 -66.667 36 -96zM531.997 85c89.333 0 153.834 32.667 193.501 98s59.5 154.333 59.5 267c0 36.667 -4.33301 72.667 -13 108
s-20.334 68 -35.001 98l-366 -480c24 -28 50.167 -50.167 78.5 -66.5s55.833 -24.5 82.5 -24.5z" />
    <glyph glyph-name="ugrave" unicode="&#xf9;" horiz-adv-x="1108" 
d="M1094 92c-48.667 -32 -97.0039 -60.333 -145.004 -85s-80 -37 -96 -37c-24 0 -44.167 13.833 -60.5 41.5s-27.166 75.834 -32.499 144.501c-55.333 -52.667 -104.166 -92.334 -146.499 -119.001s-80 -44.5 -113 -53.5s-63.833 -13.5 -92.5 -13.5
c-41.333 0 -80.5 8.33301 -117.5 25s-67.167 47.334 -90.5 92.001s-35 108.667 -35 192v425c0 42 -2.16699 72.333 -6.5 91s-15.333 31 -33 37s-46.5 11 -86.5 15v50c54 6 101.5 13.667 142.5 23s85.5 22.666 133.5 39.999l30 -41v-582c0 -90 12.333 -150.667 37 -182
s59.334 -47 104.001 -47c38 0 78.833 11.333 122.5 34s94.167 62.667 151.5 120v442c0 40 -3 69.667 -9 89s-18.667 32.666 -38 39.999s-49.333 12 -90 14v50c54 6 104.833 14.833 152.5 26.5s91.834 23.834 132.501 36.501l32 -41v-655c0 -81.333 7.66699 -128 23 -140
c7.33301 -5.33301 20 -6.5 38 -3.5s44 11.833 78 26.5zM674.996 1081c-8.66699 -8 -19 -15.168 -31 -21.501s-23.667 -11.166 -35 -14.499l-362 377l24 46c8.66699 2 24.667 5.16699 48 9.5s47 8.5 71 12.5s41.333 6.33301 52 7z" />
    <glyph glyph-name="uacute" unicode="&#xfa;" horiz-adv-x="1108" 
d="M1094 92c-48.667 -32 -97.0039 -60.333 -145.004 -85s-80 -37 -96 -37c-24 0 -44.167 13.833 -60.5 41.5s-27.166 75.834 -32.499 144.501c-55.333 -52.667 -104.166 -92.334 -146.499 -119.001s-80 -44.5 -113 -53.5s-63.833 -13.5 -92.5 -13.5
c-41.333 0 -80.5 8.33301 -117.5 25s-67.167 47.334 -90.5 92.001s-35 108.667 -35 192v425c0 42 -2.16699 72.333 -6.5 91s-15.333 31 -33 37s-46.5 11 -86.5 15v50c54 6 101.5 13.667 142.5 23s85.5 22.666 133.5 39.999l30 -41v-582c0 -90 12.333 -150.667 37 -182
s59.334 -47 104.001 -47c38 0 78.833 11.333 122.5 34s94.167 62.667 151.5 120v442c0 40 -3 69.667 -9 89s-18.667 32.666 -38 39.999s-49.333 12 -90 14v50c54 6 104.833 14.833 152.5 26.5s91.834 23.834 132.501 36.501l32 -41v-655c0 -81.333 7.66699 -128 23 -140
c7.33301 -5.33301 20 -6.5 38 -3.5s44 11.833 78 26.5zM506.996 1045c-12 2 -24.333 6.50098 -37 13.501s-22.667 13.5 -30 19.5l227 419c10 -0.666992 26.833 -2.83398 50.5 -6.50098l71 -11.5c23.667 -4 40.5 -7.33301 50.5 -10l26 -44z" />
    <glyph glyph-name="ucircumflex" unicode="&#xfb;" horiz-adv-x="1108" 
d="M1094 92c-48.667 -32 -97.0039 -60.333 -145.004 -85s-80 -37 -96 -37c-24 0 -44.167 13.833 -60.5 41.5s-27.166 75.834 -32.499 144.501c-55.333 -52.667 -104.166 -92.334 -146.499 -119.001s-80 -44.5 -113 -53.5s-63.833 -13.5 -92.5 -13.5
c-41.333 0 -80.5 8.33301 -117.5 25s-67.167 47.334 -90.5 92.001s-35 108.667 -35 192v425c0 42 -2.16699 72.333 -6.5 91s-15.333 31 -33 37s-46.5 11 -86.5 15v50c54 6 101.5 13.667 142.5 23s85.5 22.666 133.5 39.999l30 -41v-582c0 -90 12.333 -150.667 37 -182
s59.334 -47 104.001 -47c38 0 78.833 11.333 122.5 34s94.167 62.667 151.5 120v442c0 40 -3 69.667 -9 89s-18.667 32.666 -38 39.999s-49.333 12 -90 14v50c54 6 104.833 14.833 152.5 26.5s91.834 23.834 132.501 36.501l32 -41v-655c0 -81.333 7.66699 -128 23 -140
c7.33301 -5.33301 20 -6.5 38 -3.5s44 11.833 78 26.5zM878.996 1097c-8 -12.667 -15.001 -23.334 -21.001 -32.001s-15 -15.334 -27 -20.001l-276 253l-274 -253c-10.667 4.66699 -19.667 11.334 -27 20.001s-15.666 19.334 -24.999 32.001l269 382h117z" />
    <glyph glyph-name="udieresis" unicode="&#xfc;" horiz-adv-x="1108" 
d="M1094 92c-48.667 -32 -97.0039 -60.333 -145.004 -85s-80 -37 -96 -37c-24 0 -44.167 13.833 -60.5 41.5s-27.166 75.834 -32.499 144.501c-55.333 -52.667 -104.166 -92.334 -146.499 -119.001s-80 -44.5 -113 -53.5s-63.833 -13.5 -92.5 -13.5
c-41.333 0 -80.5 8.33301 -117.5 25s-67.167 47.334 -90.5 92.001s-35 108.667 -35 192v425c0 42 -2.16699 72.333 -6.5 91s-15.333 31 -33 37s-46.5 11 -86.5 15v50c54 6 101.5 13.667 142.5 23s85.5 22.666 133.5 39.999l30 -41v-582c0 -90 12.333 -150.667 37 -182
s59.334 -47 104.001 -47c38 0 78.833 11.333 122.5 34s94.167 62.667 151.5 120v442c0 40 -3 69.667 -9 89s-18.667 32.666 -38 39.999s-49.333 12 -90 14v50c54 6 104.833 14.833 152.5 26.5s91.834 23.834 132.501 36.501l32 -41v-655c0 -81.333 7.66699 -128 23 -140
c7.33301 -5.33301 20 -6.5 38 -3.5s44 11.833 78 26.5zM464.996 1263c0 -41.333 -12.667 -76.667 -38 -106s-56 -44 -92 -44c-63.333 0 -95 35 -95 105c0 41.333 12.667 76.5 38 105.5s55.333 43.5 90 43.5c64.667 0 97 -34.667 97 -104zM871.996 1263
c0 -41.333 -12.501 -76.667 -37.501 -106s-55.5 -44 -91.5 -44c-64 0 -96 35 -96 105c0 41.333 12.833 76.5 38.5 105.5s55.834 43.5 90.501 43.5c64 0 96 -34.667 96 -104z" />
    <glyph glyph-name="yacute" unicode="&#xfd;" horiz-adv-x="1020" 
d="M1002 877c-40 -9.33301 -66.667 -18.002 -80 -26.002s-23.333 -21.667 -30 -41l-334 -889c-56 -148 -122.833 -254.667 -200.5 -320s-152.834 -98 -225.501 -98c-50.667 0 -94 6.5 -130 19.5s-54 25.833 -54 38.5c0 6 7.66699 19.333 23 40s33 42 53 64s37 37.333 51 46
c32 -20 64.167 -31 96.5 -33s61.166 1.33301 86.499 10c24 8 52.667 32.333 86 73s62 89.667 86 147l29 69l-330 832c-7.33301 18.667 -19.5 32.834 -36.5 42.501s-41.833 18.167 -74.5 25.5v53h408v-53c-50 -6.66699 -82.167 -14.167 -96.5 -22.5
s-17.166 -23.5 -8.49902 -45.5l232 -592l220 592c7.33301 20.667 3.83301 35.334 -10.5 44.001s-45.166 16.667 -92.499 24v53h332v-53zM486 1045c-12 2 -24.333 6.50098 -37 13.501s-22.667 13.5 -30 19.5l227 419c10 -0.666992 26.833 -2.83398 50.5 -6.50098l71 -11.5
c23.667 -4 40.5 -7.33301 50.5 -10l26 -44z" />
    <glyph glyph-name="thorn" unicode="&#xfe;" horiz-adv-x="1105" 
d="M1030 497c0 -60.667 -11.501 -122.001 -34.501 -184.001s-54.167 -118.833 -93.5 -170.5s-84 -93.334 -134 -125.001s-102.333 -47.5 -157 -47.5c-26 0 -60 7.83301 -102 23.5s-88.333 42.834 -139 81.501v-440c0 -10.667 12.667 -21.334 38 -32.001
s69.333 -20.667 132 -30v-53h-487v53c44 10.667 77.833 20.834 101.5 30.501s35.5 20.167 35.5 31.5v1652c0 40 -3.66699 68.5 -11 85.5s-20.833 28.167 -40.5 33.5s-48.167 10 -85.5 14v50c56.667 9.33301 106.334 19.833 149.001 31.5s85.667 27.834 129 48.501l39 -37
v-759c70.667 76 135.5 129.333 194.5 160s107.5 46 145.5 46c91.333 0 167.5 -40.5 228.5 -121.5s91.5 -194.833 91.5 -341.5zM864.999 414.999c0 86 -11.334 159.167 -34.001 219.5s-52.167 106.333 -88.5 138s-75.166 47.5 -116.499 47.5c-24 0 -58 -12.833 -102 -38.5
s-95.333 -75.167 -154 -148.5v-415c56.667 -40 107.167 -68.833 151.5 -86.5s87.5 -26.5 129.5 -26.5c45.333 0 84 14.5 116 43.5s56.333 67 73 114s25 97.833 25 152.5z" />
    <glyph glyph-name="ydieresis" unicode="&#xff;" horiz-adv-x="1020" 
d="M1002 877c-40 -9.33301 -66.667 -18.002 -80 -26.002s-23.333 -21.667 -30 -41l-334 -889c-56 -148 -122.833 -254.667 -200.5 -320s-152.834 -98 -225.501 -98c-50.667 0 -94 6.5 -130 19.5s-54 25.833 -54 38.5c0 6 7.66699 19.333 23 40s33 42 53 64s37 37.333 51 46
c32 -20 64.167 -31 96.5 -33s61.166 1.33301 86.499 10c24 8 52.667 32.333 86 73s62 89.667 86 147l29 69l-330 832c-7.33301 18.667 -19.5 32.834 -36.5 42.501s-41.833 18.167 -74.5 25.5v53h408v-53c-50 -6.66699 -82.167 -14.167 -96.5 -22.5
s-17.166 -23.5 -8.49902 -45.5l232 -592l220 592c7.33301 20.667 3.83301 35.334 -10.5 44.001s-45.166 16.667 -92.499 24v53h332v-53zM444 1263c0 -41.333 -12.667 -76.667 -38 -106s-56 -44 -92 -44c-63.333 0 -95 35 -95 105c0 41.333 12.667 76.5 38 105.5
s55.333 43.5 90 43.5c64.667 0 97 -34.667 97 -104zM851 1263c0 -41.333 -12.501 -76.667 -37.501 -106s-55.5 -44 -91.5 -44c-64 0 -96 35 -96 105c0 41.333 12.833 76.5 38.5 105.5s55.834 43.5 90.501 43.5c64 0 96 -34.667 96 -104z" />
    <glyph glyph-name="Amacron" unicode="&#x100;" horiz-adv-x="1242" 
d="M385 440l-106.002 -318.999c-6.66699 -20.667 2 -35.667 26 -45s63.333 -17 118 -23v-53h-423v53c45.333 8 81 16.333 107 25s42.333 23 49 43l364 1106c20.667 20 45.334 37.5 74.001 52.5s54.667 27.5 78 37.5l420 -1196c6.66699 -18.667 19 -33.334 37 -44.001
s48.667 -18.667 92 -24v-53h-447v53c51.333 3.33301 86.833 10 106.5 20s25.834 26 18.501 48l-110 319h-404zM753.998 540.001l-172 498l-164 -498h336zM977.998 1565c-3.33301 -14.667 -10.334 -34.5 -21.001 -59.5s-18.334 -43.5 -23.001 -55.5h-650l-25 27
c2.66699 14.667 9.33398 34.167 20.001 58.5s19.334 42.833 26.001 55.5h648z" />
    <glyph glyph-name="amacron" unicode="&#x101;" horiz-adv-x="968" 
d="M956 92c-56.667 -38.667 -107.166 -68.6689 -151.499 -90.002s-76.833 -32 -97.5 -32c-24.667 0 -44.834 17.5 -60.501 52.5s-23.5 82.167 -23.5 141.5v533c0 44 -10.833 80.833 -32.5 110.5s-62.5 43.834 -122.5 42.501c-39.333 -0.666992 -75.333 -13 -108 -37
s-47 -56 -43 -96c0.666992 -6.66699 -7.5 -14 -24.5 -22s-37.667 -15.667 -62 -23s-47.333 -13 -69 -17s-36.5 -5 -44.5 -3l-16 44c20.667 47.333 55.5 91 104.5 131s105 72.167 168 96.5s125.833 36.5 188.5 36.5c78.667 0 138.5 -20.5 179.5 -61.5s61.5 -95.5 61.5 -163.5
v-537c0 -52 13.333 -78 40 -78c9.33301 0 21 1.83301 35 5.5s34.333 10.834 61 21.501zM633.001 482.998c-70 -11.333 -124.667 -22.334 -164 -33.001s-69.333 -22 -90 -34s-38 -25 -52 -39c-17.333 -18 -31.333 -38 -42 -60s-16 -48 -16 -78
c0 -33.333 6.16699 -59 18.5 -77s26.666 -30.333 42.999 -37s30.166 -10 41.499 -10c36 0 75.333 9.83301 118 29.5s90.334 52.834 143.001 99.501l8 -87c-62.667 -67.333 -125 -115.333 -187 -144s-115.667 -43 -161 -43c-34 0 -67.667 7.66699 -101 23
s-61.166 39.333 -83.499 72s-33.5 74.667 -33.5 126c0 49.333 8.66699 90.5 26 123.5s38.333 61.833 63 86.5c21.333 22 48 42.5 80 61.5s78.167 37 138.5 54s143.833 33.5 250.5 49.5v-83zM867.001 1290c-3.33301 -14.667 -10.332 -34.5 -20.999 -59.5l-24 -55.5h-665
l-25 27c3.33301 14.667 10.166 34.167 20.499 58.5s18.833 42.833 25.5 55.5h663z" />
    <glyph glyph-name="Abreve" unicode="&#x102;" horiz-adv-x="1242" 
d="M385 440l-106.002 -318.999c-6.66699 -20.667 2 -35.667 26 -45s63.333 -17 118 -23v-53h-423v53c45.333 8 81 16.333 107 25s42.333 23 49 43l364 1106c20.667 20 45.334 37.5 74.001 52.5s54.667 27.5 78 37.5l420 -1196c6.66699 -18.667 19 -33.334 37 -44.001
s48.667 -18.667 92 -24v-53h-447v53c51.333 3.33301 86.833 10 106.5 20s25.834 26 18.501 48l-110 319h-404zM753.998 540.001l-172 498l-164 -498h336zM945.998 1683c-40 -108 -89.833 -184.164 -149.5 -228.497s-120.834 -66.5 -183.501 -66.5
c-68 0 -131.167 22.167 -189.5 66.5s-107.5 120.5 -147.5 228.5c16 23.333 36 40.666 60 51.999c33.333 -70.667 76 -120.834 128 -150.501s100.333 -44.5 145 -44.5c46.667 0 96.334 14.667 149.001 44s95 79.666 127 150.999c24 -10.667 44.333 -28 61 -52z" />
    <glyph glyph-name="abreve" unicode="&#x103;" horiz-adv-x="968" 
d="M956 92c-56.667 -38.667 -107.166 -68.6689 -151.499 -90.002s-76.833 -32 -97.5 -32c-24.667 0 -44.834 17.5 -60.501 52.5s-23.5 82.167 -23.5 141.5v533c0 44 -10.833 80.833 -32.5 110.5s-62.5 43.834 -122.5 42.501c-39.333 -0.666992 -75.333 -13 -108 -37
s-47 -56 -43 -96c0.666992 -6.66699 -7.5 -14 -24.5 -22s-37.667 -15.667 -62 -23s-47.333 -13 -69 -17s-36.5 -5 -44.5 -3l-16 44c20.667 47.333 55.5 91 104.5 131s105 72.167 168 96.5s125.833 36.5 188.5 36.5c78.667 0 138.5 -20.5 179.5 -61.5s61.5 -95.5 61.5 -163.5
v-537c0 -52 13.333 -78 40 -78c9.33301 0 21 1.83301 35 5.5s34.333 10.834 61 21.501zM633.001 482.998c-70 -11.333 -124.667 -22.334 -164 -33.001s-69.333 -22 -90 -34s-38 -25 -52 -39c-17.333 -18 -31.333 -38 -42 -60s-16 -48 -16 -78
c0 -33.333 6.16699 -59 18.5 -77s26.666 -30.333 42.999 -37s30.166 -10 41.499 -10c36 0 75.333 9.83301 118 29.5s90.334 52.834 143.001 99.501l8 -87c-62.667 -67.333 -125 -115.333 -187 -144s-115.667 -43 -161 -43c-34 0 -67.667 7.66699 -101 23
s-61.166 39.333 -83.499 72s-33.5 74.667 -33.5 126c0 49.333 8.66699 90.5 26 123.5s38.333 61.833 63 86.5c21.333 22 48 42.5 80 61.5s78.167 37 138.5 54s143.833 33.5 250.5 49.5v-83zM827.001 1363c-40 -108 -89.833 -184.164 -149.5 -228.497
s-120.834 -66.5 -183.501 -66.5c-68 0 -131.167 22.167 -189.5 66.5s-107.5 120.5 -147.5 228.5c16 23.333 36 40.666 60 51.999c33.333 -70.667 76 -120.834 128 -150.501s100.333 -44.5 145 -44.5c46.667 0 96.334 14.667 149.001 44s95 79.666 127 150.999
c24 -10.667 44.333 -28 61 -52z" />
    <glyph glyph-name="Aogonek" unicode="&#x104;" horiz-adv-x="1242" 
d="M385 440l-106.002 -318.999c-6.66699 -20.667 2 -35.667 26 -45s63.333 -17 118 -23v-53h-423v53c45.333 8 81 16.333 107 25s42.333 23 49 43l364 1106c20.667 20 45.334 37.5 74.001 52.5s54.667 27.5 78 37.5l420 -1196c6.66699 -18.667 19 -33.334 37 -44.001
s48.667 -18.667 92 -24v-53h-447v53c51.333 3.33301 86.833 10 106.5 20s25.834 26 18.501 48l-110 319h-404zM753.998 540.001l-172 498l-164 -498h336zM1134 -298.999c-30 -36 -68.668 -69.165 -116.001 -99.498s-91.333 -45.5 -132 -45.5c-25.333 0 -50.5 4 -75.5 12
s-45.833 22.5 -62.5 43.5s-25 50.833 -25 89.5c0 120 104.333 234 313 342l57 -19c-86.667 -58.667 -142.667 -111.334 -168 -158.001s-38 -85.667 -38 -117c0 -24.667 7.83301 -42.834 23.5 -54.501s35.5 -17.5 59.5 -17.5c16.667 0 36.834 5.5 60.501 16.5
s49.5 29.167 77.5 54.5z" />
    <glyph glyph-name="aogonek" unicode="&#x105;" horiz-adv-x="968" 
d="M956 92c-56.667 -38.667 -107.166 -68.6689 -151.499 -90.002s-76.833 -32 -97.5 -32c-24.667 0 -44.834 17.5 -60.501 52.5s-23.5 82.167 -23.5 141.5v533c0 44 -10.833 80.833 -32.5 110.5s-62.5 43.834 -122.5 42.501c-39.333 -0.666992 -75.333 -13 -108 -37
s-47 -56 -43 -96c0.666992 -6.66699 -7.5 -14 -24.5 -22s-37.667 -15.667 -62 -23s-47.333 -13 -69 -17s-36.5 -5 -44.5 -3l-16 44c20.667 47.333 55.5 91 104.5 131s105 72.167 168 96.5s125.833 36.5 188.5 36.5c78.667 0 138.5 -20.5 179.5 -61.5s61.5 -95.5 61.5 -163.5
v-537c0 -52 13.333 -78 40 -78c9.33301 0 21 1.83301 35 5.5s34.333 10.834 61 21.501zM633.001 482.998c-70 -11.333 -124.667 -22.334 -164 -33.001s-69.333 -22 -90 -34s-38 -25 -52 -39c-17.333 -18 -31.333 -38 -42 -60s-16 -48 -16 -78
c0 -33.333 6.16699 -59 18.5 -77s26.666 -30.333 42.999 -37s30.166 -10 41.499 -10c36 0 75.333 9.83301 118 29.5s90.334 52.834 143.001 99.501l8 -87c-62.667 -67.333 -125 -115.333 -187 -144s-115.667 -43 -161 -43c-34 0 -67.667 7.66699 -101 23
s-61.166 39.333 -83.499 72s-33.5 74.667 -33.5 126c0 49.333 8.66699 90.5 26 123.5s38.333 61.833 63 86.5c21.333 22 48 42.5 80 61.5s78.167 37 138.5 54s143.833 33.5 250.5 49.5v-83zM893.001 -299.003c-30 -36 -68.668 -69.165 -116.001 -99.498
s-91.333 -45.5 -132 -45.5c-25.333 0 -50.5 4 -75.5 12s-45.833 22.5 -62.5 43.5s-25 50.833 -25 89.5c0 120 104.333 234 313 342l57 -19c-86.667 -58.667 -142.667 -111.334 -168 -158.001s-38 -85.667 -38 -117c0 -24.667 7.83301 -42.834 23.5 -54.501
s35.5 -17.5 59.5 -17.5c16.667 0 36.834 5.5 60.501 16.5s49.5 29.167 77.5 54.5z" />
    <glyph glyph-name="Cacute" unicode="&#x106;" horiz-adv-x="1113" 
d="M1036 211c-85.333 -90 -165.5 -152.665 -240.5 -187.998s-148.167 -53 -219.5 -53c-63.333 0 -125.5 13.833 -186.5 41.5s-115.833 68 -164.5 121s-87.5 117.667 -116.5 194s-43.5 162.833 -43.5 259.5c0 142 27.833 265.667 83.5 371s130.167 187.166 223.5 245.499
s196.333 87.5 309 87.5c71.333 0 136.5 -9.83301 195.5 -29.5s105.833 -43.167 140.5 -70.5c4.66699 -4 1 -16.5 -11 -37.5s-26.5 -42.833 -43.5 -65.5s-30.5 -39.334 -40.5 -50.001l-45 9c-34 40 -74 71.167 -120 93.5s-97.667 33.5 -155 33.5
c-34 0 -71.167 -9.33301 -111.5 -28s-78.5 -49.167 -114.5 -91.5s-65.5 -98.666 -88.5 -168.999s-34.5 -157.5 -34.5 -261.5c0 -116.667 20.667 -213.334 62 -290.001s93 -133.834 155 -171.501s124 -56.5 186 -56.5c36 0 83.167 11.333 141.5 34
s123.833 64.334 196.5 125.001c6.66699 -4 14.667 -12.5 24 -25.5s15.333 -22.167 18 -27.5zM485 1364c-11.333 5.33301 -20.999 12.6689 -28.999 22.002s-16 19.666 -24 30.999l381 325c9.33301 -4.66699 24.166 -12.5 44.499 -23.5l60 -34
c19.667 -11.667 33.167 -20.834 40.5 -27.501l9 -51z" />
    <glyph glyph-name="cacute" unicode="&#x107;" horiz-adv-x="908" 
d="M858 190c-58 -67.333 -108.333 -116.499 -151 -147.499s-82.334 -50.833 -119.001 -59.5s-76 -13 -118 -13c-67.333 0 -131.166 18.833 -191.499 56.5s-109.333 92 -147 163s-56.5 155.833 -56.5 254.5c0 96 22.667 183 68 261s107.333 140 186 186
s167.334 69 266.001 69c44 0 91 -7.33301 141 -22s86.333 -33.667 109 -57c2 -10.667 -0.666992 -29.5 -8 -56.5s-16.5 -54 -27.5 -81s-20.5 -46.5 -28.5 -58.5l-47 10c-14.667 37.333 -39.834 71.666 -75.501 102.999s-85.167 47 -148.5 47c-44 0 -85.5 -13.333 -124.5 -40
s-70.5 -67.334 -94.5 -122.001s-36 -124 -36 -208c0 -74 13.5 -138.167 40.5 -192.5s62.833 -96.166 107.5 -125.499s92.667 -44 144 -44c25.333 0 49 2.16699 71 6.5s48 15.333 78 33s69.333 46.5 118 86.5zM448 1045c-12 2 -24.333 6.50098 -37 13.501
s-22.667 13.5 -30 19.5l227 419c10 -0.666992 26.833 -2.83398 50.5 -6.50098l71 -11.5c23.667 -4 40.5 -7.33301 50.5 -10l26 -44z" />
    <glyph glyph-name="Ccircumflex" unicode="&#x108;" horiz-adv-x="1113" 
d="M1036 211c-85.333 -90 -165.5 -152.665 -240.5 -187.998s-148.167 -53 -219.5 -53c-63.333 0 -125.5 13.833 -186.5 41.5s-115.833 68 -164.5 121s-87.5 117.667 -116.5 194s-43.5 162.833 -43.5 259.5c0 142 27.833 265.667 83.5 371s130.167 187.166 223.5 245.499
s196.333 87.5 309 87.5c71.333 0 136.5 -9.83301 195.5 -29.5s105.833 -43.167 140.5 -70.5c4.66699 -4 1 -16.5 -11 -37.5s-26.5 -42.833 -43.5 -65.5s-30.5 -39.334 -40.5 -50.001l-45 9c-34 40 -74 71.167 -120 93.5s-97.667 33.5 -155 33.5
c-34 0 -71.167 -9.33301 -111.5 -28s-78.5 -49.167 -114.5 -91.5s-65.5 -98.666 -88.5 -168.999s-34.5 -157.5 -34.5 -261.5c0 -116.667 20.667 -213.334 62 -290.001s93 -133.834 155 -171.501s124 -56.5 186 -56.5c36 0 83.167 11.333 141.5 34
s123.833 64.334 196.5 125.001c6.66699 -4 14.667 -12.5 24 -25.5s15.333 -22.167 18 -27.5zM945 1417c-8 -12.667 -15.1689 -23.334 -21.502 -32.001s-15.166 -15.334 -26.499 -20.001l-276 195l-274 -195c-10.667 4.66699 -19.667 11.334 -27 20.001
s-15.666 19.334 -24.999 32.001l269 317h117z" />
    <glyph glyph-name="ccircumflex" unicode="&#x109;" horiz-adv-x="908" 
d="M858 190c-58 -67.333 -108.333 -116.499 -151 -147.499s-82.334 -50.833 -119.001 -59.5s-76 -13 -118 -13c-67.333 0 -131.166 18.833 -191.499 56.5s-109.333 92 -147 163s-56.5 155.833 -56.5 254.5c0 96 22.667 183 68 261s107.333 140 186 186
s167.334 69 266.001 69c44 0 91 -7.33301 141 -22s86.333 -33.667 109 -57c2 -10.667 -0.666992 -29.5 -8 -56.5s-16.5 -54 -27.5 -81s-20.5 -46.5 -28.5 -58.5l-47 10c-14.667 37.333 -39.834 71.666 -75.501 102.999s-85.167 47 -148.5 47c-44 0 -85.5 -13.333 -124.5 -40
s-70.5 -67.334 -94.5 -122.001s-36 -124 -36 -208c0 -74 13.5 -138.167 40.5 -192.5s62.833 -96.166 107.5 -125.499s92.667 -44 144 -44c25.333 0 49 2.16699 71 6.5s48 15.333 78 33s69.333 46.5 118 86.5zM820 1097c-8 -12.667 -15.001 -23.334 -21.001 -32.001
s-15 -15.334 -27 -20.001l-276 253l-274 -253c-10.667 4.66699 -19.667 11.334 -27 20.001s-15.666 19.334 -24.999 32.001l269 382h117z" />
    <glyph glyph-name="Cdotaccent" unicode="&#x10a;" horiz-adv-x="1113" 
d="M1036 211c-85.333 -90 -165.5 -152.665 -240.5 -187.998s-148.167 -53 -219.5 -53c-63.333 0 -125.5 13.833 -186.5 41.5s-115.833 68 -164.5 121s-87.5 117.667 -116.5 194s-43.5 162.833 -43.5 259.5c0 142 27.833 265.667 83.5 371s130.167 187.166 223.5 245.499
s196.333 87.5 309 87.5c71.333 0 136.5 -9.83301 195.5 -29.5s105.833 -43.167 140.5 -70.5c4.66699 -4 1 -16.5 -11 -37.5s-26.5 -42.833 -43.5 -65.5s-30.5 -39.334 -40.5 -50.001l-45 9c-34 40 -74 71.167 -120 93.5s-97.667 33.5 -155 33.5
c-34 0 -71.167 -9.33301 -111.5 -28s-78.5 -49.167 -114.5 -91.5s-65.5 -98.666 -88.5 -168.999s-34.5 -157.5 -34.5 -261.5c0 -116.667 20.667 -213.334 62 -290.001s93 -133.834 155 -171.501s124 -56.5 186 -56.5c36 0 83.167 11.333 141.5 34
s123.833 64.334 196.5 125.001c6.66699 -4 14.667 -12.5 24 -25.5s15.333 -22.167 18 -27.5zM735 1543c0 -41.333 -12.501 -76.667 -37.501 -106s-55.5 -44 -91.5 -44c-64 0 -96 35 -96 105c0 41.333 12.833 76.5 38.5 105.5s55.834 43.5 90.501 43.5
c64 0 96 -34.667 96 -104z" />
    <glyph glyph-name="cdotaccent" unicode="&#x10b;" horiz-adv-x="908" 
d="M858 190c-58 -67.333 -108.333 -116.499 -151 -147.499s-82.334 -50.833 -119.001 -59.5s-76 -13 -118 -13c-67.333 0 -131.166 18.833 -191.499 56.5s-109.333 92 -147 163s-56.5 155.833 -56.5 254.5c0 96 22.667 183 68 261s107.333 140 186 186
s167.334 69 266.001 69c44 0 91 -7.33301 141 -22s86.333 -33.667 109 -57c2 -10.667 -0.666992 -29.5 -8 -56.5s-16.5 -54 -27.5 -81s-20.5 -46.5 -28.5 -58.5l-47 10c-14.667 37.333 -39.834 71.666 -75.501 102.999s-85.167 47 -148.5 47c-44 0 -85.5 -13.333 -124.5 -40
s-70.5 -67.334 -94.5 -122.001s-36 -124 -36 -208c0 -74 13.5 -138.167 40.5 -192.5s62.833 -96.166 107.5 -125.499s92.667 -44 144 -44c25.333 0 49 2.16699 71 6.5s48 15.333 78 33s69.333 46.5 118 86.5zM609 1263c0 -41.333 -12.501 -76.667 -37.501 -106
s-55.5 -44 -91.5 -44c-64 0 -96 35 -96 105c0 41.333 12.833 76.5 38.5 105.5s55.834 43.5 90.501 43.5c64 0 96 -34.667 96 -104z" />
    <glyph glyph-name="Ccaron" unicode="&#x10c;" horiz-adv-x="1113" 
d="M1036 211c-85.333 -90 -165.5 -152.665 -240.5 -187.998s-148.167 -53 -219.5 -53c-63.333 0 -125.5 13.833 -186.5 41.5s-115.833 68 -164.5 121s-87.5 117.667 -116.5 194s-43.5 162.833 -43.5 259.5c0 142 27.833 265.667 83.5 371s130.167 187.166 223.5 245.499
s196.333 87.5 309 87.5c71.333 0 136.5 -9.83301 195.5 -29.5s105.833 -43.167 140.5 -70.5c4.66699 -4 1 -16.5 -11 -37.5s-26.5 -42.833 -43.5 -65.5s-30.5 -39.334 -40.5 -50.001l-45 9c-34 40 -74 71.167 -120 93.5s-97.667 33.5 -155 33.5
c-34 0 -71.167 -9.33301 -111.5 -28s-78.5 -49.167 -114.5 -91.5s-65.5 -98.666 -88.5 -168.999s-34.5 -157.5 -34.5 -261.5c0 -116.667 20.667 -213.334 62 -290.001s93 -133.834 155 -171.501s124 -56.5 186 -56.5c36 0 83.167 11.333 141.5 34
s123.833 64.334 196.5 125.001c6.66699 -4 14.667 -12.5 24 -25.5s15.333 -22.167 18 -27.5zM681 1389l-116.999 -0.000976562l-266 311l23.5 32.5c6.33301 8.33301 15.166 15.5 26.499 21.5l277 -194l273 194c11.333 -6 20.5 -13.167 27.5 -21.5
s14.833 -19.166 23.5 -32.499z" />
    <glyph glyph-name="ccaron" unicode="&#x10d;" horiz-adv-x="908" 
d="M858 190c-58 -67.333 -108.333 -116.499 -151 -147.499s-82.334 -50.833 -119.001 -59.5s-76 -13 -118 -13c-67.333 0 -131.166 18.833 -191.499 56.5s-109.333 92 -147 163s-56.5 155.833 -56.5 254.5c0 96 22.667 183 68 261s107.333 140 186 186
s167.334 69 266.001 69c44 0 91 -7.33301 141 -22s86.333 -33.667 109 -57c2 -10.667 -0.666992 -29.5 -8 -56.5s-16.5 -54 -27.5 -81s-20.5 -46.5 -28.5 -58.5l-47 10c-14.667 37.333 -39.834 71.666 -75.501 102.999s-85.167 47 -148.5 47c-44 0 -85.5 -13.333 -124.5 -40
s-70.5 -67.334 -94.5 -122.001s-36 -124 -36 -208c0 -74 13.5 -138.167 40.5 -192.5s62.833 -96.166 107.5 -125.499s92.667 -44 144 -44c25.333 0 49 2.16699 71 6.5s48 15.333 78 33s69.333 46.5 118 86.5zM556 1066h-116.999l-269 365
c9.33301 12.667 17.666 23.334 24.999 32.001s16.333 16 27 22l277 -241l273 241c12 -6 21 -13.333 27 -22s13 -19.334 21 -32.001z" />
    <glyph glyph-name="Dcaron" unicode="&#x10e;" horiz-adv-x="1244" 
d="M48 0l-0.000976562 53.001c44.667 9.33301 79.5 19.666 104.5 30.999s37.5 21.333 37.5 30v1065l-142 -21l-11 72c40.667 11.333 89.834 21.5 147.501 30.5s117.5 16.167 179.5 21.5s120 8 174 8c192 0 343 -54 453 -162s165 -258.667 165 -452
c0 -124.667 -18.167 -230.167 -54.5 -316.5s-83.333 -156 -141 -209s-120.167 -91.333 -187.5 -115s-132 -35.5 -194 -35.5h-66h-139.5h-129h-162.5h-34zM551.999 92.001c43.333 0 88.332 10.832 134.999 32.499s90.167 54.834 130.5 99.501s73 101.167 98 169.5
s37.5 149.5 37.5 243.5c0 177.333 -41.5 315.333 -124.5 414s-202.167 148 -357.5 148c-29.333 0 -59.666 -1 -90.999 -3v-1037c0 -29.333 18.167 -47.833 54.5 -55.5s75.5 -11.5 117.5 -11.5zM622.998 1389l-116.999 -0.000976562l-266 311l23.5 32.5
c6.33301 8.33301 15.166 15.5 26.499 21.5l277 -194l273 194c11.333 -6 20.5 -13.167 27.5 -21.5s14.833 -19.166 23.5 -32.499z" />
    <glyph glyph-name="dcaron" unicode="&#x10f;" horiz-adv-x="1332" 
d="M1081 94c-124 -82.667 -206.334 -123.999 -247.001 -123.999c-28.667 0 -50.667 24.333 -66 73s-23 128.334 -23 239.001v982c0 49.333 -2.33301 85.5 -7 108.5s-16.834 38.5 -36.501 46.5s-52.5 13.667 -98.5 17v49c60.667 7.33301 115.334 17.166 164.001 29.499
s90.334 24.166 125.001 35.499l33 -32v-1249c0 -46.667 2 -80.167 6 -100.5s9.66699 -34.5 17 -42.5c6 -6.66699 17 -8.66699 33 -6s43.333 11.667 82 27zM818.999 245.001c-48 -58.667 -92.168 -108.503 -132.501 -149.503s-81.333 -72.167 -123 -93.5
s-89.167 -32 -142.5 -32c-52.667 0 -105.667 18.833 -159 56.5s-97.833 92 -133.5 163s-53.5 155.833 -53.5 254.5c0 60.667 11.5 121.334 34.5 182.001s55.667 116.334 98 167.001s92.5 91.167 150.5 121.5s122.333 45.5 193 45.5c40 0 80.333 -6.83301 121 -20.5
s87 -45.834 139 -96.501c0 -40 -4.5 -69 -13.5 -87s-24.167 -33.333 -45.5 -46c-22 42 -53 74.667 -93 98s-84.667 35 -134 35c-78.667 0 -143.334 -29.667 -194.001 -89s-76 -149.666 -76 -270.999c0 -74 13 -138.167 39 -192.5s58 -96.333 96 -126s75.333 -44.5 112 -44.5
c48.667 0 95.334 18.333 140.001 55s90.667 77.334 138 122.001c8 -4 15.833 -12.333 23.5 -25s12.834 -21.667 15.501 -27zM1307 1334c-2.66699 -49.333 -20.332 -98.168 -52.999 -146.501s-81.334 -92.833 -146.001 -133.5l-44 39c56 50.667 85.333 104.334 88 161.001
c2 34 -8.5 63.667 -31.5 89s-61.5 38 -115.5 38l-13 50c10.667 11.333 30.667 23 60 35s59.833 22 91.5 30s55.5 11.333 71.5 10c36.667 -15.333 61.667 -39.333 75 -72s19 -66 17 -100z" />
    <glyph glyph-name="Dcroat" unicode="&#x110;" horiz-adv-x="1244" 
d="M629 615h-580l-22 25c7.33301 24 16 49 26 75h580l25 -23zM48 0l-0.000976562 53.001c44.667 9.33301 79.5 19.666 104.5 30.999s37.5 21.333 37.5 30v1065l-142 -21l-11 72c40.667 11.333 89.834 21.5 147.501 30.5s117.5 16.167 179.5 21.5s120 8 174 8
c192 0 343 -54 453 -162s165 -258.667 165 -452c0 -124.667 -18.167 -230.167 -54.5 -316.5s-83.333 -156 -141 -209s-120.167 -91.333 -187.5 -115s-132 -35.5 -194 -35.5h-66h-139.5h-129h-162.5h-34zM551.999 92.001c43.333 0 88.332 10.832 134.999 32.499
s90.167 54.834 130.5 99.501s73 101.167 98 169.5s37.5 149.5 37.5 243.5c0 177.333 -41.5 315.333 -124.5 414s-202.167 148 -357.5 148c-29.333 0 -59.666 -1 -90.999 -3v-1037c0 -29.333 18.167 -47.833 54.5 -55.5s75.5 -11.5 117.5 -11.5z" />
    <glyph glyph-name="dcroat" unicode="&#x111;" horiz-adv-x="1093" 
d="M1065 1131h-603l-23 22l12.5 39.5c5 15.667 9.83301 28.5 14.5 38.5h604l22 -25zM1081 94c-124.667 -83.333 -207.003 -125.001 -247.003 -125.001c-28.667 0 -50.667 24.5 -66 73.5s-23 128.833 -23 239.5v987c0 47.333 -2.33301 82.333 -7 105
s-16.834 37.834 -36.501 45.501s-52.5 13.167 -98.5 16.5v49c60.667 7.33301 115.334 17.333 164.001 30s90.334 24.334 125.001 35.001l33 -32v-1249c0 -46.667 2 -80.167 6 -100.5s9.66699 -34.5 17 -42.5c6.66699 -6 17.834 -7.83301 33.501 -5.5
s42.834 11.166 81.501 26.499zM818.997 244.999c-48 -58.667 -92.168 -108.503 -132.501 -149.503s-81.333 -72.167 -123 -93.5s-89.167 -32 -142.5 -32c-52.667 0 -105.667 18.833 -159 56.5s-97.833 92 -133.5 163s-53.5 155.833 -53.5 254.5
c0 60.667 11.5 121.334 34.5 182.001s55.667 116.334 98 167.001s92.5 91.167 150.5 121.5s122.333 45.5 193 45.5c40 0 80.333 -6.83301 121 -20.5s87 -45.834 139 -96.501c0 -40 -4.5 -69 -13.5 -87s-24.167 -33.333 -45.5 -46c-22 42 -53 74.667 -93 98
s-84.667 35 -134 35c-78.667 0 -143.334 -29.667 -194.001 -89s-76 -149.666 -76 -270.999c0 -74 13 -138.167 39 -192.5s58 -96.333 96 -126s75.333 -44.5 112 -44.5c48.667 0 95.334 18.333 140.001 55s90.667 77.334 138 122.001c8 -4 15.833 -12.333 23.5 -25
s12.834 -21.667 15.501 -27z" />
    <glyph glyph-name="Emacron" unicode="&#x112;" horiz-adv-x="1036" 
d="M914 1233c-1.33301 -22.667 -4.16504 -49.834 -8.49805 -81.501s-9.5 -62.167 -15.5 -91.5s-11.667 -52.666 -17 -69.999h-55c-2.66699 61.333 -10.834 105 -24.501 131s-32.834 39 -57.501 39h-408l29 100h522zM811.001 705
c-10.667 -18.667 -24.999 -40.167 -42.999 -64.5s-34.333 -41.5 -49 -51.5c-20.667 19.333 -44.834 33.333 -72.501 42s-69.5 13 -125.5 13h-207l22 91h447zM979.002 264c-4.66699 -57.333 -11.335 -110.832 -20.002 -160.499s-15.667 -84.167 -21 -103.5h-890v53
c44.667 9.33301 79.5 19.666 104.5 30.999s37.5 21.333 37.5 30v1031c0 8 -11.667 18 -35 30s-59 22.667 -107 32v53h477v-53c-44.667 -4.66699 -80 -10.167 -106 -16.5s-39 -14.166 -39 -23.499v-1003c0 -12.667 4.83301 -23.834 14.5 -33.501s29 -17.167 58 -22.5
s72.833 -8 131.5 -8h119c41.333 0 74.833 4.5 100.5 13.5s47.834 26.833 66.501 53.5s37.334 66 56.001 118zM881.001 1565c-3.33301 -14.667 -10.334 -34.5 -21.001 -59.5s-18.334 -43.5 -23.001 -55.5h-650l-25 27c2.66699 14.667 9.33398 34.167 20.001 58.5
s19.334 42.833 26.001 55.5h648z" />
    <glyph glyph-name="emacron" unicode="&#x113;" horiz-adv-x="961" 
d="M886 555c-12 -14 -29.6699 -27.501 -53.0029 -40.501s-45.666 -23.5 -66.999 -31.5h-584l2 97h475c15.333 0 25.5 2.5 30.5 7.5s7.5 14.5 7.5 28.5c0 24.667 -5.16699 55.5 -15.5 92.5s-29.5 69.833 -57.5 98.5s-69 43 -123 43c-77.333 0 -137.166 -33.333 -179.499 -100
s-63.5 -151.667 -63.5 -255c0 -69.333 11 -133 33 -191s54 -104.333 96 -139s92.667 -52 152 -52c28 0 55.167 2.66699 81.5 8s56.5 17.333 90.5 36s76.333 47.667 127 87c8.66699 -4.66699 17.167 -12.667 25.5 -24s13.833 -19.666 16.5 -24.999
c-60 -64 -111.667 -112.167 -155 -144.5s-84.666 -53.833 -123.999 -64.5s-83 -16 -131 -16c-70.667 0 -136 19.333 -196 58s-108.167 93 -144.5 163s-54.5 152 -54.5 246c0 90 18.833 173.667 56.5 251s90.834 140 159.501 188c31.333 22 69.166 41.5 113.499 58.5
s86.833 25.5 127.5 25.5c65.333 0 120.5 -12.167 165.5 -36.5s81.5 -56.5 109.5 -96.5s48.167 -83.833 60.5 -131.5s18.5 -94.5 18.5 -140.5zM893.997 1290c-3.33301 -14.667 -10.332 -34.5 -20.999 -59.5l-24 -55.5h-665l-25 27c3.33301 14.667 10.166 34.167 20.499 58.5
s18.833 42.833 25.5 55.5h663z" />
    <glyph glyph-name="Ebreve" unicode="&#x114;" horiz-adv-x="1036" 
d="M914 1233c-1.33301 -22.667 -4.16504 -49.834 -8.49805 -81.501s-9.5 -62.167 -15.5 -91.5s-11.667 -52.666 -17 -69.999h-55c-2.66699 61.333 -10.834 105 -24.501 131s-32.834 39 -57.501 39h-408l29 100h522zM811.001 705
c-10.667 -18.667 -24.999 -40.167 -42.999 -64.5s-34.333 -41.5 -49 -51.5c-20.667 19.333 -44.834 33.333 -72.501 42s-69.5 13 -125.5 13h-207l22 91h447zM979.002 264c-4.66699 -57.333 -11.335 -110.832 -20.002 -160.499s-15.667 -84.167 -21 -103.5h-890v53
c44.667 9.33301 79.5 19.666 104.5 30.999s37.5 21.333 37.5 30v1031c0 8 -11.667 18 -35 30s-59 22.667 -107 32v53h477v-53c-44.667 -4.66699 -80 -10.167 -106 -16.5s-39 -14.166 -39 -23.499v-1003c0 -12.667 4.83301 -23.834 14.5 -33.501s29 -17.167 58 -22.5
s72.833 -8 131.5 -8h119c41.333 0 74.833 4.5 100.5 13.5s47.834 26.833 66.501 53.5s37.334 66 56.001 118zM849.001 1683c-40 -108 -89.833 -184.164 -149.5 -228.497s-120.834 -66.5 -183.501 -66.5c-68 0 -131.167 22.167 -189.5 66.5s-107.5 120.5 -147.5 228.5
c16 23.333 36 40.666 60 51.999c33.333 -70.667 76 -120.834 128 -150.501s100.333 -44.5 145 -44.5c46.667 0 96.334 14.667 149.001 44s95 79.666 127 150.999c24 -10.667 44.333 -28 61 -52z" />
    <glyph glyph-name="ebreve" unicode="&#x115;" horiz-adv-x="961" 
d="M886 555c-12 -14 -29.6699 -27.501 -53.0029 -40.501s-45.666 -23.5 -66.999 -31.5h-584l2 97h475c15.333 0 25.5 2.5 30.5 7.5s7.5 14.5 7.5 28.5c0 24.667 -5.16699 55.5 -15.5 92.5s-29.5 69.833 -57.5 98.5s-69 43 -123 43c-77.333 0 -137.166 -33.333 -179.499 -100
s-63.5 -151.667 -63.5 -255c0 -69.333 11 -133 33 -191s54 -104.333 96 -139s92.667 -52 152 -52c28 0 55.167 2.66699 81.5 8s56.5 17.333 90.5 36s76.333 47.667 127 87c8.66699 -4.66699 17.167 -12.667 25.5 -24s13.833 -19.666 16.5 -24.999
c-60 -64 -111.667 -112.167 -155 -144.5s-84.666 -53.833 -123.999 -64.5s-83 -16 -131 -16c-70.667 0 -136 19.333 -196 58s-108.167 93 -144.5 163s-54.5 152 -54.5 246c0 90 18.833 173.667 56.5 251s90.834 140 159.501 188c31.333 22 69.166 41.5 113.499 58.5
s86.833 25.5 127.5 25.5c65.333 0 120.5 -12.167 165.5 -36.5s81.5 -56.5 109.5 -96.5s48.167 -83.833 60.5 -131.5s18.5 -94.5 18.5 -140.5zM853.997 1363c-40 -108 -89.833 -184.164 -149.5 -228.497s-120.834 -66.5 -183.501 -66.5c-68 0 -131.167 22.167 -189.5 66.5
s-107.5 120.5 -147.5 228.5c16 23.333 36 40.666 60 51.999c33.333 -70.667 76 -120.834 128 -150.501s100.333 -44.5 145 -44.5c46.667 0 96.334 14.667 149.001 44s95 79.666 127 150.999c24 -10.667 44.333 -28 61 -52z" />
    <glyph glyph-name="Edotaccent" unicode="&#x116;" horiz-adv-x="1036" 
d="M914 1233c-1.33301 -22.667 -4.16504 -49.834 -8.49805 -81.501s-9.5 -62.167 -15.5 -91.5s-11.667 -52.666 -17 -69.999h-55c-2.66699 61.333 -10.834 105 -24.501 131s-32.834 39 -57.501 39h-408l29 100h522zM811.001 705
c-10.667 -18.667 -24.999 -40.167 -42.999 -64.5s-34.333 -41.5 -49 -51.5c-20.667 19.333 -44.834 33.333 -72.501 42s-69.5 13 -125.5 13h-207l22 91h447zM979.002 264c-4.66699 -57.333 -11.335 -110.832 -20.002 -160.499s-15.667 -84.167 -21 -103.5h-890v53
c44.667 9.33301 79.5 19.666 104.5 30.999s37.5 21.333 37.5 30v1031c0 8 -11.667 18 -35 30s-59 22.667 -107 32v53h477v-53c-44.667 -4.66699 -80 -10.167 -106 -16.5s-39 -14.166 -39 -23.499v-1003c0 -12.667 4.83301 -23.834 14.5 -33.501s29 -17.167 58 -22.5
s72.833 -8 131.5 -8h119c41.333 0 74.833 4.5 100.5 13.5s47.834 26.833 66.501 53.5s37.334 66 56.001 118zM627.001 1543c0 -41.333 -12.501 -76.667 -37.501 -106s-55.5 -44 -91.5 -44c-64 0 -96 35 -96 105c0 41.333 12.833 76.5 38.5 105.5s55.834 43.5 90.501 43.5
c64 0 96 -34.667 96 -104z" />
    <glyph glyph-name="edotaccent" unicode="&#x117;" horiz-adv-x="961" 
d="M886 555c-12 -14 -29.6699 -27.501 -53.0029 -40.501s-45.666 -23.5 -66.999 -31.5h-584l2 97h475c15.333 0 25.5 2.5 30.5 7.5s7.5 14.5 7.5 28.5c0 24.667 -5.16699 55.5 -15.5 92.5s-29.5 69.833 -57.5 98.5s-69 43 -123 43c-77.333 0 -137.166 -33.333 -179.499 -100
s-63.5 -151.667 -63.5 -255c0 -69.333 11 -133 33 -191s54 -104.333 96 -139s92.667 -52 152 -52c28 0 55.167 2.66699 81.5 8s56.5 17.333 90.5 36s76.333 47.667 127 87c8.66699 -4.66699 17.167 -12.667 25.5 -24s13.833 -19.666 16.5 -24.999
c-60 -64 -111.667 -112.167 -155 -144.5s-84.666 -53.833 -123.999 -64.5s-83 -16 -131 -16c-70.667 0 -136 19.333 -196 58s-108.167 93 -144.5 163s-54.5 152 -54.5 246c0 90 18.833 173.667 56.5 251s90.834 140 159.501 188c31.333 22 69.166 41.5 113.499 58.5
s86.833 25.5 127.5 25.5c65.333 0 120.5 -12.167 165.5 -36.5s81.5 -56.5 109.5 -96.5s48.167 -83.833 60.5 -131.5s18.5 -94.5 18.5 -140.5zM630.997 1263c0 -41.333 -12.501 -76.667 -37.501 -106s-55.5 -44 -91.5 -44c-64 0 -96 35 -96 105
c0 41.333 12.833 76.5 38.5 105.5s55.834 43.5 90.501 43.5c64 0 96 -34.667 96 -104z" />
    <glyph glyph-name="Eogonek" unicode="&#x118;" horiz-adv-x="1036" 
d="M914 1233c-1.33301 -22.667 -4.16504 -49.834 -8.49805 -81.501s-9.5 -62.167 -15.5 -91.5s-11.667 -52.666 -17 -69.999h-55c-2.66699 61.333 -10.834 105 -24.501 131s-32.834 39 -57.501 39h-408l29 100h522zM811.001 705
c-10.667 -18.667 -24.999 -40.167 -42.999 -64.5s-34.333 -41.5 -49 -51.5c-20.667 19.333 -44.834 33.333 -72.501 42s-69.5 13 -125.5 13h-207l22 91h447zM979.002 264c-4.66699 -57.333 -11.335 -110.832 -20.002 -160.499s-15.667 -84.167 -21 -103.5h-890v53
c44.667 9.33301 79.5 19.666 104.5 30.999s37.5 21.333 37.5 30v1031c0 8 -11.667 18 -35 30s-59 22.667 -107 32v53h477v-53c-44.667 -4.66699 -80 -10.167 -106 -16.5s-39 -14.166 -39 -23.499v-1003c0 -12.667 4.83301 -23.834 14.5 -33.501s29 -17.167 58 -22.5
s72.833 -8 131.5 -8h119c41.333 0 74.833 4.5 100.5 13.5s47.834 26.833 66.501 53.5s37.334 66 56.001 118zM925.001 -298.999c-30 -36 -68.668 -69.165 -116.001 -99.498s-91.333 -45.5 -132 -45.5c-25.333 0 -50.5 4 -75.5 12s-45.833 22.5 -62.5 43.5
s-25 50.833 -25 89.5c0 120 104.333 234 313 342l57 -19c-86.667 -58.667 -142.667 -111.334 -168 -158.001s-38 -85.667 -38 -117c0 -24.667 7.83301 -42.834 23.5 -54.501s35.5 -17.5 59.5 -17.5c16.667 0 36.834 5.5 60.501 16.5s49.5 29.167 77.5 54.5z" />
    <glyph glyph-name="eogonek" unicode="&#x119;" horiz-adv-x="961" 
d="M798 -299c-30 -36 -68.0029 -69.168 -114.003 -99.501s-93 -45.5 -141 -45.5c-40 0 -76 10.5 -108 31.5s-48 58.833 -48 113.5c0 39.333 14.833 83.333 44.5 132s77.834 98 144.501 148c-14.667 -2.66699 -31.667 -5.16699 -51 -7.5s-37.666 -3.5 -54.999 -3.5
c-70.667 0 -136 19.333 -196 58s-108.167 93 -144.5 163s-54.5 152 -54.5 246c0 90 18.833 173.667 56.5 251s90.834 140 159.501 188c31.333 22 69.166 41.5 113.499 58.5s86.833 25.5 127.5 25.5c65.333 0 120.5 -12.167 165.5 -36.5s81.5 -56.5 109.5 -96.5
s48.167 -83.833 60.5 -131.5s18.5 -94.5 18.5 -140.5c-12 -14 -29.667 -27.5 -53 -40.5s-45.666 -23.5 -66.999 -31.5h-508v-3c0 -65.333 11.167 -126 33.5 -182s54.5 -100.833 96.5 -134.5s92.333 -50.5 151 -50.5c28 0 55.167 2.66699 81.5 8s56.5 17.333 90.5 36
s76.333 47.667 127 87c8.66699 -4.66699 17.167 -12.667 25.5 -24s13.833 -19.666 16.5 -24.999c-85.333 -78 -151.833 -144.5 -199.5 -199.5s-81.167 -101.667 -100.5 -140s-29 -71.5 -29 -99.5c0 -28.667 6.83301 -49 20.5 -61s32.167 -18 55.5 -18
c22 0 44.667 5.5 68 16.5s49 29.167 77 54.5zM500.997 849.999c-66 0 -119.333 -24.5 -160 -73.5s-66.667 -114.5 -78 -196.5h396c15.333 0 25.5 2.5 30.5 7.5s7.5 14.5 7.5 28.5c0 24.667 -5.16699 55.5 -15.5 92.5s-29.5 69.833 -57.5 98.5s-69 43 -123 43z" />
    <glyph glyph-name="Ecaron" unicode="&#x11a;" horiz-adv-x="1036" 
d="M914 1233c-1.33301 -22.667 -4.16504 -49.834 -8.49805 -81.501s-9.5 -62.167 -15.5 -91.5s-11.667 -52.666 -17 -69.999h-55c-2.66699 61.333 -10.834 105 -24.501 131s-32.834 39 -57.501 39h-408l29 100h522zM811.001 705
c-10.667 -18.667 -24.999 -40.167 -42.999 -64.5s-34.333 -41.5 -49 -51.5c-20.667 19.333 -44.834 33.333 -72.501 42s-69.5 13 -125.5 13h-207l22 91h447zM979.002 264c-4.66699 -57.333 -11.335 -110.832 -20.002 -160.499s-15.667 -84.167 -21 -103.5h-890v53
c44.667 9.33301 79.5 19.666 104.5 30.999s37.5 21.333 37.5 30v1031c0 8 -11.667 18 -35 30s-59 22.667 -107 32v53h477v-53c-44.667 -4.66699 -80 -10.167 -106 -16.5s-39 -14.166 -39 -23.499v-1003c0 -12.667 4.83301 -23.834 14.5 -33.501s29 -17.167 58 -22.5
s72.833 -8 131.5 -8h119c41.333 0 74.833 4.5 100.5 13.5s47.834 26.833 66.501 53.5s37.334 66 56.001 118zM573.001 1389l-116.999 -0.000976562l-266 311l23.5 32.5c6.33301 8.33301 15.166 15.5 26.499 21.5l277 -194l273 194c11.333 -6 20.5 -13.167 27.5 -21.5
s14.833 -19.166 23.5 -32.499z" />
    <glyph glyph-name="ecaron" unicode="&#x11b;" horiz-adv-x="961" 
d="M886 555c-12 -14 -29.6699 -27.501 -53.0029 -40.501s-45.666 -23.5 -66.999 -31.5h-584l2 97h475c15.333 0 25.5 2.5 30.5 7.5s7.5 14.5 7.5 28.5c0 24.667 -5.16699 55.5 -15.5 92.5s-29.5 69.833 -57.5 98.5s-69 43 -123 43c-77.333 0 -137.166 -33.333 -179.499 -100
s-63.5 -151.667 -63.5 -255c0 -69.333 11 -133 33 -191s54 -104.333 96 -139s92.667 -52 152 -52c28 0 55.167 2.66699 81.5 8s56.5 17.333 90.5 36s76.333 47.667 127 87c8.66699 -4.66699 17.167 -12.667 25.5 -24s13.833 -19.666 16.5 -24.999
c-60 -64 -111.667 -112.167 -155 -144.5s-84.666 -53.833 -123.999 -64.5s-83 -16 -131 -16c-70.667 0 -136 19.333 -196 58s-108.167 93 -144.5 163s-54.5 152 -54.5 246c0 90 18.833 173.667 56.5 251s90.834 140 159.501 188c31.333 22 69.166 41.5 113.499 58.5
s86.833 25.5 127.5 25.5c65.333 0 120.5 -12.167 165.5 -36.5s81.5 -56.5 109.5 -96.5s48.167 -83.833 60.5 -131.5s18.5 -94.5 18.5 -140.5zM577.997 1066h-116.999l-269 365c9.33301 12.667 17.666 23.334 24.999 32.001s16.333 16 27 22l277 -241l273 241
c12 -6 21 -13.333 27 -22s13 -19.334 21 -32.001z" />
    <glyph glyph-name="Gcircumflex" unicode="&#x11c;" horiz-adv-x="1207" 
d="M1160 562c-38 -8.66699 -64.5 -20.6699 -79.5 -36.0029s-22.5 -30.666 -22.5 -45.999v-321l-27.5 -11.5l-63 -25.5c-23.667 -9.33301 -44.5 -16.833 -62.5 -22.5s-27 -6.16699 -27 -1.5v382c0 14.667 -12.167 28.834 -36.5 42.501s-75.833 26.834 -154.5 39.501v53h473
v-53zM1060 1188c6 -4.66699 2.66992 -16.8311 -9.99707 -36.498s-28.167 -40.334 -46.5 -62.001s-33.166 -37.834 -44.499 -48.501l-43 9c-44 49.333 -90.5 82.5 -139.5 99.5s-105.167 25.5 -168.5 25.5c-24.667 0 -56.834 -8.66699 -96.501 -26
s-79.334 -46.333 -119.001 -87s-72.834 -95.667 -99.501 -165s-40 -156 -40 -260c0 -122 19.667 -222.5 59 -301.5s89.833 -137.5 151.5 -175.5s125.5 -57 191.5 -57c68 0 126.5 9.66699 175.5 29s90.833 45.333 125.5 78l32 -14.5l44.5 -21
c14.333 -7 22.833 -12.167 25.5 -15.5c-66 -54 -124.167 -94.5 -174.5 -121.5s-96.166 -45 -137.499 -54s-82.333 -13.5 -123 -13.5c-68.667 0 -136.167 12.5 -202.5 37.5s-126.333 62.833 -180 113.5s-96.334 114.5 -128.001 191.5s-47.5 166.833 -47.5 269.5
c0 148 30.333 274.833 91 380.5s142.167 186.667 244.5 243s216.166 84.5 341.499 84.5c29.333 0 63.333 -4 102 -12s77 -19.5 115 -34.5s71.667 -33.5 101 -55.5zM969.003 1417c-8 -12.667 -15.1689 -23.334 -21.502 -32.001s-15.166 -15.334 -26.499 -20.001l-276 195
l-274 -195c-10.667 4.66699 -19.667 11.334 -27 20.001s-15.666 19.334 -24.999 32.001l269 317h117z" />
    <glyph glyph-name="gcircumflex" unicode="&#x11d;" horiz-adv-x="1019" 
d="M993 -115c0 -52 -15.167 -101.167 -45.5 -147.5s-70.5 -87 -120.5 -122s-105.333 -62.5 -166 -82.5s-121 -30 -181 -30c-48.667 0 -99.5 5 -152.5 15s-102.333 25.833 -148 47.5s-82.834 49.667 -111.501 84s-43 75.833 -43 124.5c0 24 7.66699 49.667 23 77
s45.166 58 89.499 92s109.833 73.333 196.5 118l22 -2c14.667 -1.33301 29.667 -4.16602 45 -8.49902s24 -11.166 26 -20.499c-68.667 -37.333 -118.667 -69.5 -150 -96.5s-51.166 -50.167 -59.499 -69.5s-12.5 -36.333 -12.5 -51c0 -35.333 15.167 -67.5 45.5 -96.5
s71 -52.333 122 -70s106.833 -26.5 167.5 -26.5c86 0 153.333 21 202 63s73 93.667 73 155c0 22 -7.66699 42.333 -23 61s-43.333 35.167 -84 49.5s-99.667 26.166 -177 35.499c-131.333 15.333 -224 37.666 -278 66.999s-81 60 -81 92c0 13.333 12.333 35.833 37 67.5
s75.667 72.5 153 122.5l155 17c-59.333 -40 -98.833 -73.5 -118.5 -100.5s-29.5 -43.167 -29.5 -48.5c0 -10 6 -19.5 18 -28.5s35.5 -17.833 70.5 -26.5s87.5 -17.334 157.5 -26.001c99.333 -11.333 176.333 -28.666 231 -51.999s92.834 -50.833 114.501 -82.5
s32.5 -65.167 32.5 -100.5zM1012 928l-23.499 -53.501c-8.33301 -18.333 -19.5 -35.5 -33.5 -51.5c-36 -6 -73 -10.667 -111 -14s-85.333 -4 -142 -2l-44 82c81.333 4.66699 149.166 14.834 203.499 30.501s96.833 29.167 127.5 40.5zM853.001 640.999
c0 -68 -19.4961 -127.998 -58.4961 -179.998s-89.167 -92.667 -150.5 -122s-126 -44 -194 -44c-67.333 0 -127.833 12.667 -181.5 38s-96 61 -127 107s-46.5 100 -46.5 162c0 65.333 19.167 125.166 57.5 179.499s88.166 97.666 149.499 129.999s126.666 48.5 195.999 48.5
c67.333 0 127.666 -14.5 180.999 -43.5s95.666 -67.667 126.999 -116s47 -101.5 47 -159.5zM683.005 600.001c0 70 -21.332 129.999 -63.999 179.999s-105.334 75 -188.001 75c-22 0 -45.833 -7.33301 -71.5 -22s-47.834 -36.5 -66.501 -65.5s-28 -65.167 -28 -108.5
c0 -70 20.333 -129.833 61 -179.5s104.334 -74.5 191.001 -74.5c38.667 0 76 16.333 112 49s54 81.334 54 146.001zM832.006 1097c-8 -12.667 -15.001 -23.334 -21.001 -32.001s-15 -15.334 -27 -20.001l-276 253l-274 -253c-10.667 4.66699 -19.667 11.334 -27 20.001
s-15.666 19.334 -24.999 32.001l269 382h117z" />
    <glyph glyph-name="Gbreve" unicode="&#x11e;" horiz-adv-x="1207" 
d="M1160 562c-38 -8.66699 -64.5 -20.6699 -79.5 -36.0029s-22.5 -30.666 -22.5 -45.999v-321l-27.5 -11.5l-63 -25.5c-23.667 -9.33301 -44.5 -16.833 -62.5 -22.5s-27 -6.16699 -27 -1.5v382c0 14.667 -12.167 28.834 -36.5 42.501s-75.833 26.834 -154.5 39.501v53h473
v-53zM1060 1188c6 -4.66699 2.66992 -16.8311 -9.99707 -36.498s-28.167 -40.334 -46.5 -62.001s-33.166 -37.834 -44.499 -48.501l-43 9c-44 49.333 -90.5 82.5 -139.5 99.5s-105.167 25.5 -168.5 25.5c-24.667 0 -56.834 -8.66699 -96.501 -26
s-79.334 -46.333 -119.001 -87s-72.834 -95.667 -99.501 -165s-40 -156 -40 -260c0 -122 19.667 -222.5 59 -301.5s89.833 -137.5 151.5 -175.5s125.5 -57 191.5 -57c68 0 126.5 9.66699 175.5 29s90.833 45.333 125.5 78l32 -14.5l44.5 -21
c14.333 -7 22.833 -12.167 25.5 -15.5c-66 -54 -124.167 -94.5 -174.5 -121.5s-96.166 -45 -137.499 -54s-82.333 -13.5 -123 -13.5c-68.667 0 -136.167 12.5 -202.5 37.5s-126.333 62.833 -180 113.5s-96.334 114.5 -128.001 191.5s-47.5 166.833 -47.5 269.5
c0 148 30.333 274.833 91 380.5s142.167 186.667 244.5 243s216.166 84.5 341.499 84.5c29.333 0 63.333 -4 102 -12s77 -19.5 115 -34.5s71.667 -33.5 101 -55.5zM981.003 1683c-40 -108 -89.833 -184.164 -149.5 -228.497s-120.834 -66.5 -183.501 -66.5
c-68 0 -131.167 22.167 -189.5 66.5s-107.5 120.5 -147.5 228.5c16 23.333 36 40.666 60 51.999c33.333 -70.667 76 -120.834 128 -150.501s100.333 -44.5 145 -44.5c46.667 0 96.334 14.667 149.001 44s95 79.666 127 150.999c24 -10.667 44.333 -28 61 -52z" />
    </font>
</defs>
</svg>
