<svg xmlns="http://www.w3.org/2000/svg" viewBox="0 0 2950.35 2704.66"><defs><style>.cls-1{fill:#2d0605;}.cls-2{fill:none;stroke:#2d0605;stroke-linecap:round;stroke-miterlimit:10;stroke-width:44.4px;}</style></defs><g id="Layer_2" data-name="Layer 2"><g id="Layer_1-2" data-name="Layer 1"><path class="cls-1" d="M60.86,1388.09a38,38,0,0,1-38-37.95v-28.26a37.91,37.91,0,0,1,33.87-37.73c74.82-8.14,113.37-15.56,130-35.67,17.5-21.11,18.77-66.62,18.77-139V303.59c0-75.47-3.78-123.29-23.06-144.42-18.27-20-59.62-25.58-125.56-32.37A37.86,37.86,0,0,1,22.9,89.05V60.86a38,38,0,0,1,38-38H569.5c168.92,0,297.81,38.19,383.09,113.49a329.71,329.71,0,0,1,89.24,127.88c18.3,46.6,27.58,99.44,27.58,157.05,0,176.55-87.09,280.85-160.15,337.26-43.68,33.73-94.13,59.89-149.93,77.76C708.87,852.49,655.7,861,605.56,861a393.18,393.18,0,0,1-63.38-4.93c-1.18-.19-2.37-.45-3.55-.75L428,826.48v287c0,77.15,3.26,117.14,21.81,135.71,19.15,19.18,61,25.65,145.32,34.92a37.92,37.92,0,0,1,33.82,37.73v28.29a38,38,0,0,1-38,37.95ZM428,710.8c25.41,9.65,68.62,19.26,119.58,19.26,53.72,0,130.67-10.46,192.17-60.31,63.1-51.15,95.09-132.68,95.09-242.34C834.83,158,611.37,137,542.88,137c-30.94,0-53.94,3.62-67.78,6.65-19.62,4.29-28.55,9.1-30.57,10.75l-.8.93-1.24,1.08c-6.32,5.53-10.49,9.19-13,45.6-2.79,41.13-2.53,118.16-2.06,258C427.68,526.81,428,609.69,428,710.8Z"/><path class="cls-1" d="M569.5,45.81c345.13,0,477,162.17,477,375.51,0,295.27-256.34,416.81-440.95,416.81a369.79,369.79,0,0,1-59.67-4.63,15,15,0,0,1-1.48-.32L423.93,801.76a15,15,0,0,0-18.85,14.56v297.17c0,166.33,13.53,174.27,187.54,193.4a15.06,15.06,0,0,1,13.42,15v28.29a15.05,15.05,0,0,1-15,15H60.86a15.05,15.05,0,0,1-15-15v-28.26a15.06,15.06,0,0,1,13.44-15c161.54-17.58,169.24-33.45,169.24-197.49V303.59c0-175.45-21.06-184.33-169.18-199.57a15,15,0,0,1-13.5-15V60.86a15,15,0,0,1,15-15H569.5M547.57,753c137.36,0,310.16-66,310.16-325.55,0-253-186.73-313.31-314.85-313.31-58.48,0-104.74,12.56-115.47,25.08C397.82,165.07,405,181.43,405.08,716.1A15,15,0,0,0,414.21,730c30.37,12.71,79.1,23,133.36,23M569.5,0H60.86A60.93,60.93,0,0,0,0,60.86V89.05a60.85,60.85,0,0,0,54.62,60.53c57,5.87,98.28,11.09,111,25,15,16.45,17.07,71.72,17.07,129v805.84c0,61.28-1,109.35-13.49,124.43-12.64,15.23-63.69,22-114.89,27.52A60.78,60.78,0,0,0,0,1321.88v28.26A60.92,60.92,0,0,0,60.86,1411H591a60.92,60.92,0,0,0,60.85-60.85v-28.29a60.77,60.77,0,0,0-54.21-60.49c-68-7.48-117.18-13.88-131.62-28.34-14-14-15.12-64.52-15.12-119.53V856.13l82,21.38c1.86.48,3.75.88,5.61,1.19a416.59,416.59,0,0,0,67.11,5.24c52.48,0,108.07-8.92,160.75-25.79,58.35-18.68,111.15-46.08,157-81.44,51.82-40,92.57-88.77,121.14-144.93,31.79-62.5,47.91-133.31,47.91-210.46,0-60.49-9.81-116.15-29.17-165.42a352.3,352.3,0,0,0-95.39-136.68C878.16,40.11,744.17,0,569.5,0ZM458.92,172.47c3.25-1.55,11.56-4.66,25.83-7.43a308.22,308.22,0,0,1,58.13-5.13c80.89,0,269,26.06,269,267.5,0,243.4-165.63,279.75-264.36,279.75-39,0-72.87-5.88-96.69-12.85-.05-93.71-.31-171.22-.52-234.38C450,351.39,449.75,279.68,451,235c.58-21.13,1.51-36.58,2.83-47.24,1-7.79,2-11.49,2.44-12.92.29-.28.72-.67,1.32-1.19l1.34-1.18Z"/><path class="cls-1" d="M1168.15,1388.09a38,38,0,0,1-38-37.95v-15.77a37.88,37.88,0,0,1,34.1-37.76c36-3.7,58.36-7.72,66.43-17.32,8.84-10.52,10.62-37.51,10.62-77.64V756.16h-79.29a38,38,0,0,1-30.61-60.4l25.67-35a38.08,38.08,0,0,1,30.6-15.51h53.52c-.09-34.34,1-91.58,18.8-154.31,22.44-78.9,65.79-146.35,128.87-200.46,56.81-50.28,120.24-80.36,188.54-89.43a40.25,40.25,0,0,1,5.15-.34q.67,0,1.35,0c78.51,2.72,142.25,37.42,158.61,86.34,7.28,21.76,11,65.1-45.5,110.84a40.86,40.86,0,0,1-4.16,2.94c-10.66,6.55-21,9.73-31.59,9.73-11.31,0-22.18-3.57-34.21-11.25a37.87,37.87,0,0,1-13.48-14.95c-6.29-12.54-29.29-53.69-61.35-56.57-1.17-.11-2.36-.16-3.53-.16-35.88,0-68,50.21-87.21,80.21-51.66,80.73-56.76,172.36-51.23,237.38h136.62a38,38,0,0,1,37.86,35.22c1.27,18.26-4.44,45.81-20,63.17a37.8,37.8,0,0,1-28.19,12.52h-124v436c0,51.17,3.89,73.9,14.35,83.89,12.08,11.54,41.42,15.45,88.31,20.51a37.89,37.89,0,0,1,33.88,37.74v15.88a38,38,0,0,1-37.95,37.95Z"/><path class="cls-1" d="M1582.59,223.62h.56c113.31,3.92,192.79,81,99.5,156.48a18.74,18.74,0,0,1-1.73,1.23c-7.14,4.38-13.49,6.35-19.62,6.35-7.31,0-14.29-2.81-21.89-7.66a14.9,14.9,0,0,1-5.32-5.9c-7.9-15.75-35.67-65.16-79.78-69.12-1.87-.17-3.74-.25-5.58-.25-48.42,0-84.74,56.75-106.51,90.77-58.62,91.61-60.6,193.38-54.06,259.11a15,15,0,0,0,15,13.52h143.77a15,15,0,0,1,15,13.89c1,15.09-4.4,35.37-14.19,46.33a14.89,14.89,0,0,1-11.12,4.88H1404.72a15.05,15.05,0,0,0-15,15v443.81c0,109.87,16.14,115.62,123.11,127.17a15.06,15.06,0,0,1,13.44,15v15.88a15.05,15.05,0,0,1-15,15h-343a15.05,15.05,0,0,1-15.06-15v-15.77a15.07,15.07,0,0,1,13.54-15c87.51-9,97.61-19.4,97.61-117.75V748.31a15.05,15.05,0,0,0-15-15h-87.14a15,15,0,0,1-12.14-24l25.67-35a15,15,0,0,1,12.13-6.15h61.41A15.06,15.06,0,0,0,1264.17,653c-.41-73.65,1.52-226.77,139.79-345.3,55.17-48.86,115-75.82,176.49-84a15.28,15.28,0,0,1,2.14-.14m0-45.81a61.79,61.79,0,0,0-8.16.54c-72.85,9.67-140.32,41.58-200.57,94.85-66.47,57.08-112.19,128.23-135.86,211.48-15.11,53.13-18.71,102.09-19.48,137.67h-30.81a61.07,61.07,0,0,0-49.07,24.87l-25.67,35a60.85,60.85,0,0,0,49.08,96.84h56.38v422.59c0,23-.61,38-2,48.66-1.17,9.12-2.64,12.87-3.2,14-1,.58-4.07,2.05-11.32,3.74-8.83,2.05-20.79,3.77-40,5.74a60.88,60.88,0,0,0-54.65,60.54v15.77a60.92,60.92,0,0,0,60.86,60.85h343a60.92,60.92,0,0,0,60.86-60.85v-15.88a60.76,60.76,0,0,0-54.33-60.51c-22.68-2.45-44.24-4.93-58.83-8.35-12.74-3-15.82-5.66-16.13-6-.7-.67-2.43-4-3.93-11.57-2.3-11.69-3.33-28.89-3.33-55.75V779.06h101.13a60.72,60.72,0,0,0,45.26-20.15c11.59-13,17.79-28.47,21-39.19a117.76,117.76,0,0,0,4.79-40.83,60.83,60.83,0,0,0-60.71-56.54H1431.8c-2.37-59.17,6-135,49-202.13,10.23-16,22.94-35.84,37.6-51,11.66-12.05,22.43-18.68,30.33-18.68a14.66,14.66,0,0,1,1.48.07c15,1.35,32.77,23.77,42.93,44a60.84,60.84,0,0,0,21.63,24c15.66,10,30.88,14.84,46.53,14.84,14.74,0,29.4-4.41,43.59-13.12a63.52,63.52,0,0,0,6.56-4.65c23.73-19.19,40.45-40.22,49.68-62.5,10-24.19,11.11-49.57,3.14-73.4-10.32-30.87-34.72-56.94-70.57-75.4-31-16-68.73-25.18-109-26.57-.71,0-1.43,0-2.15,0Z"/><path class="cls-1" d="M1738.79,1386.8a38,38,0,0,1-38-38v-10.77A38.22,38.22,0,0,1,1712.2,1311c104.43-102.56,196.36-194.62,263.86-282.57,73.36-95.59,109-176.36,109-246.92,0-98.33-47.49-152.48-133.74-152.48-58.12,0-107.81,32-156.37,100.7a38,38,0,0,1-56.6,6.16l-8.24-7.52a38,38,0,0,1-5.44-49.87l68.14-96.84a39.11,39.11,0,0,1,2.83-3.56c49.69-55.64,122.75-87.56,200.45-87.56,65.72,0,126.84,22.76,172.1,64.08C2219.12,601.1,2246,667.05,2246,745.35c0,85.16-22.06,150.49-76.13,225.48-49.59,68.79-123.45,143.73-257.82,272.43h198.58c32.14,0,51-1.45,65.11-9.38,14.3-8.05,27.88-25.19,46.89-59.16a38,38,0,0,1,44.69-17.64l7.68,2.46a38.18,38.18,0,0,1,24.84,46.91c-6.73,22.73-14,46.32-21.12,69.14-9.36,30.2-18.21,58.72-25.2,83.57A38.07,38.07,0,0,1,2217,1386.8Z"/><path class="cls-1" d="M1996.11,513.43c115.06,0,227,77.6,227,231.92,0,157.3-77.81,243.31-341,494.87-9.82,9.38-3.18,25.94,10.39,25.94h218.15c69.09,0,90.5-6.11,132-80.26a15.07,15.07,0,0,1,13.15-7.72,14.78,14.78,0,0,1,4.57.72l7.68,2.45a15,15,0,0,1,9.85,18.6c-15.44,52.19-33.93,108.68-46.4,153a15,15,0,0,1-14.48,10.94H1738.79a15,15,0,0,1-15-15.05v-10.77a15.08,15.08,0,0,1,4.51-10.74C1931.21,1128,2108,948.71,2108,781.5c0-111.12-58.91-175.39-156.65-175.39-84.28,0-139.59,60.18-175.07,110.39a15.06,15.06,0,0,1-22.46,2.46l-8.23-7.51a15.05,15.05,0,0,1-2.16-19.78l68.14-96.84a16.39,16.39,0,0,1,1.17-1.47c47.63-53.34,116-79.93,183.38-79.93m0-45.8c-84.21,0-163.5,34.7-217.55,95.22a62.5,62.5,0,0,0-4.46,5.62L1706,665.31a61,61,0,0,0,8.73,80l8.23,7.52a60.86,60.86,0,0,0,90.75-9.85c43.89-62.1,87.64-91,137.67-91,35.28,0,62.51,10.38,80.92,30.85,19.57,21.76,29.92,55.9,29.92,98.73,0,65.33-34.11,141.54-104.29,233-66.6,86.77-157.94,178.22-261.74,280.17a61.22,61.22,0,0,0-18.22,43.42v10.77a60.93,60.93,0,0,0,60.86,60.86H2217a60.85,60.85,0,0,0,58.58-44.34c6.9-24.55,15.7-52.93,25-83,7.1-22.89,14.44-46.56,21.21-69.44a60.83,60.83,0,0,0-39.82-75.22l-7.68-2.46a60.83,60.83,0,0,0-71.66,28.26c-16.33,29.19-28.1,44.74-38.14,50.39-9.6,5.41-26.34,6.43-53.87,6.43H1969c42.33-40.88,78.64-76.7,110.44-109.64,48.23-50,82.89-90.15,109.09-126.48,29.28-40.62,48.93-77.49,61.82-116,12.71-38,18.63-77.06,18.63-122.84,0-43.25-7.71-83.37-22.93-119.23a252.06,252.06,0,0,0-62.35-88.42,262.18,262.18,0,0,0-87.9-52.79,291,291,0,0,0-99.64-17.28Z"/><path class="cls-1" d="M2669.84,1396.24c-43.9,0-85.05-8.76-122.31-26a271.47,271.47,0,0,1-92.38-70.31c-49.81-58.1-77.23-136.82-77.23-221.65a399.57,399.57,0,0,1,24.95-140.47c16.46-44,40.09-82.75,70.25-115.16,30.4-34,65.4-60.71,104-79.45,38-18.45,78.62-28.21,117.4-28.21,62.89,0,122,25.68,166.37,72.31,42.28,44.41,66.54,103.94,66.54,163.34v.57l0,.57c-.82,16.31-2.63,29.48-8.8,40.74-7.1,13-18.87,21.35-36,25.63l-.53.13-.54.11c-28.32,5.67-193.06,17.24-348,23,4.72,148,94.59,214.4,182.89,214.4,45.87,0,89.09-17.58,132.12-53.75a37.92,37.92,0,0,1,55.52,7.4l5.84,8.39a38,38,0,0,1-2.09,46.1c-40,47.66-85.21,83.46-134.25,106.42C2725.38,1392.87,2687.89,1396.24,2669.84,1396.24Zm-8.24-583.32c-51.14,0-95.92,48.47-115.77,124.37,68.09,0,135.23-.52,205.2-4.07l.58,0h.58a54.25,54.25,0,0,0,9.86-.7,35.38,35.38,0,0,0,.18-3.85v-.43c.64-33.85-11.14-65.65-32.33-87.24C2711.89,822.62,2688.27,812.92,2661.6,812.92Z"/><path class="cls-1" d="M2694.54,737.86c119.41,0,210,102.94,210,212.74-1.37,27.45-5.49,39.8-27.45,45.29-26.64,5.33-192.92,17.12-352,22.83a15,15,0,0,0-14.53,15.1c2,173.33,111.13,244.81,206,244.81,51.72,0,100-19.7,146.86-59.12A14.84,14.84,0,0,1,2873,1216a15,15,0,0,1,12.37,6.46l5.83,8.39a15.08,15.08,0,0,1-.82,18.29c-85.8,102.14-177.81,124.2-220.51,124.2-167.45,0-269-137.25-269-295.1,0-93.33,32.94-179.8,89.22-240.19,57.64-64.51,133.13-100.19,204.5-100.19M2535.84,960.2h0c70.76,0,141.81-.32,216.34-4.11,24.71,0,32.94-6.86,32.94-27.45C2786.5,855.89,2738.46,790,2661.6,790c-59.57,0-117.92,52.54-140.46,151.86a15.05,15.05,0,0,0,14.7,18.33m158.7-268.15c-42.22,0-86.28,10.55-127.4,30.5S2488.56,771,2456.2,807.17c-32.13,34.58-57.29,75.82-74.78,122.58A422.47,422.47,0,0,0,2355,1078.24c0,90.29,29.39,174.3,82.75,236.55A294.26,294.26,0,0,0,2537.89,1391c40.3,18.69,84.7,28.16,132,28.16,19.95,0,61.24-3.65,113.51-28.11,52.08-24.37,99.88-62.2,142.08-112.43a61,61,0,0,0,3.35-73.9l-5.84-8.39a60.82,60.82,0,0,0-89.06-11.86c-38.73,32.55-77.13,48.38-117.38,48.38-72.61,0-146.45-52.72-158.48-169.53,140.93-5.73,297.16-16.31,328.05-22.49l1.07-.22,1.06-.26c23.32-5.83,40.32-18.23,50.51-36.85,8.75-16,10.74-33.76,11.58-50.59l.06-1.15V950.6a253.21,253.21,0,0,0-19.49-97,265.53,265.53,0,0,0-53.37-82.1,256.8,256.8,0,0,0-81-57.58,247,247,0,0,0-102-21.83ZM2577.29,914.33c8.61-21.85,19.78-40.07,33-53.7,15.79-16.23,33.53-24.81,51.28-24.81,20.67,0,38.15,7.13,52,21.19,13.41,13.67,22.1,32.74,24.85,53.89-54.63,2.53-107.74,3.23-161.12,3.43Z"/><path class="cls-1" d="M552,2334.36c-7.11,38.19-32,132.32-40,156.29H71.56v-32.86c78.14-5.32,85.25-11.54,85.25-86.13V2033.33c0-74.59-8.88-81.7-75.48-87v-32.86H358.38v32.86c-69.26,6.21-78.14,12.43-78.14,87v344.55c0,48.83,1.77,71,50.61,71.92,1.78.89,42.63.89,46.18.89,50.62,0,63.94-10.65,85.25-34.63,16.87-17.76,40-55.94,55.94-92.35Z"/><path class="cls-1" d="M598.12,2490.65v-30.19c48-6.22,53.28-9.77,53.28-72.82V2214.48c0-59.49-4.44-63-46.17-68.37V2116.8a970.88,970.88,0,0,0,160.73-32v302.81c0,60.39,3.55,66.6,55,72.82v30.19Zm103.9-460c-33.74,0-63.94-28.42-63.94-63.05,0-36.41,30.2-63,64.83-63,35.52,0,63.93,26.64,63.93,63C766.84,2002.25,738.43,2030.67,702,2030.67Z"/><path class="cls-1" d="M1045.67,2102.59c25.76-11.54,45.29-16.87,63-16.87,108.34,0,180.27,87.91,180.27,187.37,0,126.1-103.9,228.22-233.55,228.22-51.5,0-96.79-8.88-158.06-32,.89-21.31.89-46.18.89-68.38V1989.82c0-50.62-5.33-57.72-55.06-61.27v-30.19c46.18-4.44,120.77-16.88,169.61-30.2v249.53ZM1012.82,2393a87.58,87.58,0,0,0,5.33,30.19c5.32,13.32,30.19,40.85,63,40.85,47.07,0,81.7-52.39,81.7-161.61,0-113.67-55.94-158.07-109.22-158.07-18.65,0-27.53,2.67-40.85,6.22Z"/><path class="cls-1" d="M1577.58,2490.65H1343.15v-30.19c47.06-5.33,51.5-9.77,51.5-63.05V2202.94c0-44.4-3.55-48.84-45.29-57.72v-27.53c55.06-6.21,104.79-16.87,159.84-33.74v95.9c40-61.27,71.93-94.13,108.34-94.13,32.86,0,57.72,22.2,57.72,53.28,0,43.52-31.08,68.38-45.29,75.48-12.43,5.33-21.31.89-27.53-4.44-15.09-12.43-26.64-26.64-41.73-26.64-13.32,0-35.52,11.55-51.51,45.29v168.72c0,53.28,6.22,56,68.38,63.05Z"/><path class="cls-1" d="M2001.15,2501.31c-24,0-43.51-8-55.05-18.65-12.44-10.66-18.65-23.09-23.09-32.86-33.75,22.2-77.26,51.51-94.13,51.51-76.37,0-120.77-59.5-120.77-114.56,0-47.06,21.31-68.37,68.38-87,52.39-19.53,122.54-40.85,143-58.61v-39.07c0-46.17-16.88-71.93-55.06-71.93a43.72,43.72,0,0,0-35.52,17.76c-10.66,14.21-14.21,32-21.31,58.61-6.22,24-20.43,30.19-38.19,30.19-23.08,0-52.39-21.31-52.39-46.17,0-16,10.66-27.53,31.08-41.74,40-26.64,92.35-52.39,142.08-63.05,35.52,0,65.72,8,91.47,25.76,38.18,26.64,48.84,63.93,48.84,109.22v153.62c0,42.63,14.2,53.28,28.41,53.28,8.88,0,17.76-2.66,27.53-7.1l9.77,30.19Zm-81.69-223.78c-16,8.88-32,17.76-49.73,27.53-27.53,14.21-43.51,30.19-43.51,60.38,0,49.73,34.63,67.49,54.16,67.49,12.44,0,24.87-.89,39.08-14.21Z"/><path class="cls-1" d="M2360.78,2490.65H2126.35v-30.19c47.07-5.33,51.51-9.77,51.51-63.05V2202.94c0-44.4-3.56-48.84-45.29-57.72v-27.53c55-6.21,104.78-16.87,159.84-33.74v95.9c40-61.27,71.93-94.13,108.33-94.13,32.86,0,57.72,22.2,57.72,53.28,0,43.52-31.08,68.38-45.28,75.48-12.44,5.33-21.31.89-27.53-4.44-15.1-12.43-26.64-26.64-41.74-26.64-13.32,0-35.52,11.55-51.5,45.29v168.72c0,53.28,6.21,56,68.37,63.05Z"/><path class="cls-1" d="M2936.2,2126.57c-42.63,6.22-51.51,15.1-73.71,63-22.2,46.17-47.06,112.78-98.57,236.21-60.38,143.85-77.25,202.46-94.12,253.08-6.22,19.53-16.88,25.75-32,25.75-34.63,0-70.15-25.75-70.15-56.83,0-14.21,5.32-21.31,24-32.86,34.63-19.53,58.61-36.41,74.59-63.93,8.88-15.1,18.65-39.08,22.2-49.73,3.56-12.43,1.78-20.43-3.55-33.75-46.17-127.87-103-249.52-119-286.82s-26.64-47.95-69.26-54.17v-30.19h222v30.19c-38.19,6.22-44.4,12.43-34.64,40l69.27,187.37c19.53-48.84,51.5-130.54,67.49-180.27,8.88-28.41-2.67-40-47.07-47.06v-30.19H2936.2Z"/><line class="cls-2" x1="314.24" y1="1637.82" x2="2556.5" y2="1637.82"/></g></g></svg>